<svg width="6" height="7" viewBox="0 0 6 7" fill="none" xmlns="http://www.w3.org/2000/svg">
<path d="M2.44966 0.480608C2.53674 -0.160203 3.46326 -0.160203 3.55034 0.480608L3.66704 1.33942C3.71596 1.69938 4.09158 1.91625 4.42778 1.77863L5.22988 1.45029C5.82838 1.2053 6.29163 2.00768 5.78022 2.4035L5.09482 2.93398C4.80754 3.15632 4.80754 3.59006 5.09482 3.8124L5.78022 4.34287C6.29163 4.73869 5.82838 5.54108 5.22988 5.29608L4.42778 4.96775C4.09158 4.83013 3.71596 5.047 3.66704 5.40696L3.55034 6.26577C3.46326 6.90658 2.53674 6.90658 2.44966 6.26577L2.33296 5.40696C2.28404 5.047 1.90842 4.83013 1.57222 4.96775L0.77012 5.29608C0.171621 5.54108 -0.291634 4.73869 0.219784 4.34287L0.905183 3.8124C1.19246 3.59006 1.19246 3.15632 0.905183 2.93398L0.219784 2.4035C-0.291634 2.00768 0.171621 1.2053 0.77012 1.45029L1.57222 1.77863C1.90842 1.91625 2.28404 1.69938 2.33296 1.33942L2.44966 0.480608Z" fill="#E27762"/>
</svg>
