<?xml version="1.0"?>
<!--Icons from directory ""-->
<svg xmlns="http://www.w3.org/2000/svg" width="10" height="17" viewBox="0 0 10 17"><svg width="10" height="10" fill="none" id="Star" y="0"><path d="M5 0l1.123 3.455h3.632L6.816 5.59 7.94 9.045 5 6.91 2.061 9.045 3.184 5.59.244 3.455h3.633L5 0z" fill="#7D6F5D"/></svg><svg width="6" height="7" fill="none" id="must" y="10"><path d="M2.45.48c.087-.64 1.013-.64 1.1 0l.117.86c.049.36.425.576.76.439l.803-.329c.598-.245 1.062.558.55.954l-.685.53a.555.555 0 000 .878l.685.53c.512.397.048 1.2-.55.954l-.802-.328a.555.555 0 00-.761.439l-.117.859c-.087.64-1.013.64-1.1 0l-.117-.859a.555.555 0 00-.76-.44l-.803.33c-.598.244-1.062-.558-.55-.954l.685-.53a.555.555 0 000-.879l-.685-.53c-.512-.396-.048-1.199.55-.954l.802.329a.555.555 0 00.761-.44L2.45.481z" fill="#E27762"/></svg></svg>
