<svg width="0" height="0" class="hidden">
  <symbol fill="none" xmlns="http://www.w3.org/2000/svg" viewBox="0 0 98 81" id="Desktop">
    <g opacity=".7" clip-path="url(#clip0)">
      <path fill-rule="evenodd" clip-rule="evenodd" d="M6.54 9.818A3.267 3.267 0 019.8 6.545h36.314L6.54 28.988V9.818zm0 19.64v22.906h84.92V9.818a3.267 3.267 0 00-3.26-3.273H46.944L6.539 29.458zM49 65.454c.866 0 1.697-.344 2.31-.958a3.276 3.276 0 00-1.06-5.338 3.261 3.261 0 00-3.56.71A3.274 3.274 0 0049 65.454zM9.8 0C4.378 0-.006 4.401-.006 9.818v52.364C-.006 67.598 4.379 72 9.8 72h30.625l-.817 6.546H26.133A3.274 3.274 0 0022.963 81h52.073a3.274 3.274 0 00-3.17-2.454H58.393L57.575 72H88.2c5.421 0 9.806-4.401 9.806-9.818V9.818C98.006 4.401 93.621 0 88.2 0H9.8zm38.792 20.454l7.426 4.296v8.59l-7.426 4.296-7.426-4.295V24.75l7.426-4.296z" fill="#7D6F5D"></path>
    </g>
    <defs>
      <clipPath id="clip0">
        <path fill="#fff" d="M0 0h98v81H0z"></path>
      </clipPath>
    </defs>
  </symbol>
  <symbol fill="none" xmlns="http://www.w3.org/2000/svg" viewBox="0 0 33 55" id="Phone">
    <g opacity=".7" clip-path="url(#clip0)">
      <path fill-rule="evenodd" clip-rule="evenodd" d="M27.5.248h-22a5.525 5.525 0 00-3.89 1.596A5.426 5.426 0 000 5.698v43.604a5.43 5.43 0 001.61 3.854 5.525 5.525 0 003.89 1.596h22a5.525 5.525 0 003.889-1.596 5.425 5.425 0 001.61-3.854V5.698a5.427 5.427 0 00-1.61-3.854 5.525 5.525 0 00-3.89-1.596zM29 47.374a2.919 2.919 0 01-2.92 2.919H6.92A2.919 2.919 0 014 47.374V26.107l25-15.4v36.667zm0-37.096l-25 15.4V7.627a2.919 2.919 0 012.919-2.919H26.08A2.919 2.919 0 0129 7.627v2.651zm-9.303 14.806l-3.573-2.043-3.572 2.043v4.088l3.572 2.044 3.573-2.044v-4.088z" fill="#7D6F5D"></path>
    </g>
    <defs>
      <clipPath id="clip0">
        <path fill="#fff" d="M0 0h33v55H0z"></path>
      </clipPath>
    </defs>
  </symbol>
</svg>