<svg width="40" height="40" viewBox="0 0 40 40" fill="none" xmlns="http://www.w3.org/2000/svg">
<path d="M19 31C19 31.5523 19.4477 32 20 32C20.5523 32 21 31.5523 21 31L19 31ZM20.7071 8.29289C20.3166 7.90237 19.6834 7.90237 19.2929 8.29289L12.9289 14.6569C12.5384 15.0474 12.5384 15.6805 12.9289 16.0711C13.3195 16.4616 13.9526 16.4616 14.3431 16.0711L20 10.4142L25.6569 16.0711C26.0474 16.4616 26.6805 16.4616 27.0711 16.0711C27.4616 15.6805 27.4616 15.0474 27.0711 14.6569L20.7071 8.29289ZM21 31L21 9L19 9L19 31L21 31Z" fill="#FFFCF9"/>
</svg>
