<svg width="113" height="262" viewBox="0 0 113 262" fill="none" xmlns="http://www.w3.org/2000/svg">
<g opacity="0.3">
<path d="M60.9201 55.0334C60.8445 55.0145 60.7689 54.9956 60.6933 54.9578C60.5799 54.9389 60.5421 54.9389 60.9201 55.0334Z" fill="#FFF1E1"/>
<path d="M90.6112 43.2056C90.63 43.1679 90.6489 43.1302 90.6489 43.0924C91.1394 41.6965 90.3471 39.829 89.0455 39.1499C87.5552 38.3576 86.0839 38.6783 84.82 39.697C84.7823 39.7347 84.7257 39.7724 84.6879 39.8101C84.6502 36.0751 84.7445 32.3212 84.9709 28.5862C85.1218 26.0962 81.8206 24.0212 79.7268 25.568C78.6515 26.3603 77.8593 27.2846 77.2179 28.3599C77.4066 27.926 77.5763 27.4921 77.7461 27.0394C78.7647 24.4928 75.8032 22.0782 73.4452 22.7385C70.5591 23.5496 68.6161 26.2849 68.5218 29.2276C68.3708 29.3408 68.2199 29.454 68.1445 29.5106C67.9936 29.5671 67.8615 29.6049 67.7106 29.6426C67.6729 29.6615 67.654 29.6615 67.6352 29.6803C67.5974 29.6803 67.522 29.6803 67.4465 29.6803C67.3899 29.6803 67.3333 29.6803 67.2956 29.6803C67.2767 29.6803 67.239 29.6615 67.2202 29.6615C67.2013 29.6615 67.2013 29.6426 67.1824 29.6426C67.1635 29.6237 67.1447 29.6049 67.1259 29.586C67.1259 29.5671 67.107 29.5671 67.107 29.5483C66.9561 29.2276 66.7674 28.9258 66.6165 28.6051C66.5788 28.5108 66.541 28.4542 66.5222 28.4165C66.4845 28.341 66.4656 28.2844 66.4279 28.209C66.3524 28.0392 66.2958 27.8694 66.2204 27.6996C66.409 27.1149 66.5222 26.4924 66.5599 25.8321C66.6543 24.3796 65.4092 22.7951 63.9945 22.4744C62.542 22.1348 61.3535 22.6442 60.4104 23.6628C59.9765 23.8326 59.5803 24.0778 59.2219 24.4174C58.3165 25.2851 57.7883 26.2849 57.4865 27.4167C57.4299 27.4355 57.3922 27.4733 57.3356 27.4921C57.2224 27.5487 56.864 27.7185 56.8451 27.7185C56.6754 27.794 56.5056 27.8505 56.3358 27.926C54.3362 28.7371 52.299 29.6426 50.7333 31.114C50.7521 30.3783 50.7899 29.6237 50.8276 28.8881C50.9408 27.0583 49.1487 25.3228 47.3378 25.3983C45.3571 25.4926 43.9612 26.9262 43.848 28.8881C43.5273 34.1888 43.8669 39.546 44.8667 44.7713C44.7346 44.5827 44.6026 44.394 44.4705 44.1865C44.0744 43.6017 43.7348 42.9792 43.3953 42.3567C43.2444 42.0738 43.0935 41.772 42.9614 41.4701C42.9237 41.3947 42.886 41.3004 42.8482 41.2061C42.8294 41.1872 42.8294 41.1495 42.8105 41.0929C42.5841 40.4138 42.3389 39.7536 42.1314 39.0745C41.6221 37.3201 39.6414 36.0563 37.8305 36.641C36.0385 37.2258 34.85 39.0556 35.3971 40.942C36.3969 44.4129 38.0757 47.4688 40.3394 50.2606C41.1694 51.2981 42.7728 51.5056 44.0366 51.0529C44.6214 58.5607 48.2433 65.7666 54.3363 69.9543C54.3363 69.9732 54.3363 69.9921 54.3363 70.0298C54.0722 73.0291 54.3551 76.1228 55.1662 79.0089C55.2794 79.4239 55.4303 79.8578 55.6001 80.2728C55.336 80.5369 55.1096 80.8198 54.921 81.1405C54.3551 82.1214 54.1665 83.3853 54.4683 84.4794C54.8078 85.7433 55.8076 86.479 56.9206 87.0071C58.5617 87.7994 60.3349 88.4408 62.1835 88.4031C64.4472 88.3465 66.4279 87.3844 67.9181 85.8376C68.1256 85.8753 68.3331 85.8942 68.5218 85.8942C70.2761 85.8187 72.1813 84.3474 72.0115 82.4044C71.9361 81.5367 71.8606 80.6689 71.804 79.8012C71.7286 78.858 71.4645 78.028 70.7854 77.3301C70.7665 77.3112 70.7288 77.2735 70.71 77.2546C70.6156 75.8587 70.3892 74.4816 70.1063 73.0857C72.0492 72.633 73.9168 71.8596 75.6145 70.7466C79.0289 68.483 81.7829 65.1064 82.9336 61.1639C82.9525 61.145 82.9525 61.145 82.9714 61.1261C85.3671 58.4098 86.3668 55.0897 85.9707 51.5811C86.1216 51.4679 86.2725 51.3359 86.4046 51.2038L90.0264 47.299C91.0828 46.1483 91.328 44.5261 90.6112 43.2056ZM59.8633 39.8667C59.9011 39.8479 59.9388 39.829 59.9388 39.8101L59.9576 39.7913C59.9954 39.7724 60.0142 39.7724 60.052 39.7535C59.9765 39.829 59.8256 39.9233 59.7501 39.9233C59.769 39.9233 59.8067 39.9045 59.8633 39.8667ZM67.1447 57.8061C62.674 56.5423 57.9581 57.5609 54.3174 60.315C54.2985 60.2961 54.2985 60.2773 54.2797 60.2584C54.374 60.0886 54.4494 59.9 54.506 59.7113C54.5815 59.5038 54.6569 59.2964 54.7324 59.0889C54.7512 59.07 54.7513 59.0511 54.7701 59.0323C54.9588 58.7116 55.1096 58.372 55.2983 58.0513C55.4115 57.8438 55.5435 57.6552 55.6755 57.4666C55.7133 57.3911 55.8265 57.2591 55.8831 57.1836C56.1283 56.9007 56.3735 56.6177 56.6565 56.3536C56.8263 56.1838 56.996 56.0329 57.1658 55.882C57.2035 55.8443 57.2601 55.8066 57.2978 55.7688C57.2601 55.7877 57.2413 55.8066 57.2035 55.8254C57.2413 55.8066 57.279 55.7877 57.3167 55.75C57.4676 55.6557 57.5997 55.5613 57.4488 55.6745C57.6751 55.5236 57.8826 55.3916 58.1278 55.2595C58.1278 55.2595 58.2033 55.2218 58.2787 55.1841C58.3731 55.1463 58.6938 55.0143 58.7126 54.9954C58.8824 54.9388 59.0333 54.9011 59.2031 54.8634C59.2408 54.8445 59.2974 54.8445 59.3351 54.8257C59.5238 54.8445 60.0142 54.8634 60.184 54.8445C60.2783 54.8634 60.3726 54.8822 60.3726 54.8822C60.467 54.9011 60.5613 54.9388 60.6556 54.9766C60.731 54.9954 60.8254 55.0143 60.8819 55.052C61.297 55.2218 61.7119 55.4104 62.1458 55.5802C62.8249 55.8254 63.6549 55.9952 64.3717 55.9763C65.6922 55.9386 66.824 55.4104 67.937 54.7313C67.9558 54.7125 68.0879 54.6182 68.2199 54.5427C68.2576 54.5427 68.3142 54.5238 68.3708 54.5238C68.4274 54.5238 68.484 54.5238 68.5218 54.5238C68.6727 54.5616 68.8236 54.5993 68.9745 54.637C69.0311 54.6559 69.0688 54.6559 69.1065 54.6747C69.2386 54.7502 69.3706 54.8634 69.4461 54.92C69.4838 54.9388 69.5215 54.9766 69.5593 54.9954C69.7479 55.1841 70.0686 55.5425 69.9931 55.4104C70.0874 55.5425 70.1817 55.6934 70.2572 55.8254C70.2949 55.882 70.427 56.1461 70.5213 56.3159C70.5779 56.4857 70.71 56.8063 70.71 56.7875C70.7666 56.9761 70.842 57.1836 70.8797 57.3723C71.0118 57.8627 71.125 58.372 71.2193 58.8814C71.2381 58.9945 71.257 59.1077 71.2759 59.2398C71.2947 59.3152 71.3136 59.4284 71.3136 59.485C71.3136 59.485 71.3136 59.485 71.3136 59.5039C71.3325 59.6359 71.3513 59.7679 71.3513 59.9C70.0308 59.0323 68.7481 58.2589 67.1447 57.8061Z" fill="#FFF1E1"/>
<path d="M57.3145 55.7506C57.3715 55.7126 57.4095 55.6936 57.4476 55.6746C57.4095 55.6936 57.3715 55.7316 57.3145 55.7506Z" fill="#FFF1E1"/>
<path d="M71.3311 59.4668C71.3122 59.3723 71.3122 59.2967 71.2933 59.221C71.2744 59.1076 71.2555 59.0698 71.3311 59.4668Z" fill="#FFF1E1"/>
<path d="M58.0334 149.71C57.7505 149.333 57.4675 149.031 57.1469 148.767C57.0148 148.352 56.845 147.956 56.6187 147.579C54.5248 144.07 50.2427 145.164 47.0359 146.145C44.0554 147.05 41.3013 148.427 38.5472 149.861C38.2643 150.012 37.9813 150.144 37.6795 150.295H37.6607C37.4154 150.37 37.1702 150.465 36.925 150.54C36.7929 150.578 36.6609 150.597 36.5288 150.634C36.51 150.634 36.51 150.634 36.4911 150.634C36.4722 150.389 36.4534 150.125 36.4345 149.88C36.3213 148.39 35.4347 146.881 33.8691 146.522C32.4354 146.201 30.6245 146.711 29.9265 148.126C29.1343 149.729 29.0022 151.332 29.5681 152.936C29.5681 154.049 29.5115 155.162 29.3983 156.275C29.3795 156.482 29.3606 156.671 29.3229 156.878C29.304 156.954 29.2852 157.086 29.2663 157.199C29.1909 157.708 29.0965 158.237 28.9834 158.746C28.7759 159.821 28.4929 160.877 28.1911 161.934C27.8892 162.934 27.5308 163.914 27.1536 164.895C27.1347 164.952 27.1158 165.009 27.097 165.027C27.097 165.046 27.0781 165.046 27.0781 165.065C26.9649 165.31 26.8706 165.537 26.7574 165.782C26.5311 166.254 26.3047 166.725 26.0783 167.197C25.569 168.178 25.022 169.121 24.4372 170.045C24.1542 170.479 23.8713 170.913 23.5695 171.347C23.4185 171.554 23.2677 171.762 23.1167 171.988C23.079 172.026 23.0601 172.064 23.0413 172.101C23.0036 172.139 22.9658 172.196 22.9092 172.271C22.7394 172.479 22.5886 172.724 22.4565 172.969C22.0792 173.195 21.7397 173.478 21.4756 173.818C20.4947 175.082 20.4192 177.289 21.7397 178.402C22.8526 179.326 24.0222 180.213 25.3049 180.892C25.3804 180.93 25.4558 180.967 25.5313 181.005L28.5306 183.005C30.0586 184.023 32.4543 183.344 33.3031 181.76C33.5672 181.269 33.6993 180.76 33.737 180.25C35.0197 178.836 35.9441 176.949 36.9061 175.365C38.9623 171.969 40.9241 168.517 42.7916 165.009H42.8104H45.4136C46.2248 165.009 47.0359 164.688 47.6584 164.16C50.903 163.99 54.091 163.009 56.7507 161.123C57.9203 160.293 58.6937 158.878 58.4485 157.482C59.5803 154.935 59.75 151.974 58.0334 149.71ZM33.8502 166.725C33.9822 166.367 34.1143 166.027 34.2463 165.669C34.3029 165.688 34.3595 165.707 34.4161 165.744C34.2275 166.065 34.0388 166.386 33.8502 166.725ZM36.0384 150.427C36.0195 150.408 36.0006 150.37 35.9818 150.314C36.0006 150.333 36.0006 150.37 36.0195 150.408C35.944 150.314 35.8686 150.219 35.8497 150.219C35.9629 150.201 36.0761 150.427 36.095 150.484C36.0761 150.465 36.0572 150.446 36.0384 150.427Z" fill="#FFF1E1"/>
<path d="M125.68 218.789C124.397 218.034 122.492 218.204 121.454 219.336C121.417 219.374 121.398 219.412 121.36 219.449C120.983 217.959 119.474 216.846 117.946 216.827C117.417 216.827 116.908 216.808 116.38 216.771C116.154 216.752 115.908 216.733 115.682 216.714C115.607 216.714 115.229 216.657 115.173 216.657C114.211 216.488 113.267 216.28 112.343 216.016C110.589 215.507 108.457 216.639 108.042 218.45C107.608 220.317 108.608 222.203 110.476 222.75C111.739 223.109 113.022 223.392 114.324 223.562C114.267 230.296 115.286 237.049 117.342 243.463C117.87 245.123 119.417 246.198 121.171 245.972C123.001 245.726 124.02 244.293 124.19 242.538C124.246 242.048 124.284 241.576 124.34 241.086C125.095 241.973 126.227 242.463 127.453 242.293C129 242.086 130.207 240.878 130.433 239.35C130.641 239.388 130.83 239.407 131.037 239.388C133.093 239.294 134.319 237.841 134.527 235.898C135.262 229.108 131.528 222.203 125.68 218.789Z" fill="#FFF1E1"/>
<path d="M34.5493 188.909C33.7759 187.702 32.5497 186.815 31.4556 185.928C27.3622 182.552 23.0236 179.534 18.4019 176.912C18.6472 176.119 18.8924 175.346 19.1376 174.572C20.0242 171.724 20.6278 168.8 21.0994 165.857C22.0615 159.84 22.9104 153.822 23.797 147.805C24.1365 145.466 24.5326 143.108 24.891 140.75C29.9654 133.242 30.437 123.056 26.6454 114.793C25.8531 113.058 24.7967 111.398 23.5517 109.908C23.8535 109.474 24.1554 109.04 24.476 108.625C25.589 107.154 24.759 104.664 23.231 103.852C21.722 103.041 20.2506 103.362 19.1187 104.381C18.5717 104.531 18.0435 104.833 17.5719 105.229C12.8371 109.474 9.98872 115.378 8.2344 121.396C6.57439 127.055 5.6878 132.959 5.00871 138.807C3.19779 146.956 2.16029 155.256 1.89619 163.613C1.74528 168.498 1.87732 173.384 2.31119 178.251C2.74505 183.174 3.17891 188.267 5.3671 192.776C6.00846 194.078 6.81961 195.266 7.78166 196.322C8.06462 196.737 8.40417 197.115 8.80031 197.454C9.12099 197.718 9.44166 197.945 9.80007 198.152C9.96984 198.284 10.1396 198.397 10.3094 198.529C10.781 198.907 11.2903 199.246 11.8562 199.529C12.0826 199.642 12.309 199.737 12.5542 199.812C13.4974 200.246 14.4971 200.585 15.5346 200.812C19.911 201.774 24.3629 201.057 28.3997 199.246C30.6445 198.228 33.1156 196.681 34.4738 194.587C35.6056 192.833 35.6622 190.644 34.5493 188.909Z" fill="white"/>
<path d="M128.471 214.13C126.509 197.964 124.113 181.854 121.227 165.839C119.812 157.954 118.265 150.087 116.624 142.24C115.209 135.506 113.945 128.621 111.72 122.094C109.701 116.17 106.796 110.625 102.231 106.418C102.42 105.909 102.608 105.399 102.797 104.909C103.457 103.192 102.08 101.004 100.364 100.608C98.364 100.155 96.7606 101.212 96.0627 103.041C95.9118 103.456 95.742 103.871 95.5911 104.305C94.6667 104.965 94.214 106.003 94.1386 107.135C94.1008 107.625 94.082 108.116 94.0631 108.606C91.9315 115.095 90.6111 121.83 92.4408 128.602C93.5161 132.582 95.4967 136.26 97.2888 139.939C97.7038 140.788 98.1188 141.655 98.4961 142.504C98.5904 142.712 98.6847 142.919 98.7602 143.127C98.7979 143.202 98.8168 143.259 98.8356 143.315C98.8356 143.334 98.8545 143.353 98.8733 143.391C99.0808 143.9 99.3072 144.428 99.4958 144.956C100.213 146.786 100.854 148.635 101.42 150.502C102.589 154.294 103.495 158.18 104.212 162.085C104.57 164.028 104.872 165.971 105.155 167.914C105.155 167.876 105.212 168.272 105.23 168.461C105.249 168.593 105.268 168.781 105.287 168.819C105.344 169.328 105.419 169.838 105.476 170.328C105.608 171.347 105.721 172.347 105.815 173.365C106.664 181.363 107.098 189.399 107.777 197.416C108.154 201.906 108.739 206.735 111.399 210.527C110.757 211.168 110.342 212.036 110.38 212.96C110.475 215.016 111.927 216.242 113.87 216.45C117.567 216.827 121.246 217.205 124.943 217.601C126.697 217.789 128.678 215.865 128.471 214.13ZM120.453 209.338C120.359 209.301 120.208 209.244 120.17 209.225C119.963 209.112 119.755 208.999 119.548 208.886C119.491 208.848 119.34 208.754 119.208 208.659C119.812 208.508 120.303 208.225 120.718 207.848C120.793 208.395 120.85 208.942 120.925 209.489C120.831 209.47 120.736 209.452 120.642 209.414C120.604 209.395 120.529 209.376 120.453 209.338Z" fill="white"/>
<path d="M89.3861 23.0404C89.3861 23.0404 89.3673 23.0592 89.3861 23.0404C89.3673 23.0592 89.3861 23.0404 89.3861 23.0404C89.3861 23.0026 89.3861 22.9461 89.405 22.9083C89.4427 22.3424 89.4239 22.9461 89.3861 23.0404C89.4427 22.9272 89.5748 22.1349 89.6125 22.0406C89.6125 22.0217 89.6502 21.9463 89.6691 21.852C89.7068 21.7765 89.7634 21.5879 89.8011 21.5501C89.9898 21.1917 90.1973 20.8522 90.4425 20.5126C91.9327 18.4188 89.952 15.061 87.4243 15.2685C86.1793 15.3628 84.9343 15.4006 83.6893 15.344C83.6327 15.344 83.5761 15.344 83.5384 15.344C83.5007 15.3251 83.4629 15.3251 83.4063 15.3063C83.1611 15.2308 82.9159 15.1931 82.6706 15.1176C82.5763 15.0988 82.482 15.061 82.4066 15.0233H82.3877C82.2934 14.9667 81.9349 14.7026 81.8595 14.6649C81.8218 14.6272 81.8029 14.6083 81.7841 14.5894C81.7841 14.5894 81.784 14.5894 81.7652 14.5706C81.7652 14.5517 81.7652 14.5517 81.7463 14.5328C81.6897 14.4385 81.6331 14.3253 81.5765 14.231C81.5765 14.2122 81.5577 14.1933 81.5577 14.1933C81.5388 14.1178 81.52 14.0424 81.5011 13.9858C82.7272 12.7974 82.7461 10.7601 81.7275 9.43964C80.5956 7.96827 78.8413 7.81736 77.219 8.53418C75.4081 9.32646 73.5972 10.1565 71.7863 10.9487C71.7674 9.81691 71.7486 8.70396 71.7297 7.57213C71.692 5.74235 70.1451 3.98803 68.2399 4.08235C66.2592 4.17667 64.9954 5.55372 64.769 7.42123C64.769 7.47782 64.7501 7.51554 64.7501 7.55327C64.6935 8.11918 64.7313 7.51554 64.769 7.42123C64.7501 7.49668 64.6747 7.87396 64.6558 7.91168C64.5992 8.10032 64.5426 8.27009 64.486 8.43986C64.3163 8.72282 64.1276 9.04351 63.9767 9.32646C63.9767 9.34532 63.9767 9.34532 63.9578 9.36419C63.8447 9.49623 63.7315 9.62828 63.5994 9.74146C63.4296 9.91123 62.9581 10.2508 63.0901 10.1942C62.826 10.3451 62.5619 10.496 62.3167 10.6658C62.3167 10.6658 62.3167 10.6658 62.2978 10.6658C62.1847 10.7035 62.0526 10.7412 61.9394 10.779C61.7697 10.8167 61.5999 10.8544 61.449 10.8921C61.2981 10.8921 61.1472 10.8921 60.9963 10.8921C60.7699 10.7978 60.2228 10.7412 60.0719 10.7035C60.053 10.7035 60.0153 10.6846 59.9965 10.6846C59.8644 10.6092 59.7135 10.5526 59.5815 10.4771C59.4306 10.3828 59.2985 10.2885 59.1476 10.1942C58.9024 9.94896 58.6571 9.70373 58.4119 9.47737C58.3364 9.34532 58.2422 9.23214 58.1667 9.10009C58.1478 9.08123 58.0724 8.91146 57.9969 8.79827C57.978 8.76055 57.9592 8.70396 57.9403 8.64737C57.8837 8.49646 57.8649 8.32668 57.8083 8.17577C57.6762 6.36486 56.2992 4.59167 54.3185 4.68599C52.451 4.76144 50.8098 6.21395 50.8287 8.17577C50.8287 8.53418 50.8287 8.8926 50.8099 9.23214C50.8099 9.40192 50.791 9.55282 50.7721 9.72259C50.7532 9.91123 50.6023 10.2696 50.7533 9.87351C50.9608 9.38305 50.7155 9.98669 50.6967 10.1187C50.6589 10.2696 50.6212 10.4206 50.5835 10.5903V10.6092C50.4514 10.5337 50.3194 10.4583 50.2062 10.3828C50.1684 10.364 50.1496 10.3262 50.1119 10.3074C49.9421 10.1565 49.7723 10.0244 49.6025 9.87351C49.2253 9.55282 48.848 9.21327 48.4896 8.87373C47.7916 8.23236 47.1125 7.55327 46.4712 6.87418C45.7732 6.13849 45.113 5.40281 44.4716 4.61053C44.3207 4.44076 44.1887 4.27098 44.0566 4.08235C44 4.02576 43.9623 3.9503 43.9246 3.91257C43.6039 3.49757 43.3021 3.08257 43.0002 2.6487C41.9439 1.15847 39.9066 0.309608 38.2277 1.4037C36.5111 2.4978 36.1527 4.40303 36.9827 6.17622L40.4348 13.5519C41.1516 15.0799 43.3398 15.6647 44.83 15.0044C44.9432 15.0988 45.0564 15.1931 45.1696 15.2874C42.3023 16.7776 39.6803 18.7017 37.36 20.9465C35.568 22.682 36.3036 26.2661 38.9068 26.7754C42.6796 27.5299 45.8675 25.9831 48.848 23.7949C49.2819 23.4931 49.6969 23.1724 50.1119 22.8517C49.9798 23.6063 49.8666 24.3608 49.7912 25.1342C49.6403 26.4924 50.791 27.8318 51.9417 28.3222C53.1678 28.8504 54.809 28.624 55.7521 27.6054C57.7328 25.4361 59.6381 23.1913 61.6565 21.0597C62.1658 22.4745 62.694 23.8892 63.2033 25.2852C63.6938 26.6245 64.6369 27.5865 66.1083 27.794C67.4288 27.9638 68.919 27.3602 69.5792 26.134L72.8804 19.9656C72.9747 19.777 73.0879 19.5883 73.1822 19.3997C73.352 20.2108 73.484 21.0408 73.6161 21.852C73.9556 23.9647 74.6724 26.0397 76.2759 27.5299C77.5397 28.6806 79.992 29.0579 81.2181 27.5299C81.4634 27.2281 81.6897 26.9263 81.935 26.6245C82.1613 27.4356 82.3499 28.2656 82.5197 29.0956C82.5763 29.4352 82.6518 29.7559 82.6895 30.0954C82.7084 30.2274 82.7272 30.3784 82.7461 30.5104C82.7461 30.5481 82.765 30.6047 82.765 30.6802C82.8404 31.3593 82.897 32.0384 82.9347 32.7175C83.0102 34.1888 82.9913 35.6602 82.8782 37.1316C82.7461 38.867 84.3118 40.3384 85.8964 40.5648C87.5752 40.7911 89.2918 39.7536 89.7257 38.0559C90.1595 36.3582 90.2916 34.585 90.1972 32.8306C90.1595 32.0195 90.0652 31.2084 89.9709 30.3972C89.8954 29.7936 89.82 29.2088 89.7257 28.6052C89.7068 28.4165 89.6691 28.2279 89.6502 28.0393C89.6502 27.9827 89.6125 27.7752 89.5936 27.6243C89.5748 27.5299 89.5748 27.4356 89.5748 27.3979C89.5559 27.2093 89.537 27.0206 89.4993 26.832C89.4616 26.4547 89.4239 26.0963 89.3861 25.719C89.3296 24.9456 89.2918 24.1722 89.3484 23.3988C89.3672 23.3045 89.3673 23.1724 89.3861 23.0404Z" fill="#5B433F"/>
<path d="M72.862 56.3537C71.334 54.4862 69.2213 53.1846 66.9388 52.4678C65.3354 51.9585 63.3735 53.0714 62.9962 54.7126C62.9208 55.071 62.8831 55.4294 62.9208 55.7689C62.4115 54.6749 61.3551 53.9014 60.0535 53.9014H57.0353C55.3565 53.9014 53.753 55.3728 53.8285 57.1083C53.9039 58.8437 55.2433 60.3151 57.0353 60.3151H60.0535C61.7324 60.3151 63.3358 58.8437 63.2603 57.1083C63.2603 57.0517 63.2603 57.014 63.2415 56.9574C63.6187 57.7308 64.3167 58.3533 65.241 58.6551C65.4108 58.7117 65.5805 58.7871 65.7692 58.8249C65.1844 58.6551 65.7315 58.806 65.8824 58.8815C66.2597 59.0701 66.5992 59.2776 66.9576 59.504C66.9953 59.5228 67.0142 59.5417 67.0519 59.5605C67.1651 59.6549 67.2783 59.7492 67.3915 59.8624C67.731 60.183 68.0328 60.5226 68.3347 60.881C69.391 62.1826 71.7867 62.0694 72.862 60.881C74.1258 59.504 73.9938 57.7496 72.862 56.3537Z" fill="#5B433F"/>
<path d="M83.708 90.9308C81.4443 89.6481 79.1618 88.4408 76.7284 87.5165C74.3327 86.611 71.6541 86.0451 69.0886 86.2715C66.5986 86.479 64.2784 87.2524 61.845 87.7617C61.5997 87.8183 61.3545 87.856 61.0904 87.9126C61.0149 87.9315 60.9583 87.9315 60.8829 87.9504C60.8452 87.9504 60.7509 87.9692 60.6188 87.9692C60.3359 87.9692 60.0529 88.007 59.7511 87.9881C59.6379 87.9881 59.2229 87.9315 59.1852 87.9315C59.0154 87.8938 58.8267 87.8372 58.657 87.7995C58.6004 87.7806 58.5626 87.7806 58.5249 87.7617C58.4872 87.7429 58.4495 87.7051 58.374 87.6486C57.9024 87.3467 57.4685 86.9883 56.9969 86.6676C55.4878 85.5924 53.6958 85.2906 51.9037 85.7056C50.3758 86.064 49.0931 87.0072 47.8103 87.856C45.6033 89.3274 43.3208 90.7045 40.9251 91.8552C40.6233 92.0061 40.3214 92.1381 40.0196 92.2702C39.9064 92.3268 39.831 92.3645 39.7744 92.3833C39.7178 92.4022 39.6612 92.4211 39.5669 92.4588C38.9633 92.704 38.3407 92.9304 37.7182 93.1379C36.5676 93.5152 35.3791 93.817 34.1907 94.0433C33.5682 93.7793 32.8703 93.7038 32.1723 93.9302C30.5689 94.4395 29.3994 96.1561 29.9275 97.8727C32.493 105.984 38.5483 112.888 46.2258 116.529C50.1494 118.396 54.3938 119.509 58.7513 119.566C63.222 119.641 67.5795 118.585 71.6541 116.793C75.4268 115.133 78.9166 112.643 81.7462 109.625C83.2553 108.021 84.6134 106.248 85.7453 104.362C86.9903 102.306 88.4239 99.7402 88.405 97.269C88.3673 94.1943 86.198 92.3645 83.708 90.9308ZM53.0733 91.7797C53.1299 91.7608 53.2431 91.8174 53.3751 91.8929C53.2242 91.8552 52.9979 91.8174 53.0733 91.7797Z" fill="white"/>
<path d="M53.2244 119.226C45.6789 119.057 38.1335 118.868 30.6069 118.698C28.928 118.66 27.3246 120.207 27.4 121.905C27.4755 123.678 28.8148 125.074 30.6069 125.112C38.1523 125.282 45.6978 125.47 53.2244 125.64C54.9033 125.678 56.5067 124.131 56.4313 122.433C56.3558 120.66 55.0353 119.264 53.2244 119.226Z" fill="#839D57"/>
<path d="M53.073 137.147C47.1497 135.808 41.019 135.883 35.1524 137.43C33.7376 137.807 32.6813 139.297 32.7944 140.769C32.719 141.033 32.6813 141.335 32.7001 141.636C32.7378 142.636 32.7756 143.655 32.8133 144.655C32.8888 146.334 34.2281 147.937 36.0201 147.861C42.264 147.579 48.3193 145.937 53.8463 143.014C56.2232 141.75 55.7327 137.751 53.073 137.147Z" fill="#839D57"/>
<path d="M49.5263 124.791C45.7158 124.829 41.8865 125.263 38.1326 125.942C37.8874 125.395 37.4912 124.904 36.8687 124.584C35.4917 123.848 33.1903 124.093 32.4735 125.734C31.6435 127.64 31.6058 129.45 32.5489 131.337C33.3978 133.016 34.9446 134.148 36.6612 134.789C38.208 135.355 39.9435 135.393 41.5658 135.298C43.3012 135.204 45.0367 135.072 46.791 134.959C50.1676 134.751 55.1099 135.185 56.2417 131.054C57.317 127.093 52.8086 124.753 49.5263 124.791Z" fill="white"/>
<path d="M50.2256 162.556H47.2074C45.5286 162.556 43.9252 164.028 44.0006 165.763C44.0761 167.499 45.4154 168.97 47.2074 168.97H50.2256C51.9045 168.97 53.5079 167.499 53.4325 165.763C53.357 164.028 52.0177 162.556 50.2256 162.556Z" fill="white"/>
<path d="M64.639 124.98C64.5822 125.018 64.5254 125.037 64.4685 125.074C64.4306 125.093 64.4685 125.074 64.639 124.98Z" fill="#A51B18"/>
<path d="M115.06 255.517C112.759 233.955 110.042 212.432 106.949 190.984C105.458 180.722 103.874 170.46 101.705 160.33C100.61 155.275 99.3843 150.238 97.9318 145.277C96.4982 140.354 94.6307 135.562 93.2159 130.639C92.3859 127.753 91.9898 125.602 91.9143 122.754C91.8766 121.339 91.9332 119.924 92.0464 118.51C92.1784 117 92.2916 116.321 92.5745 114.775C93.6686 108.965 95.7059 103.381 97.7432 97.8538C98.2525 96.4579 97.3848 94.9865 96.2719 94.232C92.8952 91.9117 88.1227 93.402 85.6327 96.3259C83.369 99.0045 82.4447 102.438 80.6715 105.418C80.2754 106.078 79.8793 106.701 79.4454 107.323C79.2379 107.644 79.0115 107.946 78.7852 108.248C78.7663 108.267 78.7663 108.267 78.7663 108.285C78.5965 108.512 78.4079 108.719 78.2381 108.946C77.2006 110.191 76.0688 111.341 74.8804 112.417C74.5974 112.662 74.3145 112.907 74.0127 113.152C73.8618 113.265 73.7108 113.398 73.5788 113.511C73.5599 113.53 73.5034 113.567 73.4468 113.624C72.8431 114.077 72.2206 114.51 71.5792 114.925C70.2588 115.774 68.8817 116.529 67.4669 117.17C67.3538 117.227 67.2594 117.265 67.1463 117.321C67.0708 117.359 66.9765 117.397 66.9199 117.415C66.5615 117.548 66.2219 117.698 65.8635 117.812C65.0335 118.113 64.1658 118.359 63.3358 118.66C61.1853 119.434 59.3367 120.509 58.054 122.433C57.0165 123.98 56.5826 125.866 56.2996 127.677C55.9412 129.847 55.7337 132.035 55.7714 134.242C55.828 138.411 56.7335 142.41 57.9408 146.39C58.4878 148.239 59.0537 150.069 59.431 151.955C59.4688 152.181 59.5253 152.408 59.5631 152.634C59.5631 152.672 59.6008 152.898 59.6197 153.03C59.6385 153.219 59.6763 153.709 59.6763 153.634C59.6951 153.86 59.714 154.087 59.714 154.313C59.7328 154.766 59.7328 155.218 59.714 155.671C59.714 155.841 59.6951 156.029 59.6763 156.199C59.6574 156.256 59.6196 156.577 59.6008 156.671C59.5253 157.086 59.431 157.482 59.299 157.878C59.2424 158.048 59.1858 158.218 59.1292 158.387C59.1103 158.444 58.9594 158.821 58.9405 158.878C58.6576 159.5 58.318 160.104 57.9408 160.67C57.8464 160.821 57.7522 160.953 57.639 161.104C57.5824 161.179 57.0353 161.858 57.5069 161.292C57.2428 161.594 56.9976 161.896 56.7335 162.198C56.1676 162.82 55.5451 163.424 54.9037 163.971C54.7717 164.084 54.6208 164.216 54.4887 164.33C54.451 164.348 54.3001 164.48 54.1869 164.575C54.0926 164.631 53.9794 164.745 53.9417 164.763C53.7153 164.933 53.489 165.084 53.2626 165.254C52.5458 165.763 51.7912 166.235 51.0367 166.687C49.886 167.385 48.7164 168.008 47.528 168.612C46.9621 167.687 45.9812 167.046 44.8494 167.102C43.1705 167.178 41.5859 168.517 41.6425 170.309C41.6425 170.479 41.6425 170.649 41.6425 170.819C41.6048 170.97 41.4916 171.347 41.4728 171.422C41.4728 171.46 41.4539 171.498 41.435 171.535C41.4539 171.498 41.4916 171.441 41.5105 171.366C41.4728 171.422 41.4539 171.479 41.4162 171.535C41.3596 171.668 41.303 171.8 41.4162 171.554C41.3973 171.611 41.3596 171.649 41.3407 171.705C41.1898 172.007 41.02 172.309 40.8314 172.611C40.1334 173.705 39.3034 174.723 38.5677 175.78C36.7191 178.458 36.04 181.514 36.1532 184.759C36.2098 186.306 36.3796 187.834 36.4362 189.362C36.455 190.06 36.4739 190.776 36.4173 191.474C36.3984 191.644 36.323 192.172 36.3796 191.965C36.3041 192.342 36.2286 192.738 36.1155 193.116C36.04 193.342 35.625 194.21 36.0023 193.493C35.8891 193.7 35.7948 193.908 35.7005 194.096C35.5684 194.323 35.4364 194.549 35.2855 194.757C35.3043 194.719 35.078 195.059 35.0402 195.096C34.7007 195.492 34.3234 195.889 33.9273 196.247C33.7198 196.436 33.5311 196.605 33.3236 196.775C33.2293 196.851 33.135 196.926 33.0595 197.001C33.0407 197.02 33.0218 197.02 33.0218 197.039C29.1359 199.831 24.2691 202.283 22.2129 206.867C20.6661 210.3 20.685 214.111 20.4963 217.789C20.3077 221.392 20.1379 225.014 20.0059 228.617C19.7418 235.898 19.5909 243.199 19.572 250.48C19.5531 254.008 18.9684 258.346 21.647 261.119C22.8731 262.383 24.4954 263.043 26.0988 263.666C27.5702 264.232 29.0604 264.76 30.5695 265.25C42.7178 269.231 55.6394 271.004 68.4101 270.608C81.2374 270.193 94.0648 267.627 105.987 262.836C107.609 262.176 109.212 261.496 110.797 260.78C111.608 260.402 112.136 259.572 112.306 258.667C113.759 258.384 115.23 257.139 115.06 255.517Z" fill="#E26E6B"/>
<path d="M46.3005 115.152C45.2253 114.944 44.1878 114.661 43.1503 114.284C42.8862 114.19 42.6409 114.095 42.3957 114.001C42.3768 114.001 42.358 113.982 42.3391 113.982C42.3202 113.982 42.3203 113.963 42.2825 113.963C41.8298 113.737 41.3771 113.548 40.9432 113.303C39.9812 112.794 39.0568 112.209 38.1702 111.587C38.0948 111.53 37.8118 111.304 37.7552 111.266C37.6421 111.172 37.5289 111.096 37.4345 111.002C37.0195 110.643 36.6046 110.285 36.2273 109.908C35.4727 109.191 34.7748 108.418 34.1145 107.606C34.0768 107.569 34.0579 107.531 34.0391 107.512C34.0202 107.474 34.0014 107.437 33.9636 107.399C33.8127 107.173 33.643 106.965 33.492 106.739C33.2091 106.324 32.945 105.909 32.6998 105.475C32.4545 105.041 32.2093 104.607 31.9829 104.173C31.8509 103.928 31.7377 103.683 31.6245 103.437C31.5868 103.381 31.417 102.928 31.417 102.947C31.0775 102.004 30.7568 101.08 30.5304 100.099C30.1343 98.4763 28.1913 97.3445 26.5879 97.8538C25.3618 98.25 24.5318 99.212 24.3054 100.382C23.664 101.155 23.3999 102.192 23.6452 103.268C24.3054 106.135 24.9845 109.002 25.6447 111.851C26.2861 114.586 26.8897 117.472 29.2288 119.321C31.3982 121.037 34.058 121.679 36.7932 121.66C38.0948 121.641 39.3775 121.471 40.6603 121.339C41.3771 121.264 42.0939 121.207 42.8296 121.207C43.188 121.207 43.5464 121.207 43.9048 121.245C44.0557 121.264 44.1123 121.264 44.0557 121.245C44.1312 121.264 44.2066 121.264 44.2821 121.283C44.3953 121.301 44.5273 121.339 44.6405 121.358C46.2816 121.679 48.1869 120.886 48.583 119.113C48.9226 117.472 48.0548 115.548 46.3005 115.152Z" fill="#A51B18"/>
<path d="M31.4926 133.997C29.9646 133.638 27.833 134.468 27.5501 136.242C27.2294 138.241 26.9087 140.241 26.6069 142.24C26.3428 143.881 27.0219 145.768 28.8517 146.183C30.3796 146.541 32.5112 145.711 32.7942 143.938C33.1149 141.938 33.4356 139.939 33.7374 137.939C34.0015 136.298 33.3035 134.412 31.4926 133.997Z" fill="#A51B18"/>
<path d="M74.8991 58.8059C72.975 55.882 70.07 53.7882 66.6557 52.977C66.0709 52.845 65.6559 53.1657 65.4673 53.5807C64.7504 53.8259 64.0336 54.0711 63.3356 54.3163C63.3168 54.3163 63.2791 54.2975 63.2602 54.2975C63.1282 47.2802 63.1848 40.2629 63.4488 33.2456C63.5054 31.9063 61.4304 31.9063 61.3738 33.2456C61.1475 39.4329 61.072 45.6202 61.1474 51.8075C57.5633 50.9963 53.7529 55.2595 51.7156 57.6175C51.1874 58.24 51.4138 59.07 52.1683 59.353C55.9411 60.7111 60.8456 60.4093 63.2413 56.9573C66.3538 59.7868 70.2963 62.1825 74.5407 60.2207C75.0123 59.9943 75.1821 59.2398 74.8991 58.8059ZM54.3188 57.825C55.2054 56.9007 56.1486 56.0329 57.1483 55.2218C58.2802 54.3352 59.7893 53.4486 61.1663 54.0523C61.1852 54.637 61.1852 55.2218 61.204 55.8066C61.204 55.9009 61.2229 55.9952 61.2606 56.0895C59.6006 58.0514 56.8465 58.3532 54.3188 57.825ZM65.1277 55.9009C65.637 55.7311 66.1275 55.5613 66.6368 55.3727C66.75 55.335 66.8632 55.2784 66.9386 55.2029C69.0514 55.8632 70.9188 57.1082 72.3336 58.7871C69.6927 59.3718 67.1461 57.7118 65.1277 55.9009Z" fill="#010202"/>
<path d="M51.7722 38.9991C51.6024 38.8293 51.3949 38.7161 51.1874 38.6407C51.1497 38.5652 51.0931 38.4709 51.0176 38.4143C50.6403 38.0371 49.9235 37.9993 49.5462 38.4143C48.9803 39.0557 48.7728 39.9234 49.0746 40.7346C49.2444 41.1684 49.5274 41.5834 49.9235 41.8287C50.4328 42.1305 51.1308 41.9418 51.5647 41.5834C52.357 40.9421 52.5456 39.7159 51.7722 38.9991Z" fill="#010202"/>
<path d="M76.8986 39.0555C76.8231 38.98 76.7477 38.9423 76.6722 38.8857C76.6156 38.8291 76.559 38.7537 76.4836 38.7159C76.144 38.3953 75.6913 38.3387 75.2386 38.565C74.4086 38.9612 74.1633 40.0365 74.5028 40.8288C74.7481 41.4135 75.3706 41.8663 76.0308 41.6399C76.5968 41.4513 77.0306 41.074 77.2381 40.5269C77.4079 40.0176 77.2947 39.3951 76.8986 39.0555Z" fill="#010202"/>
<path d="M63.5055 63.4464C63.3735 65.2573 61.0155 65.0687 60.7137 63.4464C60.4685 62.1448 58.4689 62.6918 58.7142 63.9934C59.0348 65.6912 60.6571 66.9928 62.3926 66.8607C64.2035 66.7098 65.4674 65.1818 65.5994 63.4464C65.6749 62.1071 63.5998 62.1071 63.5055 63.4464Z" fill="#010202"/>
<path d="M134.244 232.352C133.999 229.805 133.414 227.297 132.452 224.939C131.396 222.354 129.962 219.977 128.17 217.827C128.623 217.28 128.925 216.582 129.132 215.922C129.679 214.243 129.547 212.451 128.906 210.847C129 210.678 129.057 210.508 129.038 210.319C126.831 193.21 124.643 176.119 122.417 159.01C120.417 143.561 118.135 127.809 110.91 113.812C107.363 106.927 102.629 100.589 96.63 95.6467C96.5922 95.5335 96.5356 95.4203 96.479 95.326C95.8565 94.2697 94.3852 94.0999 93.3099 93.7981L89.0656 92.6285C88.8958 92.5908 88.7449 92.5719 88.6129 92.5908C87.8395 91.9683 86.7076 91.591 85.7644 91.2326C83.4631 90.346 81.1051 89.5726 78.7283 88.8935C77.1626 87.5164 75.446 86.2714 73.5974 85.498C73.4842 85.4603 73.3899 85.4226 73.2767 85.3848C73.2955 85.2905 73.3144 85.1773 73.2956 85.0453C72.956 81.2537 72.6164 77.4432 72.2769 73.6516C76.0308 72.3878 79.4263 70.1241 81.8785 66.9739C85.1608 62.7484 86.387 57.5043 86.4624 52.2413C87.3302 52.0338 88.2168 51.3547 88.8581 50.7888C90.2352 49.6004 91.2915 48.0724 91.9895 46.3936C92.6686 44.7336 93.0836 42.7529 92.7629 40.9608C92.4611 39.2631 91.0086 38.0558 89.3674 38.4708C90.2352 33.6417 89.707 28.4919 89.0656 23.6251C92.1215 22.7762 93.4986 18.8148 91.8574 16.0041C90.0465 12.8916 86.5567 12.2314 83.3688 13.0048C84.0856 10.7223 84.1988 8.13795 81.9163 6.81749C80.4072 5.94976 78.5774 6.27044 77.0871 6.98726C76.1251 7.43999 75.2951 8.11909 74.4274 8.72273C74.4274 8.04363 74.2953 7.34568 74.0124 6.68545C73.2201 4.8368 71.5412 3.74271 69.5605 3.61066C65.618 3.3277 63.0714 6.28931 61.2982 9.43955C60.9398 8.25113 60.4682 7.08158 59.9023 5.96862C59.0157 4.25203 57.865 2.12043 55.5825 2.64861C53.8093 3.06361 52.2437 4.59158 51.1873 6.00635C50.6403 6.74204 50.2064 7.55317 49.8857 8.40204C48.7727 6.57226 47.4523 4.87453 45.9432 3.34657C44.5284 1.93179 40.6047 -2.10504 39.19 1.38474C38.1713 3.87475 38.4543 7.13818 39.1711 9.66591C39.8502 12.0427 41.1141 14.2309 42.8307 16.0041C40.7745 17.2491 38.9825 18.9091 37.5677 20.8898C36.0963 22.9648 34.9645 26.3037 37.4168 28.1523C38.8881 29.2653 40.9254 29.2087 42.7929 28.8126C42.4911 32.2269 42.2836 35.6601 42.227 39.1122C41.68 38.7349 41.1329 38.3576 40.567 37.9803C39.6427 37.3767 38.6052 36.6976 37.4922 37.2824C35.5304 38.3199 35.6436 41.1306 35.9643 42.9792C36.6056 46.6199 38.3411 52.0904 42.8307 51.9961C43.6418 58.2211 45.7922 64.1066 50.4516 68.5396C51.225 69.2752 52.055 69.9732 52.9416 70.5957C52.8473 70.7466 52.7719 70.9352 52.7907 71.1805C52.9228 75.4248 52.885 79.6691 52.6586 83.9135C52.0927 83.8569 51.5457 83.9135 51.0175 84.1964C50.2441 84.6114 49.6027 85.3094 48.9802 85.913C48.8104 86.0828 48.6407 86.2526 48.4709 86.4224C48.32 86.4224 48.1502 86.4601 47.9993 86.5355C43.8116 88.5351 39.605 90.5158 35.4172 92.5153C34.4174 92.9869 33.3988 93.4774 32.399 93.949C31.4747 94.3828 30.4183 94.7601 29.6072 95.3826C29.5883 95.4015 29.5506 95.4203 29.5318 95.4392C28.1924 95.8731 26.872 96.4201 25.6081 97.0615C24.514 97.6274 23.0049 98.2876 22.3069 99.3629C22.2692 99.4194 22.2315 99.4949 22.1938 99.5515C21.9674 99.4949 21.7222 99.5326 21.4581 99.7024C5.02779 111.039 2.63209 132.77 0.896633 151.012C-0.122007 161.632 -0.499281 172.403 0.990952 183.005C2.19823 191.625 5.72575 201.321 14.6483 204.528C18.7417 205.999 23.552 205.603 27.3813 203.491L29.7581 219.072C29.8524 219.676 30.5315 219.864 31.0408 219.789C39.8691 218.449 48.6784 217.129 57.5066 215.79C61.8264 215.129 66.1651 214.394 70.5414 214.45C74.8424 214.507 79.0678 215.488 83.331 215.997C88.3111 216.582 93.3099 216.356 98.3088 216.11C98.8747 216.073 99.3275 215.658 99.3463 215.073C99.4972 209.942 99.6293 204.792 99.7802 199.661C99.8556 197.039 99.9311 194.398 100.007 191.776C100.044 190.531 100.082 189.267 100.101 188.022C100.139 186.966 100.384 185.589 99.8934 184.589C99.0634 182.967 96.7243 183.155 95.2152 182.684C93.442 182.118 91.8009 181.137 90.4238 179.911C87.4245 177.289 85.4438 173.724 84.3874 169.913C82.9538 164.744 82.9915 159.331 83.0292 154.03C83.0292 153.464 82.5576 153.011 81.9917 152.992C75.163 152.823 68.3344 152.936 61.5246 153.332C60.8643 152.974 60.1853 152.691 59.4684 152.502C60.1098 151.974 60.7134 151.37 61.2416 150.729C61.5812 150.333 61.6943 149.654 61.2416 149.257C59.8457 148.088 58.2234 147.409 56.488 147.22C56.8464 146.975 57.186 146.711 57.4123 146.409C58.016 145.598 58.3366 144.391 57.7707 143.466C57.5632 143.127 57.2991 142.919 57.0162 142.768C57.4123 137.09 57.733 131.431 57.9405 125.753C58.8271 125.64 59.6382 125.055 59.9023 124.131C60.2419 122.924 59.5439 121.603 58.5253 120.981C57.2048 120.17 55.6014 120.434 54.1489 120.528C52.3946 120.641 50.6214 120.641 48.8482 120.603C45.3018 120.528 41.7743 120.264 38.2468 120.264C36.4925 120.264 34.7193 120.339 32.9649 120.547C32.2481 120.622 31.5313 120.717 30.8333 120.905C30.7013 120.811 30.5315 120.754 30.324 120.735C30.5881 120.754 30.2674 120.434 30.1731 120.245C30.0411 120 29.909 119.736 29.777 119.49C29.494 118.943 29.2111 118.377 28.947 117.812C28.4188 116.717 27.9472 115.605 27.4945 114.473C26.6079 112.209 25.8533 109.87 25.2685 107.512C24.9856 106.361 24.7215 105.192 24.4951 104.022C24.3819 103.4 24.2688 102.796 24.1745 102.174C24.1179 101.759 23.8915 101.042 24.0047 100.627C24.1744 100.099 24.929 99.7967 25.3629 99.5326C25.891 99.212 26.4381 98.929 26.9852 98.646C27.5699 98.3631 28.1547 98.099 28.7583 97.8726C28.9092 98.646 29.2677 99.4572 29.5695 100.193C32.2481 106.852 36.1529 113.567 42.6986 117.019C46.2639 118.887 50.2252 119.679 54.1866 120.132C56.205 120.358 58.2423 120.509 60.2796 120.641C61.2982 120.698 62.298 120.735 63.3166 120.698C63.7505 121.056 64.4673 121 64.8446 120.566C65.5048 120.471 66.1462 120.339 66.7876 120.151C70.466 119.057 73.786 116.642 76.691 114.19C79.5017 111.813 81.9917 109.04 84.1045 106.022C85.2929 104.324 86.3492 102.532 87.2735 100.683C87.7074 99.8156 88.1036 98.9101 88.4808 98.0047C88.8958 97.0049 89.424 95.9485 89.5561 94.8733C90.3861 95.0997 91.2349 95.3449 92.0649 95.5713C92.6497 95.741 93.2345 95.8919 93.8381 96.0617C94.1777 96.156 94.404 96.1749 94.5361 96.2503C94.5549 96.3824 94.5927 96.5144 94.687 96.6276C94.687 96.6842 94.687 96.7408 94.687 96.8163C94.5738 99.2308 94.1022 101.645 93.6495 104.022C92.7629 108.625 91.65 113.171 91.084 117.83C90.5181 122.471 90.5936 127.243 92.0272 131.733C93.442 136.166 95.8565 140.203 97.4222 144.598C100.761 153.841 101.968 163.782 103.364 173.46C104.855 183.721 106.118 194.021 107.269 204.321C108.552 215.846 109.703 227.372 110.834 238.898C110.853 239.067 110.891 239.2 110.966 239.332C110.966 239.388 110.966 239.445 110.966 239.501C111.4 245.387 111.891 251.272 112.268 257.158C112.306 257.648 112.362 258.12 112.098 258.573C111.815 259.044 111.249 259.365 110.834 259.686C109.835 260.383 108.797 261.025 107.722 261.61C105.666 262.704 103.477 263.553 101.233 264.213C96.6488 265.571 91.8952 266.194 87.1604 266.684C81.8597 267.25 76.5779 267.835 71.2771 268.401C65.6558 268.985 59.9966 269.4 54.3375 269.023C48.6784 268.646 43.0947 267.552 37.6054 266.156C34.9268 265.477 32.2481 264.722 29.5883 263.93C28.3245 263.553 27.0417 263.175 25.7779 262.779C24.6083 262.421 23.1935 262.194 22.1372 261.572C21.0619 260.949 21.2694 259.667 21.2883 258.573C21.3072 257.063 21.326 255.573 21.3449 254.064C21.3826 251.178 21.4203 248.311 21.4769 245.425C21.7033 232.409 22.0806 219.393 22.6276 206.377C22.6842 205.037 20.6092 205.037 20.5526 206.377C20.0433 218.638 19.6849 230.9 19.4397 243.161C19.3831 246.16 19.3265 249.178 19.2887 252.178C19.2699 253.555 19.251 254.932 19.2321 256.309C19.2133 257.761 19.0435 259.327 19.2887 260.78C19.7415 263.402 22.3824 263.892 24.5329 264.552C26.1363 265.043 27.7397 265.533 29.3431 266.005C30.5504 281.417 31.984 296.809 33.644 312.164C35.3229 327.727 37.2281 343.271 39.3597 358.777C39.7936 362.002 40.152 365.36 41.7177 368.265C42.095 368.963 42.5288 369.586 43.0382 370.151C36.7377 375.528 30.9277 381.47 25.7024 387.902C25.212 388.506 25.3629 389.374 26.1551 389.638C29.6449 390.788 33.3611 390.373 36.8509 389.487C40.0577 388.676 43.1891 387.506 46.1695 386.11C52.1682 383.299 57.6575 379.395 62.2791 374.641C62.7696 374.132 62.5998 373.509 62.1848 373.151C62.8073 372.396 63.128 371.453 63.2223 370.434C63.3732 368.699 63.0148 366.888 62.8262 365.153C62.6187 363.172 62.43 361.191 62.2414 359.192C61.883 355.343 61.5434 351.495 61.2416 347.647C60.6191 339.743 60.1475 331.839 59.7891 323.935C59.0912 308.241 58.9403 292.508 59.3175 276.814C59.3553 274.946 59.4119 273.079 59.4684 271.211C62.298 271.192 65.1276 271.041 67.9571 270.796C70.2774 270.589 72.5976 270.344 74.899 270.098C76.8042 282.624 78.5963 295.149 80.2374 307.713C81.8786 320.181 83.4065 332.669 84.8024 345.176C85.5947 352.288 86.3492 359.418 87.0661 366.548C87.1227 367.114 87.4811 367.548 88.0658 367.586C92.9516 374.603 99.1766 380.64 106.364 385.261C108.175 386.431 110.042 387.487 111.966 388.468C113.57 389.279 115.456 390.298 117.305 389.807C119.38 389.26 119.663 387.11 119.002 385.337C118.191 383.148 117.173 381.036 116.135 378.942C113.815 374.264 111.08 369.793 108.005 365.568C108.42 365.209 108.759 364.794 109.042 364.266C109.835 362.776 109.797 361.059 109.759 359.418C109.703 357.343 109.646 355.268 109.608 353.193C109.514 349.118 109.401 345.025 109.306 340.95C108.891 324.501 108.476 308.033 108.061 291.584C107.835 282.435 107.59 273.286 107.363 264.118C107.458 264.062 107.571 264.024 107.665 263.968C108.948 263.345 110.174 262.647 111.344 261.855C112.325 261.195 113.438 260.497 113.985 259.421C114.664 258.101 114.249 256.347 114.135 254.951C114.022 253.328 113.89 251.687 113.777 250.065C113.513 246.556 113.268 243.048 113.004 239.539C112.985 239.369 112.947 239.218 112.872 239.086C112.872 239.03 112.872 238.992 112.872 238.935C112.4 234.257 111.947 229.579 111.476 224.901C111.57 224.863 111.645 224.825 111.74 224.769C112.117 224.524 112.494 224.259 112.872 224.014C113.607 224.769 113.853 225.995 114.135 226.938C114.607 228.466 115.041 230.013 115.418 231.56C116.192 234.691 116.739 237.879 117.078 241.086C117.248 242.67 117.361 244.274 117.418 245.877C117.474 247.103 117.455 248.613 118.983 248.895C121.549 249.367 121.983 246.028 122.115 243.746C122.153 244.198 122.19 244.651 122.209 245.085C122.247 245.651 122.662 246.123 123.247 246.123C124.624 246.141 125.435 245.236 125.925 244.104C125.925 244.123 125.925 244.142 125.925 244.161C126.095 245.142 126.85 246.028 127.944 245.764C129 245.5 129.453 244.349 129.698 243.406C129.906 242.576 130.094 241.727 130.245 240.897C130.547 241.256 130.943 241.52 131.49 241.576C132.603 241.69 133.376 240.803 133.735 239.841C134.15 238.766 134.188 237.483 134.263 236.351C134.376 234.955 134.357 233.654 134.244 232.352ZM38.2468 43.6017C38.0959 42.9038 37.9261 42.1869 37.8884 41.4701C37.8506 40.9797 37.7941 39.4706 38.3977 39.2065C38.8504 38.999 40.0766 40.0931 40.4161 40.3383C41.0386 40.7533 41.6422 41.1872 42.2459 41.6399C42.2647 44.394 42.3968 47.1481 42.642 49.8833C39.8125 49.5815 38.7938 46.0163 38.2468 43.6017ZM63.0714 157.897C62.5998 157.463 62.0905 157.142 61.5435 156.878C62.015 156.426 62.43 155.916 62.7696 155.331C68.8248 155.011 74.8801 154.916 80.9354 155.03C80.8976 163.443 81.2561 172.384 86.8397 179.175C89.1977 182.042 92.4422 184.325 96.1206 185.042C96.4979 185.117 96.894 185.155 97.2713 185.23C97.7618 185.325 97.9882 185.344 98.1013 185.834C98.2145 186.381 98.0636 187.079 98.0636 187.626C98.0448 188.381 98.0259 189.135 98.007 189.89C97.9316 192.455 97.8561 195.021 97.7995 197.586C97.6486 203.076 97.4977 208.584 97.3468 214.073C93.2345 214.281 89.1222 214.431 85.0288 214.092C80.6901 213.715 76.4269 212.658 72.0694 212.432C67.7119 212.187 63.3544 212.828 59.0535 213.488C54.6205 214.149 50.1686 214.828 45.7357 215.507C41.0575 216.205 36.3793 216.921 31.7011 217.619C30.9277 212.489 30.1354 207.358 29.362 202.227C32.9272 199.454 35.1343 195.266 35.4549 190.758C35.4549 190.663 35.4549 190.55 35.4172 190.456C36.9829 189.494 37.2093 187.419 36.4547 185.834C35.9643 184.778 35.0777 184.099 34.0779 183.589C36.2661 181.08 38.2279 178.364 39.8691 175.478C40.7368 173.95 41.5291 172.384 42.227 170.781C42.3213 170.573 42.4157 170.328 42.4911 170.083C45.6036 169.875 48.7161 169.725 51.8286 169.442C52.9982 169.328 54.0545 168.989 54.545 167.819C55.1109 166.442 55.375 164.858 55.7523 163.405C55.7523 163.367 55.7711 163.349 55.7711 163.311C58.2612 162.254 60.638 160.991 62.9016 159.519C63.3921 159.18 63.5808 158.369 63.0714 157.897ZM33.7195 189.55C29.909 188.664 26.1551 187.532 22.4956 186.136C20.5149 185.381 18.5531 184.57 16.6478 183.608C15.0633 182.816 13.3467 181.797 12.5733 180.118C11.9319 178.722 11.9696 176.798 13.441 175.95C14.8558 175.138 16.7044 175.572 18.0249 176.346C18.3644 176.534 18.6851 176.761 18.9869 176.987C19.119 177.176 19.3076 177.345 19.534 177.421C20.4772 178.213 21.326 179.1 22.2503 179.911C23.684 181.194 25.2686 182.307 27.004 183.155C28.8338 184.061 30.8145 184.457 32.682 185.23C33.4554 185.551 34.2854 186.023 34.625 186.853C34.889 187.494 34.9079 188.362 34.2288 188.739C33.8704 188.947 33.7195 189.248 33.7195 189.55ZM43.3023 167.951C43.5286 167.517 43.8116 167.121 44.17 166.838C44.7736 166.348 45.6413 166.272 46.377 166.122C47.1316 165.971 47.905 165.82 48.6595 165.65C50.2441 165.273 51.8287 164.801 53.3566 164.254C53.1491 165.046 52.9605 165.839 52.7152 166.631C52.5643 167.14 52.47 167.291 51.923 167.367C51.3005 167.461 50.6402 167.461 50.0177 167.499C47.7729 167.649 45.5282 167.8 43.3023 167.951ZM58.9403 150.144C58.0159 151.068 56.9785 151.823 55.8089 152.426C55.7335 152.464 55.6768 152.521 55.6014 152.577C52.2814 152.464 48.9802 152.634 45.6979 153.087C44.3775 153.275 44.9434 155.275 46.245 155.086C49.5084 154.634 52.8096 154.52 56.0919 154.671C56.4691 154.69 56.7332 154.539 56.903 154.313C58.1291 154.256 59.2987 154.501 60.3739 155.067L60.3927 155.086C59.9023 155.633 59.2987 156.048 58.6196 156.312C54.6393 156.859 50.7157 157.671 46.8675 158.802C45.5848 159.18 46.1318 161.179 47.4145 160.802C50.8289 159.802 54.3186 159.01 57.8461 158.501C58.0159 158.576 58.2234 158.595 58.4687 158.538C59.1289 158.387 59.7891 158.406 60.3927 158.614C57.8273 160.161 55.1109 161.462 52.2625 162.424C50.6968 162.971 49.0934 163.424 47.4711 163.782C45.9432 164.122 44.2077 164.179 42.9438 165.178C41.7177 166.14 41.265 167.668 40.6991 169.064C40.0766 170.611 39.3409 172.101 38.5486 173.573C36.8697 176.685 34.8324 179.59 32.5122 182.25C32.3236 182.458 32.2481 182.684 32.2481 182.891C32.0217 182.816 31.7954 182.759 31.5879 182.684C29.362 182.024 27.287 181.099 25.3817 179.76C23.8915 178.704 22.6465 177.364 21.2883 176.176C24.1367 171.139 26.4758 165.801 28.1924 160.293C29.1167 157.369 29.8524 154.388 30.4372 151.389C30.7579 149.672 30.9276 147.39 32.0595 145.937C32.1349 146.956 32.2293 147.956 32.3047 148.974C31.1729 149.484 31.7011 151.389 32.9461 150.936C37.8884 149.163 42.8873 147.635 47.9805 146.371C50.2441 145.805 52.5455 145.164 54.8468 144.768C54.9034 145.164 55.1675 145.39 55.5071 145.485C55.2996 145.654 55.0732 145.805 54.8657 145.956C54.2621 146.409 53.7527 146.862 53.4132 147.503C50.2818 147.861 47.1693 148.201 44.0379 148.559C42.7175 148.71 42.7175 150.785 44.0379 150.634C47.4145 150.257 50.7911 149.88 54.1677 149.503C54.3564 149.484 54.5073 149.427 54.6393 149.333C56.0918 149.088 57.6387 149.371 58.9403 150.144ZM33.4931 135.676C33.3988 135.676 33.3233 135.694 33.2479 135.713C33.1158 134.11 32.9838 132.506 32.8518 130.922C32.7763 129.922 32.682 128.922 32.6065 127.923C32.5688 127.545 32.3802 126.866 32.4933 126.508C32.5122 126.47 32.5122 126.432 32.5311 126.395C32.6442 126.338 32.7574 126.281 32.8329 126.206C32.9084 126.206 33.0027 126.206 33.1347 126.206C37.0961 126.017 41.0763 126.055 45.0377 125.998C48.6407 125.942 52.2625 125.885 55.8655 125.848C55.7523 128.941 55.6014 132.054 55.4128 135.147C55.3939 135.147 55.3939 135.147 55.375 135.147C48.0748 134.921 40.7745 135.11 33.4931 135.676ZM55.2807 137.185C55.1675 139.014 55.0543 140.844 54.9223 142.655C54.8091 142.674 54.6959 142.693 54.6016 142.712C53.1302 143.013 51.6589 143.334 50.1875 143.674C44.8114 144.919 39.5106 146.447 34.2854 148.239L33.4177 137.751C33.4365 137.751 33.4743 137.751 33.4931 137.751C40.7368 137.185 48.0182 136.996 55.2807 137.185ZM31.2672 122.942C32.4933 122.584 33.8327 122.527 35.1154 122.452C37.9072 122.282 40.7179 122.377 43.5098 122.49C46.3204 122.603 49.1123 122.754 51.923 122.697C53.2246 122.678 54.5261 122.527 55.8277 122.49C56.4314 122.471 57.1671 122.452 57.6198 122.924C57.9216 123.225 58.0537 123.867 57.4123 123.678C57.1294 123.603 56.8841 123.622 56.6766 123.735C49.9989 123.829 43.3211 123.923 36.6434 124.037C35.1909 124.055 33.5308 123.867 32.1161 124.206C31.8331 124.263 31.6068 124.376 31.4181 124.489C30.8333 124.565 30.2486 124.565 29.6449 124.508C29.6072 123.735 30.607 123.131 31.2672 122.942ZM30.5315 128.073C30.7767 131.148 31.0408 134.223 31.2861 137.317C31.4558 139.335 31.6256 141.335 31.7765 143.353C29.7392 144.673 29.0602 147.05 28.6263 149.314C28.117 152.011 27.5511 154.709 26.8154 157.35C28.7017 147.692 29.9467 137.901 30.5315 128.073ZM25.9288 116.152C26.4758 117.491 27.0795 118.811 27.7397 120.113C28.0604 120.735 28.3433 121.452 28.7772 121.98C27.8529 122.829 27.3436 124.169 27.7397 125.414C27.8906 125.885 28.1924 126.187 28.5886 126.395C28.5886 126.432 28.5697 126.489 28.5697 126.527C27.7774 141.146 25.5515 155.671 21.9485 169.857C21.8919 170.045 21.9108 170.215 21.9485 170.366C21.2128 171.894 20.4206 173.403 19.5906 174.893C18.0249 173.856 16.214 173.271 14.3276 173.535C12.4224 173.799 10.7623 175.063 10.2719 176.968C10.0267 177.911 10.0078 178.76 10.1776 179.571C9.23438 179.156 8.4044 178.572 7.64985 177.798C6.72553 176.836 5.25415 178.307 6.17847 179.27C7.00847 180.137 7.97052 180.835 9.02689 181.345C8.85711 181.514 8.68734 181.684 8.53644 181.892C7.7253 182.929 9.17781 184.419 10.0078 183.363C10.4228 182.835 10.8944 182.458 11.4792 182.231C13.026 184.118 15.5537 185.438 17.6665 186.381C22.6842 188.607 27.9095 190.361 33.2668 191.588C32.7763 195.228 30.7956 198.661 27.8151 200.812C24.4951 203.226 20.081 203.943 16.1385 202.811C7.5178 200.321 4.25436 190.739 3.10368 182.778C1.67004 172.95 1.99074 162.915 2.8396 153.049C3.66961 143.504 4.61278 133.733 7.32915 124.508C9.91348 115.774 14.5162 107.286 22.024 101.872C22.0806 102.287 22.1749 102.702 22.2315 103.098C22.4767 104.607 22.7785 106.116 23.137 107.606C23.8349 110.492 24.7781 113.36 25.9288 116.152ZM72.5033 87.2712C73.7672 87.6674 74.9933 88.6294 76.0496 89.4217C76.5024 89.7424 76.9174 90.1008 77.3513 90.4592C77.4078 90.5346 77.4833 90.6101 77.5776 90.6667C73.5596 90.4781 69.5983 89.8556 65.7124 88.8369C66.3726 88.6294 67.0517 88.403 67.7119 88.1955C69.1644 87.7239 70.9753 86.8185 72.5033 87.2712ZM54.9034 71.803C58.431 73.8591 62.5055 74.9532 66.6178 74.7269C67.8439 74.6514 69.0701 74.4816 70.2585 74.1987L71.2206 85.0264C71.2206 85.0642 71.2205 85.083 71.2394 85.1208C70.5792 85.1585 69.9189 85.3094 69.2587 85.5169C67.5987 86.0262 65.9387 86.5733 64.2976 87.1014C63.8448 87.2524 63.3921 87.3844 62.9582 87.5353H62.9394C60.9021 86.7808 58.8648 86.0262 56.8464 85.2717C56.0919 84.9887 55.3373 84.7057 54.5828 84.4228C54.6771 84.2719 54.7525 84.0833 54.7714 83.8758C54.9789 79.8389 55.0355 75.821 54.9034 71.803ZM89.9522 40.4326C90.9143 39.9988 90.801 42.602 90.7633 43.017C90.669 44.0356 90.3672 45.0542 89.9333 45.9786C89.4995 46.9217 88.9147 47.7895 88.2167 48.544C87.896 48.8836 87.5565 49.2043 87.1981 49.5061C86.9717 49.6758 86.7454 49.8456 86.5002 49.9965C86.4813 50.0154 86.4624 50.0154 86.4436 50.0343C86.387 48.8647 86.2926 47.714 86.1417 46.5633C86.1983 46.5067 86.2549 46.4501 86.3115 46.3747C87.5754 44.4883 88.4242 42.4888 88.9713 40.3949C89.2354 40.5647 89.5749 40.6024 89.9522 40.4326ZM39.0956 26.6998C36.7754 25.7567 38.8127 22.6064 39.7559 21.3991C41.2084 19.5694 43.0382 18.1357 45.1132 17.0982C45.8677 16.7209 45.7168 15.8532 45.2075 15.4382C45.1509 15.3628 45.0943 15.2873 45.0189 15.2307C41.7366 12.2691 40.02 7.6475 40.8311 3.27112C40.8877 3.00702 40.9066 2.70521 41.0197 2.44111C41.1518 2.10157 41.0575 2.0827 41.4536 2.23361C41.9252 2.40338 42.4157 2.95043 42.7929 3.27112C43.6795 4.02566 44.5284 4.8368 45.3207 5.70453C46.9618 7.51545 48.32 9.59046 49.3764 11.7975C49.8668 12.8161 51.225 12.1936 51.3005 11.2693C51.5457 8.70386 53.2623 5.6668 55.8089 4.74248C56.6955 4.4218 57.035 5.19521 57.4312 5.85544C57.8273 6.51567 58.1857 7.19477 58.5064 7.91159C59.2043 9.43955 59.6382 11.0807 59.9023 12.7407C60.0344 13.5896 61.4303 13.7782 61.8075 12.9859C63.1469 10.0809 64.7314 6.5534 68.1646 5.77999C69.4851 5.47817 70.9753 5.74226 71.7676 6.91181C72.4467 7.87386 72.6165 9.26978 71.7299 10.1564C71.013 10.8732 71.7298 12.1936 72.7485 11.8918C74.1067 11.4768 75.2196 10.6846 76.3515 9.87341C77.4078 9.11887 78.6906 8.23227 80.0865 8.38318C82.9915 8.70387 81.4069 12.7218 80.6335 14.2309C80.1619 15.1741 81.1051 16.1173 82.0483 15.6457C84.5383 14.4384 87.9149 14.1932 89.7636 16.6266C90.4804 17.5509 90.8011 18.7959 90.3295 19.9089C89.8579 21.0219 88.8393 21.7953 87.632 21.7387C86.5756 21.701 86.3492 23.0026 86.9717 23.5685C87.8206 29.9444 88.5752 36.8674 85.8965 42.8095C85.8588 35.5658 85.1986 28.3598 83.9158 21.2294C83.9158 21.1916 83.8969 21.1728 83.8969 21.135C83.8026 20.2107 82.4822 19.6448 82.0106 20.6635C81.2938 22.1914 81.0863 23.8326 80.5204 25.4171C80.1242 26.5301 79.049 28.1146 77.6342 27.9071C76.2194 27.6996 75.9365 25.2096 75.6912 24.1344C75.2762 22.2103 75.1253 20.2673 75.1819 18.2866C75.2197 17.0416 73.5596 16.985 73.1446 18.0037C72.4467 19.7203 71.6733 21.3991 70.7867 23.0214C70.051 24.3985 69.221 26.3414 67.9005 27.2658C66.5235 28.2278 65.1276 26.6998 64.6749 25.4737C64.0335 23.7571 64.2032 21.7953 63.7882 20.0221C63.5807 19.1544 62.3169 19.0035 61.883 19.7769C60.091 23.0026 57.6198 25.8133 54.5828 27.9071C53.5075 28.6617 51.1684 30.0953 51.093 27.7939C51.0553 26.9639 51.4325 26.2094 51.7532 25.4548C52.1305 24.5682 52.4323 23.7382 52.5455 22.7762C52.6587 21.8707 51.3382 21.4369 50.7723 22.0405C49.2254 23.6817 47.3579 25.0021 45.2452 25.8698C43.5663 26.5489 40.9443 27.4544 39.0956 26.6998ZM52.6775 67.6907C47.9427 63.5595 45.6791 57.8627 44.9057 51.732C43.9436 43.979 44.2077 35.9431 44.9434 28.1712C45 28.1523 45.0566 28.1335 45.1132 28.1146C46.66 27.5676 48.1125 26.8319 49.4518 25.8887C49.1123 26.813 48.8859 27.7562 49.1877 28.8503C49.8102 31.1517 52.1304 31.5667 54.0734 30.6424C56.1107 29.6614 57.9971 27.9826 59.5628 26.3792C60.506 25.3982 61.3737 24.3419 62.166 23.2289C62.298 24.5871 62.4866 25.9264 63.1846 27.1337C64.1466 28.756 66.0142 30.0764 67.976 29.4917C69.9567 28.888 71.0319 26.7564 71.9939 25.0964C72.4655 24.2664 72.9183 23.4176 73.3522 22.5687C73.4842 23.6251 73.6917 24.6814 73.9558 25.7001C74.4085 27.4544 75.1253 29.4539 77.106 29.8878C78.8981 30.284 80.6335 29.1333 81.6522 27.7373C82.0861 27.1337 82.369 26.4735 82.5765 25.7755C83.5574 32.5665 83.9724 39.4328 83.8026 46.2992C83.8026 46.6388 83.9158 46.884 84.1233 47.0538C84.2931 48.3365 84.3874 49.6381 84.4251 50.9397C84.4251 50.9774 84.4251 51.034 84.4251 51.0718C84.5195 55.6745 83.7083 60.3338 81.256 64.2764C79.1056 67.7284 75.6913 70.2939 71.8431 71.6332C71.2771 71.0862 70.1453 71.2559 70.0887 72.1614C69.3153 72.35 68.523 72.5009 67.7308 72.5764C62.2603 73.18 56.8087 71.2937 52.6775 67.6907ZM48.2257 89.7612C48.7916 89.0821 49.3952 88.4408 50.0177 87.7994C50.5648 87.2335 51.1495 86.5355 51.8098 86.1017C52.5832 85.6112 53.6018 86.2526 54.3564 86.5355L56.9784 87.5164C57.9028 87.856 58.8271 88.2144 59.7703 88.554C57.9405 89.1387 56.1296 89.7235 54.2998 90.3083C51.6966 91.1383 49.0557 91.9683 46.3393 92.1946C46.9241 91.3646 47.5466 90.5535 48.2257 89.7612ZM63.0148 118.623C60.9021 118.736 58.7516 118.491 56.62 118.321C53.0736 118.019 49.4896 117.547 46.1318 116.302C39.7182 113.945 35.587 108.399 32.7574 102.4C32.3613 101.551 31.9652 100.664 31.6256 99.7967C31.4558 99.3817 31.3049 98.9667 31.1352 98.5706C31.0031 98.2122 30.6824 97.7029 30.739 97.3067C30.739 97.2501 30.7767 97.1747 30.8145 97.1181C30.9277 97.0238 31.022 96.9294 31.0974 96.8163C31.6822 96.3447 32.8895 95.9863 33.3234 95.7599L36.3415 94.3262C39.3597 92.8926 42.3591 91.4778 45.3773 90.0442C44.6982 90.9308 44.0757 91.8362 43.472 92.7794C43.0382 93.4585 43.6229 94.3074 44.3586 94.3451C47.5089 94.4394 50.5459 93.666 53.5264 92.7417C56.073 91.9494 58.6007 91.1383 61.1285 90.3083C62.5055 99.6835 63.128 109.153 63.0148 118.623ZM87.2735 95.4015C86.1983 98.4763 84.6892 101.419 82.8783 104.135C79.2754 109.587 74.1067 114.68 68.1269 117.453C67.1271 117.925 66.1085 118.208 65.0898 118.396C65.203 108.983 64.5617 99.5892 63.2035 90.2894C68.7305 91.9494 74.4651 92.7983 80.2374 92.8171C80.841 92.8171 81.2183 92.3456 81.256 91.8174C82.0672 92.0815 82.8972 92.3644 83.7083 92.6474C84.6138 92.9681 85.5192 93.3076 86.4058 93.6849C86.6699 93.7981 87.1604 93.9301 87.3679 94.1565C87.6697 94.5149 87.4244 95.0053 87.2735 95.4015ZM45.6602 384.016C42.8495 385.356 39.9256 386.45 36.9263 387.28C34.0779 388.053 31.1163 388.544 28.2302 387.996C33.1724 382.054 38.624 376.565 44.5095 371.547C45.6225 372.396 46.9052 373.056 48.2634 373.509C51.093 374.452 54.2621 374.735 57.2425 374.792C57.8839 374.811 58.5441 374.792 59.2044 374.679C55.2241 378.47 50.6402 381.621 45.6602 384.016ZM60.3927 361.776C60.5814 363.643 60.77 365.492 60.9587 367.36C61.0907 368.68 61.5246 370.529 60.6569 371.698C59.8269 372.83 58.0914 372.755 56.8464 372.698C55.4316 372.641 53.998 372.528 52.5832 372.34C49.7914 371.962 46.8675 371.189 44.8491 369.095C42.7363 366.907 42.1327 363.757 41.6988 360.87C39.4541 345.987 37.7563 331.009 36.1152 316.05C34.4552 301.016 33.0215 285.963 31.7954 270.891C31.6822 269.457 31.569 268.042 31.4558 266.608C32.0406 266.778 32.6254 266.948 33.1913 267.099C38.7184 268.627 44.3209 269.929 50.0177 270.645C52.47 270.947 54.9223 271.117 57.3557 271.155C56.8841 286.246 56.8841 301.337 57.3934 316.428C57.9028 331.575 58.9025 346.704 60.3927 361.776ZM112.815 376.923C113.834 378.81 114.796 380.734 115.682 382.677C116.116 383.62 116.531 384.563 116.908 385.544C117.173 386.204 117.738 387.431 116.776 387.732C115.399 388.166 113.494 386.846 112.343 386.261C110.627 385.356 108.929 384.375 107.307 383.337C104.062 381.243 101.025 378.866 98.2334 376.207C95.4604 373.566 92.9138 370.698 90.669 367.605C93.9324 367.643 97.1959 367.567 100.459 367.341C102.214 367.228 104.421 367.209 106.25 366.548C108.646 369.85 110.853 373.32 112.815 376.923ZM107.684 358.984C107.722 360.625 108.024 362.889 106.552 364.04C105.213 365.096 103.157 365.039 101.553 365.171C97.3845 365.492 93.2156 365.586 89.0468 365.492C87.8018 353.193 86.4436 340.894 84.9533 328.632C83.4254 315.994 81.7654 303.355 79.9922 290.754C79.0113 283.774 77.9926 276.814 76.9363 269.853C79.6149 269.551 82.2935 269.249 84.9722 268.966C90.0088 268.457 95.0831 267.929 99.9877 266.684C101.799 266.231 103.572 265.665 105.307 264.967C105.703 280.417 106.081 295.866 106.477 311.315C106.873 327.199 107.288 343.082 107.684 358.984ZM109.514 205.999C108.401 196.002 107.213 186.004 105.798 176.044C104.402 166.122 103.232 155.935 100.176 146.352C98.705 141.712 96.3659 137.468 94.6115 132.94C92.8572 128.394 92.4988 123.678 93.0081 118.849C93.574 113.473 94.9888 108.21 95.932 102.89C96.1584 101.551 96.3659 100.212 96.5356 98.8724C96.5545 98.7026 96.5733 98.5329 96.6111 98.3442C106.684 107.342 112.494 120.056 115.796 132.978C117.795 140.825 119.002 148.861 120.059 156.878C121.153 165.216 122.209 173.573 123.284 181.91C124.454 191.003 125.623 200.095 126.812 209.206C121.021 208.735 115.286 207.659 109.703 206.056C109.646 206.018 109.57 205.999 109.514 205.999ZM109.759 208.206C115.343 209.772 121.058 210.81 126.831 211.262C127.529 212.677 127.604 214.356 126.963 215.809C126.529 216.789 126.02 216.789 125.039 216.695C124.133 216.601 123.228 216.507 122.322 216.393C118.512 215.922 114.72 215.205 110.985 214.318C110.778 214.262 110.57 214.281 110.4 214.337C110.193 212.3 109.967 210.244 109.759 208.206ZM132.15 237.011C132.094 237.615 132.056 238.294 131.867 238.86C131.849 238.917 131.811 238.973 131.773 239.049C131.735 238.502 131.83 237.936 131.83 237.407C131.849 236.596 131.792 235.804 131.679 234.993C131.49 233.522 131.113 232.107 130.547 230.73C130.151 229.768 128.359 229.73 128.51 231.013C128.736 233.107 128.793 235.219 128.642 237.332C128.566 238.407 128.415 239.482 128.227 240.539C128.132 241.086 127.944 241.652 127.793 242.199C127.755 241.935 127.736 241.671 127.698 241.407C127.566 240.294 127.416 239.2 127.283 238.087C127.001 235.823 126.718 233.54 126.435 231.277C126.265 229.975 124.209 229.937 124.36 231.277C124.624 233.635 124.869 236.012 124.812 238.37C124.775 239.52 124.68 240.652 124.454 241.765C124.397 242.029 124.322 242.538 124.171 242.991C123.756 238.803 122.926 234.672 121.643 230.654C121.304 229.598 119.493 229.711 119.606 230.937C119.983 234.71 120.342 238.52 120.153 242.331C120.096 243.331 120.002 244.349 119.851 245.33C119.813 245.632 119.776 245.953 119.681 246.236C119.663 246.311 119.644 246.368 119.625 246.443C119.606 246.405 119.606 246.368 119.587 246.311C119.719 245.425 119.493 244.368 119.436 243.482C119.38 242.595 119.285 241.708 119.191 240.822C118.814 237.257 118.172 233.71 117.305 230.239C116.871 228.523 116.38 226.806 115.814 225.127C115.362 223.788 114.777 222.486 113.494 221.769C113.192 221.6 112.758 221.562 112.438 221.769C112.06 222.015 111.683 222.279 111.306 222.524C111.098 220.468 110.891 218.393 110.665 216.337C115.343 217.45 120.115 218.242 124.907 218.732C125.416 218.789 125.906 218.827 126.378 218.789C126.416 218.864 126.472 218.94 126.529 219.015C129.924 222.958 131.962 228.032 132.263 233.22C132.301 234.502 132.282 235.766 132.15 237.011Z" fill="#010202"/>
</g>
</svg>
