<svg width="110" height="105" viewBox="0 0 110 105" fill="none" xmlns="http://www.w3.org/2000/svg">
<path d="M88.6072 40.7215C87.9495 39.8966 87.084 39.1148 86.2098 38.5219C85.1452 37.8002 83.8556 37.8517 82.7045 38.3071C80.532 39.1577 78.8356 41.1253 78.4808 43.4366C78.3942 43.9865 78.6193 44.545 79.2078 44.7082C79.7012 44.8457 80.4022 44.545 80.4888 43.9865C80.5061 43.8576 80.532 43.7373 80.558 43.6084C80.6965 43.6342 80.835 43.6342 80.9908 43.5999C81.1639 43.5569 81.3283 43.4968 81.4928 43.4366C81.6053 43.428 81.7178 43.428 81.813 43.4452C82.1159 43.4967 82.3842 43.6256 82.6352 43.8147C82.9382 44.0466 83.1892 44.3474 83.4142 44.6567C83.2065 44.8113 82.9901 44.9746 82.7824 45.1293C82.2717 45.5159 81.5793 45.8768 81.2591 46.461C80.584 47.7155 81.9515 48.8926 83.0074 49.3222C85.1712 50.19 87.3436 48.9785 88.5899 47.2171C89.265 46.2634 89.7238 45.1035 89.793 43.9435C89.8536 42.732 89.3516 41.6408 88.6072 40.7215ZM83.4315 47.2085C83.544 47.1226 83.6565 47.0453 83.769 46.9594C83.769 47.1398 83.821 47.3202 83.9162 47.4663C83.8729 47.4491 83.8296 47.4405 83.7864 47.4233C83.6565 47.3804 83.5354 47.2945 83.4315 47.2085Z" fill="#A37356"/>
<path d="M55.0078 93.7521C54.9904 93.228 54.6269 92.7125 54.0038 92.7726C53.2248 92.8414 52.5757 93.1249 51.9612 93.4772C50.9831 93.5803 50.0051 93.7349 49.0444 93.9411C48.8367 93.9841 48.6636 94.1044 48.5424 94.2591C48.0231 93.3053 46.3094 93.8552 46.6383 95.0495C47.0537 96.5703 48.7847 97.1976 50.2215 96.7937C50.9658 96.5875 51.615 96.1579 52.2468 95.7197C52.2987 95.6854 52.3593 95.6424 52.4112 95.608C52.5584 95.5651 52.7142 95.5135 52.8613 95.462C53.294 95.4276 53.7355 95.4018 54.1769 95.3932C55.0943 95.3674 55.3799 94.3536 55.0078 93.7521Z" fill="#A37356"/>
<path d="M28.4799 27.0773C28.4539 27.0601 28.4193 27.0429 28.3847 27.0343C28.4799 26.1063 27.0432 25.4533 26.4373 26.4328C25.2169 28.4004 24.2649 30.5313 23.6071 32.7481C23.4773 33.1863 23.6936 33.6846 24.0831 33.9166C24.5072 34.1658 24.9746 34.0455 25.3381 33.7533C25.9786 33.2378 26.6277 32.7223 27.2682 32.2068C27.7875 31.7857 28.3587 31.3905 28.7915 30.875C29.7435 29.7494 29.9166 27.8935 28.4799 27.0773Z" fill="#A37356"/>
<path d="M49.9352 14.5507C49.9352 14.5418 49.9352 14.5418 49.9352 14.5328C49.9262 14.5418 49.9262 14.5507 49.9352 14.5507Z" fill="#A37356"/>
<path d="M52.8096 8.39748C52.6624 8.03661 52.3768 7.74448 52.0133 7.66715C51.9787 7.61559 51.9527 7.57263 51.9181 7.52108C51.1997 5.9659 50.2477 4.50524 49.0706 3.19924C48.7677 2.86415 48.3695 2.82978 48.0233 2.95866C47.3915 2.48609 46.6558 2.14241 45.8855 1.97916C45.6778 1.9362 45.4701 1.94479 45.2796 2.00493C44.7084 1.75576 44.1112 1.55814 43.488 1.40348C41.1771 0.836405 38.7364 0.922325 36.3736 0.870772C34.2357 0.827811 31.9248 0.604417 29.8649 1.31756C25.4595 2.83837 24.3516 8.12253 24.1439 12.2038C24.0833 13.3208 24.1006 14.4377 24.1612 15.5461C24.2131 16.5944 24.1699 17.7887 24.6286 18.751C25.1219 19.7735 26.3942 20.2546 27.329 19.4641C28.0473 18.8541 27.9868 17.8746 28.1079 17.1099C28.4109 15.1423 30.3323 13.7418 31.8469 12.5647C33.7511 11.0782 35.6638 9.58319 37.568 8.09675C39.7144 8.95597 41.8176 9.91828 43.8689 10.9837C44.9681 11.5594 46.0499 12.1608 47.1232 12.7881C47.6685 13.106 48.2051 13.4411 48.7417 13.7761C48.984 13.9308 49.235 14.0855 49.4774 14.2401C49.5899 14.3175 49.7803 14.4206 49.9274 14.5151C49.9274 14.5494 49.9274 14.5752 49.9274 14.558C49.9621 14.6869 50.0053 14.8072 50.0746 14.9275C50.2996 15.297 50.7237 15.486 51.1478 15.4172C51.2776 15.4001 51.3901 15.3571 51.494 15.3055C51.4767 15.8898 51.4248 16.4655 51.3382 17.0412C51.2517 17.5911 51.4767 18.1495 52.0652 18.3128C52.6105 18.4589 53.1991 18.1324 53.3462 17.5911C54.1771 14.5666 54.0126 11.293 52.8096 8.39748Z" fill="#A37356"/>
<path d="M57.2409 63.482C57.3534 60.363 57.4313 57.2441 57.4746 54.1252C57.5005 51.9342 57.5178 49.7432 57.5092 47.5522C57.5092 47.4405 57.4919 47.3288 57.4572 47.2343L57.5092 46.7359C57.6217 45.5674 57.8208 44.3731 57.6909 43.196C57.5525 41.9243 57.0678 40.6269 55.8301 40.0255C55.1031 39.6732 54.3154 40.1028 54.2635 40.9191C53.8654 47.0796 53.4672 53.2402 53.0691 59.4007C53.0431 59.7702 53.0172 60.1397 52.9999 60.5091C52.9826 60.8098 52.9912 61.1192 52.9047 61.3683C52.896 61.3769 52.896 61.3941 52.896 61.3941C52.8354 61.4285 52.7229 61.48 52.7316 61.48C52.4979 61.5745 52.2296 61.6003 51.9872 61.6433C50.4466 61.8667 48.8974 62.0471 47.3568 62.2447C44.2669 62.6486 41.1857 63.0438 38.0958 63.4476C37.2995 63.5507 36.4946 63.6538 35.6983 63.7569C35.1098 63.8343 34.4607 63.946 33.8721 63.8085C32.9374 63.5851 32.5652 62.6915 32.2969 61.8065C31.8987 60.4919 31.6737 59.1086 31.3881 57.7682C31.0592 56.256 30.7303 54.7438 30.4101 53.2402C30.0812 51.728 29.7523 50.2157 29.432 48.7121C29.2676 47.956 29.1031 47.1999 28.9387 46.4438C28.8002 45.7994 28.6358 45.155 28.2203 44.6223C28.0992 44.4676 27.9607 44.3301 27.7962 44.2184C27.7356 43.9779 27.5885 43.7631 27.3375 43.617C26.948 43.385 26.2989 43.4537 26.0046 43.8404C25.6151 43.9349 25.2603 44.1497 25.0093 44.5106C24.9487 44.5192 24.8795 44.5278 24.8189 44.5449C24.3255 44.6824 23.8755 45.2925 24.0918 45.8166C24.4207 46.5985 24.741 47.3803 25.0612 48.1708C25.0439 49.2191 25.1305 50.2759 25.2689 51.3327C25.5978 53.8932 26.0133 56.445 26.4893 58.9797C27.45 64.0577 28.705 69.0841 30.237 74.0245C30.2889 74.1878 30.3408 74.3424 30.3841 74.5057C30.0206 74.626 29.735 74.9439 29.7263 75.4508C29.7177 77.5645 30.6957 79.5493 32.1844 81.0271C32.2103 81.0529 32.2363 81.0787 32.2623 81.1045C32.5652 81.6114 32.8854 82.1183 33.2143 82.6081C33.4999 83.0291 34.0192 83.2439 34.5126 83.0291C34.5991 82.9947 34.6857 82.9346 34.7636 82.8744C35.7762 83.39 36.8668 83.7508 37.9746 83.9828C40.3202 84.464 42.7349 84.464 45.1151 84.3437C47.6077 84.2148 50.1523 83.9484 52.5585 83.2954C52.8008 83.2267 53.0345 83.158 53.2768 83.072C53.5711 83.6305 54.3501 83.9656 54.93 83.39C55.9599 82.3675 56.4186 80.9498 56.2888 79.5751C56.3061 79.1197 56.2282 78.6729 56.0378 78.2691C56.2888 78.08 56.4446 77.7707 56.4706 77.4356C56.5312 76.5592 56.5917 75.6742 56.6523 74.7978C56.9466 74.6775 57.1889 74.4455 57.2409 74.1276C57.864 70.6049 57.8554 67.0477 57.2236 63.525C57.2495 63.4992 57.2409 63.4906 57.2409 63.482Z" fill="#5F4C4C" fill-opacity="0.9"/>
<path d="M91.3509 81.8778C85.9414 82.5565 80.532 81.4568 75.1226 81.4911C75.2957 81.3193 75.4601 81.1474 75.6159 80.9756C77.0007 79.4118 78.1086 77.6333 78.9741 75.743C80.7484 71.8422 81.5187 67.5891 81.9861 63.3531C82.1765 61.6089 82.3063 59.6156 81.536 58.0088C82.1245 57.3644 82.3496 56.488 82.1592 55.603C82.1592 55.5858 82.1505 55.5773 82.1505 55.5601C82.1938 55.5429 82.2371 55.5257 82.2803 55.4999C84.6518 54.0479 86.4002 51.7624 87.1618 49.0988C87.1878 49.0129 87.1964 48.927 87.1878 48.8496C88.988 47.8358 90.3036 46.1173 90.3902 43.9865C90.4767 41.6666 89.3256 39.235 87.3782 37.9204C85.2317 36.477 82.4967 37.1128 80.506 38.5219C78.1865 40.1716 76.8709 43.1702 78.2384 45.851C78.2644 45.9025 78.2903 45.9369 78.325 45.9799C78.0566 46.4266 77.8316 46.8906 77.6412 47.3718C76.9055 49.2191 76.7411 51.2468 76.7064 53.2144C76.7064 53.3433 76.7324 53.4464 76.7843 53.5323C76.7757 53.5409 76.7757 53.5409 76.767 53.5495C76.0573 54.1939 75.7717 55.3453 76.2997 56.1787C75.8323 56.488 75.4515 56.9348 75.2178 57.5277C75.1572 57.6737 75.1832 57.837 75.261 57.9745C74.1445 62.5541 73.028 67.1337 71.9029 71.7047C70.3709 67.4774 68.9774 63.1899 67.7484 58.868C67.0474 56.4193 66.4242 53.9533 65.7924 51.496C65.2211 49.2535 64.546 46.9679 63.2651 45.0089C61.9928 43.0671 60.1406 41.4432 57.8383 40.8761C57.8297 40.8761 57.821 40.8761 57.8124 40.8675C57.7258 40.7558 57.622 40.6527 57.5181 40.5496C56.7305 39.8107 55.5361 39.4069 54.5061 39.7592C54.4023 39.6904 54.2811 39.6475 54.1513 39.6475C51.9875 39.6217 49.8237 39.5959 47.6686 39.5787C47.3397 39.0718 46.9589 38.5992 46.5175 38.1782C46.3184 37.9892 46.0847 37.9634 45.877 38.0321C45.8164 37.087 45.7645 36.1505 45.7039 35.2053C45.7039 35.1881 45.7039 35.1624 45.6952 35.1452C46.9762 34.5867 48.1966 33.8478 49.14 32.8167C50.2132 31.6482 50.8883 30.2047 51.2778 28.6839C51.5374 27.6786 51.6759 26.6476 51.7625 25.6079C51.9096 25.6423 52.0654 25.6337 52.2298 25.5392C54.0907 24.4652 56.0294 22.4976 55.2245 20.1519C54.9389 19.3185 54.3157 18.6655 53.4848 18.4163C54.9562 15.1427 55.0168 11.302 53.632 7.97687C52.1866 4.49706 49.2265 1.87646 45.6433 0.682154C43.9296 0.115074 42.0688 -0.125504 40.2685 0.0635228C39.1174 0.175221 38.0182 0.475944 36.8497 0.441576C35.7159 0.407207 34.5994 0.218182 33.4656 0.329879C29.8304 0.664972 26.6886 3.12232 24.9663 6.24985C22.6813 10.417 22.9929 15.4606 24.3172 19.8856C24.1181 20.0574 23.9536 20.2722 23.8411 20.5214C23.5728 21.1142 23.6247 21.7586 23.7113 22.3859C23.8757 23.5888 24.1873 24.9206 25.1653 25.7368C25.3817 25.9172 25.6154 26.0633 25.8751 26.1836C23.8152 28.5464 22.5688 31.5537 22.3265 34.6812C22.3005 34.9991 22.6467 35.3686 22.9756 35.3256C25.7539 34.9733 28.2985 33.4268 29.8304 31.1155C31.2845 33.5299 33.6647 35.1881 36.4083 35.9013C36.6507 35.9614 36.9017 36.0216 37.1527 36.0731C37.2046 36.7691 37.2652 37.4651 37.3171 38.161C37.2911 38.1782 37.2652 38.204 37.2306 38.2298C36.8844 38.5648 36.5728 38.9343 36.2871 39.3124C36.2439 39.321 36.1919 39.3295 36.14 39.3467C33.5175 40.2403 30.921 41.2198 28.3591 42.2938C28.2552 42.3368 28.1687 42.3883 28.0994 42.4571C27.3378 42.6375 26.5848 42.818 25.8231 43.007C25.1221 43.1702 24.3604 43.3077 23.8671 43.8748C23.7805 43.9779 23.7026 44.081 23.6421 44.1927C21.7293 44.5192 20.2233 46.04 19.453 47.7498C18.4923 49.8893 18.4057 52.3123 18.1634 54.6149C17.6527 59.5554 17.1334 64.4959 16.6228 69.4364C16.1987 73.5348 15.5322 77.8051 16.4929 81.8864C16.9603 83.854 17.8604 85.6927 19.2366 87.1877C20.7426 88.8288 22.6727 90.0403 24.5249 91.2518C29.0169 94.1989 33.6387 96.9312 38.3903 99.4401C38.4942 99.4916 38.5894 99.5174 38.6846 99.5174C38.7365 99.6119 38.8058 99.6978 38.8923 99.758C38.9356 99.8181 38.9875 99.8697 39.0568 99.9126C39.4982 100.222 39.9396 100.531 40.3897 100.849C40.7965 101.133 41.2292 101.537 41.7658 101.459C41.887 101.442 41.9909 101.408 42.0861 101.356C43.0987 102.507 44.4749 103.229 45.8857 103.788C47.4955 104.432 49.2265 105.025 50.9835 104.999C52.4722 104.982 54.0647 104.466 55.0601 103.324C55.4755 102.851 55.7438 102.25 55.6226 101.622C55.8563 98.5207 55.9342 95.419 55.8477 92.3086C55.8044 90.8222 55.813 89.2756 55.5967 87.8063C55.5015 87.1533 55.1553 86.6206 54.5061 86.3972C53.8743 86.1824 53.1127 86.191 52.4635 86.2082C50.9922 86.2512 49.5381 86.5691 48.1446 87.0159C47.4522 87.2393 46.7685 87.4884 46.0847 87.7462C45.5308 87.961 44.7086 88.1242 44.345 88.6312C43.9123 89.2326 44.3104 90.0489 44.5008 90.6761C44.7172 91.4236 44.9422 92.1711 45.1586 92.9272C45.3663 93.649 45.5827 94.3707 45.7904 95.0925C45.7991 95.1354 45.8164 95.1784 45.8251 95.2213C45.8251 95.2213 45.8164 95.2213 45.8164 95.2299C45.3231 95.4619 44.8384 95.6939 44.345 95.9173C44.1373 95.7455 43.8863 95.6166 43.6613 95.4791C43.2199 95.2213 42.7871 94.9636 42.3457 94.7058C42.0428 93.142 40.8397 91.7587 39.8617 90.5988C37.6893 88.0211 35.1533 85.77 32.5655 83.6048C32.6347 83.579 32.6953 83.5532 32.7472 83.5103C38.8664 84.6187 45.15 85.581 51.3643 84.7733C53.1386 84.5413 54.8869 84.1805 56.592 83.6392C56.7132 83.6048 56.7997 83.5446 56.869 83.4673L67.4888 83.0635C67.6878 83.0549 67.835 82.9776 67.9388 82.8659C68.6226 83.4415 69.4448 83.8024 70.4748 83.7766C71.5394 83.7508 72.5434 83.3728 73.4521 82.8143C73.4608 82.8143 73.4694 82.8143 73.4781 82.8143C79.4415 82.4964 85.3962 83.9055 91.3509 83.158C91.6971 83.115 92 82.8916 92 82.5136C92 82.2043 91.6971 81.8348 91.3509 81.8778ZM80.7916 39.8966C82.1851 38.7195 84.3749 37.8431 86.1319 38.6937C87.7417 39.4756 88.737 41.194 89.014 42.9039C89.3342 44.8972 88.4168 46.5985 86.7031 47.6209C85.8462 48.1365 84.8595 48.4802 83.8642 48.609C83.3016 48.6778 82.7737 48.6176 82.3063 48.2825C81.8649 47.956 81.536 47.5007 81.2158 47.0625C81.2936 46.925 81.3889 46.7961 81.4927 46.6758C81.6658 46.4782 81.8476 46.3149 82.0466 46.1775C82.4621 46.4266 82.6698 46.9508 83.0939 47.2171C83.7604 47.6295 84.5307 47.4577 85.1884 47.1226C86.3482 46.5383 87.6984 45.5846 87.984 44.2442C88.2956 42.7922 87.4734 41.426 86.5646 40.3606C86.054 39.7592 85.4394 39.3553 84.6259 39.3381C83.9335 39.321 83.2237 39.5701 82.6265 39.8966C81.3369 40.6012 80.3762 41.8814 80.0733 43.3163C80.03 43.5139 80.0733 43.6858 80.1598 43.8146C79.7963 44.0982 79.4674 44.4247 79.1731 44.7684C78.524 42.9984 79.3982 41.0737 80.7916 39.8966ZM83.769 42.964C83.0247 42.5688 82.2457 42.6633 81.5187 42.9726C81.8822 42.0876 82.5486 41.3573 83.4314 40.9277C83.9334 40.6785 84.6518 40.4551 85.1625 40.7988C85.6991 41.1597 86.1318 41.8728 86.4175 42.4313C86.7031 42.9898 86.8675 43.6514 86.6079 44.2528C86.3742 44.7855 85.8635 45.1636 85.3875 45.4815C85.0153 45.7307 84.2018 46.4095 83.7344 46.1001C83.5613 45.9884 83.4228 45.7565 83.293 45.5846C83.8296 45.3698 84.3402 45.0519 84.4787 44.4505C84.6345 43.8318 84.3229 43.2562 83.769 42.964ZM80.307 45.4214C80.9128 44.7684 82.0207 43.7373 83.016 44.0466C83.1112 44.0724 83.2237 44.1497 83.2237 44.1325C83.2237 44.1497 83.0939 44.2614 83.0074 44.313C82.514 44.5793 81.9514 44.6653 81.4754 44.9746C80.281 45.7393 79.5367 47.0367 79.4761 48.4458C79.4415 49.2277 80.6012 49.2706 80.757 48.5747C81.311 49.2105 81.9774 49.7432 82.8602 49.8807C83.769 50.0182 84.7384 49.8291 85.6299 49.5198C84.8682 51.5304 83.4488 53.2488 81.5966 54.383C81.5793 54.3915 81.5706 54.4001 81.562 54.4087C81.1552 53.9018 80.6012 53.498 80.0214 53.2488C79.3982 52.9824 78.6625 52.8536 77.9874 52.9653C78.0566 50.3103 78.4202 47.4405 80.307 45.4214ZM77.7018 54.4173C78.2384 54.0307 79.052 54.1853 79.6059 54.4517C80.1771 54.7266 80.6964 55.1906 80.8695 55.8178C80.9648 56.1529 80.9301 56.5568 80.7657 56.8833C80.6359 56.7458 80.4887 56.6083 80.3329 56.4794C79.528 55.8178 78.4721 55.5515 77.5027 55.6975C77.4854 55.6632 77.4767 55.6374 77.4508 55.6116C77.1738 55.2164 77.3123 54.7009 77.7018 54.4173ZM48.889 44.6996C49.0274 43.4022 48.8197 42.079 48.3177 40.8761C50.0401 40.8933 51.7625 40.9105 53.4848 40.9363C53.5627 46.1947 53.4502 51.4616 53.13 56.7114C53.0521 58.0604 53.0174 59.4265 52.8443 60.7669C52.7751 61.2824 52.5155 61.3598 52.0135 61.4457C51.3557 61.5488 50.6892 61.6261 50.0314 61.712C48.1446 61.9526 46.2492 62.1588 44.3537 62.3307C43.8604 56.574 43.3757 50.8172 42.8823 45.0519C43.2199 45.2323 43.5488 45.43 43.8863 45.619C44.4749 45.9541 45.0634 46.2892 45.6606 46.6243C46.1626 46.9078 46.8031 47.4405 47.4176 47.4405C48.6033 47.4405 48.7938 45.5502 48.889 44.6996ZM38.7365 39.8451C38.6413 38.6594 38.5461 37.4651 38.4509 36.2793C40.4502 36.4855 42.5015 36.2622 44.397 35.6349C44.4922 37.1128 44.5787 38.582 44.6739 40.0599C44.596 40.1114 44.5268 40.1802 44.4749 40.2575C43.9383 40.9878 43.393 41.7182 42.8564 42.4485C42.5881 42.818 42.3197 43.1788 42.0428 43.5483C41.9909 43.6256 41.9303 43.6943 41.8783 43.7717C41.8091 43.7029 41.7052 43.6342 41.6533 43.5741C40.5801 42.4657 39.6107 41.28 38.7279 40.0255C38.7452 39.9654 38.7452 39.9052 38.7365 39.8451ZM45.9895 40.3606C45.9722 40.0685 45.9549 39.7677 45.9376 39.4756C46.6992 40.3348 47.2185 41.3659 47.4695 42.5C47.6167 43.1445 47.6513 43.7975 47.608 44.459C47.582 44.777 47.5388 45.0949 47.4609 45.4042C47.4263 45.5674 47.3743 45.7307 47.331 45.8853C47.3137 45.9455 47.2878 46.0142 47.2705 46.0744C47.0195 45.9541 46.7771 45.7736 46.5521 45.6448C46.1799 45.4385 45.8164 45.2237 45.4442 45.0175C44.7778 44.6395 44.12 44.1927 43.4189 43.8748C43.4709 43.7975 43.5228 43.7201 43.5747 43.6514C44.2325 42.7578 44.899 41.8556 45.5568 40.9621C45.8078 40.8933 46.0155 40.6957 45.9895 40.3606ZM54.0561 20.9596C54.2292 22.4632 53.0001 23.5458 51.8144 24.2761C51.823 23.9754 51.8404 23.6833 51.8404 23.3826C51.8663 22.1968 51.8923 21.0197 51.9096 19.834C52.1952 19.5848 52.628 19.5419 53.0001 19.6278C53.6406 19.7825 53.9868 20.3409 54.0561 20.9596ZM25.5202 8.0542C26.6973 5.07273 29.3285 2.49509 32.5135 1.76476C34.5215 1.30938 36.5641 1.91083 38.5894 1.61011C39.5155 1.47263 40.407 1.30079 41.3417 1.2922C42.164 1.2836 42.9862 1.36093 43.7911 1.52418C47.0974 2.20296 50.1093 4.22211 51.7884 7.16062C53.7272 10.5459 53.8397 14.9021 52.0567 18.3733C52.0221 18.3819 51.9788 18.3905 51.9442 18.3991C51.9529 17.8836 51.9615 17.3681 51.9702 16.8525C51.9788 16.6206 51.875 16.4487 51.7278 16.3456C51.7884 15.2458 50.4988 14.5584 49.7372 13.9914C48.7938 13.304 47.833 12.6338 46.855 11.998C44.8903 10.7092 42.8564 9.4719 40.7445 8.41507C39.7059 7.89954 38.5981 7.53867 37.4642 7.96828C36.4949 8.33774 35.5774 8.9306 34.7206 9.51486C32.9982 10.6748 31.423 12.0581 30.0728 13.6305C29.2938 14.5327 28.5668 15.495 27.9523 16.5174C27.3291 17.5485 26.9137 18.6569 27.0175 19.8512C26.5761 19.5677 26.0828 19.4044 25.5289 19.4216C24.4383 15.7356 24.0835 11.6973 25.5202 8.0542ZM25.0182 22.4718C24.9317 21.9219 24.6893 20.8221 25.4942 20.7104C26.1867 20.6159 26.7319 21.183 27.1647 21.6985C27.2426 22.7467 27.3897 23.795 27.5974 24.8346C27.4157 24.7917 27.208 24.8346 27.0262 24.9979C26.9656 25.0494 26.905 25.1096 26.8444 25.1697C26.5329 25.1182 26.2299 24.9721 25.9876 24.7487C25.3471 24.1816 25.148 23.2623 25.0182 22.4718ZM23.7026 33.9079C24.0921 31.1069 25.399 28.4777 27.3811 26.4499C27.5715 26.4328 27.7532 26.3898 27.935 26.3211C28.2379 27.4982 28.6187 28.6667 29.1207 29.7665C27.9956 31.82 25.9962 33.3838 23.7026 33.9079ZM31.3191 31.0467C30.2545 29.5173 29.64 27.713 29.1813 25.9344C28.8351 24.5855 28.6014 23.2193 28.4803 21.836C28.5668 21.6469 28.5408 21.4236 28.437 21.2345C28.411 20.8049 28.3937 20.3667 28.3937 19.9285C28.3937 19.7825 28.3504 19.6622 28.2812 19.5677C28.2293 18.6655 28.688 17.7805 29.1553 17.0244C29.6227 16.2683 30.1507 15.5465 30.7133 14.8592C31.8904 13.4415 33.2406 12.1526 34.7292 11.07C35.4736 10.5287 36.2439 10.039 37.0488 9.59219C37.4383 9.37739 37.8364 9.13681 38.2778 9.06807C38.7712 8.99074 39.2818 9.15399 39.7319 9.35161C40.6753 9.77263 41.5668 10.3053 42.4582 10.8123C43.3843 11.3364 44.2931 11.8863 45.1932 12.4534C46.154 13.0634 47.106 13.6992 48.0408 14.3522C48.5168 14.6873 48.9928 15.031 49.4602 15.3747C49.7631 15.5981 50.4642 15.959 50.4209 16.3972C50.4036 16.5948 50.5075 16.7752 50.6719 16.8955C50.6546 17.7203 50.646 18.5366 50.6286 19.3614C50.4902 19.5848 50.5075 19.8082 50.62 19.9801C50.6027 20.7706 50.594 21.561 50.5767 22.3515C50.5507 23.8379 50.5248 25.3416 50.3084 26.8194C50.1007 28.2285 49.7199 29.6376 48.9669 30.8663C48.1706 32.1637 46.9589 33.0831 45.6 33.7447C41.0215 35.9958 34.3917 35.4889 31.3191 31.0467ZM36.0015 42.8953C36.2612 41.8556 36.7199 40.8761 37.3604 40.0255C37.3344 40.1544 37.3604 40.3005 37.4642 40.4551C38.0528 41.3057 38.676 42.1306 39.3424 42.9296C39.654 43.3077 39.9829 43.6686 40.3118 44.0294C40.4589 44.1841 40.5974 44.3559 40.7532 44.5106C40.2425 44.8629 39.7319 45.2152 39.2039 45.5417C38.5202 45.9713 37.8278 46.3751 37.118 46.7617C36.8238 46.9164 36.5381 47.0625 36.2352 47.1913C36.0967 47.2515 36.1573 47.2085 36.14 47.1828C36.0535 47.0711 36.0362 46.8391 36.0015 46.7016C35.6726 45.4557 35.6899 44.1411 36.0015 42.8953ZM35.2918 41.005C34.8591 41.9673 34.5907 42.9984 34.4955 44.0638C34.4003 45.1378 34.5042 46.2548 34.8071 47.2944C34.9456 47.7756 35.162 48.2224 35.6553 48.4114C36.2352 48.6348 36.8151 48.3771 37.3344 48.1107C38.5288 47.4921 39.6799 46.7961 40.7965 46.0486C41.0734 45.8596 41.3417 45.6448 41.6187 45.4385C42.1034 51.1094 42.5794 56.7802 43.0641 62.4424C43.0035 62.451 42.9516 62.451 42.891 62.4596C42.891 62.408 42.8823 62.3479 42.8737 62.2963C42.7958 61.9956 42.7092 61.6863 42.6313 61.3855C42.5448 61.059 42.164 60.827 41.8351 60.9387C41.4975 61.0504 41.2898 61.3855 41.385 61.7292C41.4629 62.0042 41.5321 62.2877 41.61 62.5627C38.8317 62.7775 36.0448 62.9235 33.2665 63.0094C31.9336 56.4451 30.6007 49.8807 29.2765 43.3077C31.2585 42.4829 33.2665 41.7182 35.2918 41.005ZM54.5407 97.6271C54.5061 97.6185 54.4802 97.6185 54.4455 97.61C54.4802 97.5584 54.5148 97.5068 54.5494 97.4553C54.5494 97.5154 54.5407 97.567 54.5407 97.6271ZM54.584 95.2901C54.0388 94.9206 53.1819 95.1011 52.6107 95.2987C51.9269 95.5392 51.3124 95.9173 50.6892 96.2782C49.642 96.8882 48.136 97.4553 47.4695 96.0634C47.1666 95.4361 47.0195 94.7144 46.8291 94.0442C49.4515 94.766 52.2818 94.302 54.5667 92.8585C54.584 93.6748 54.5927 94.4824 54.584 95.2901ZM47.5734 88.5796C49.0707 88.0469 50.6286 87.5915 52.2298 87.5142C52.628 87.497 53.0261 87.497 53.4242 87.5228C53.5108 87.5314 53.6233 87.5314 53.7272 87.54C51.598 89.0522 48.9149 89.5935 46.379 89.0178C46.7685 88.8718 47.1666 88.7257 47.5734 88.5796ZM45.7472 90.3496C45.7299 90.298 45.7125 90.2379 45.6952 90.1863C48.6293 90.9854 51.9009 90.4183 54.3763 88.6569C54.3763 88.6827 54.3763 88.7085 54.3763 88.7343C54.4023 89.1639 54.4282 89.5849 54.4542 90.0145C54.4802 90.4613 54.4975 90.8995 54.5148 91.3463C54.4715 91.3721 54.4282 91.3978 54.385 91.4322C52.1866 93.1335 49.1486 93.5373 46.5434 92.6093C46.4915 92.5921 46.4396 92.5836 46.3963 92.575L46.102 91.5611C45.9895 91.1573 45.8683 90.7534 45.7472 90.3496ZM43.7305 99.2596C43.9988 98.83 44.2498 98.3832 44.4749 97.9279C44.6047 97.6701 44.7432 97.4037 44.7951 97.1288C45.2711 96.9054 45.7472 96.682 46.2232 96.4586C46.2838 96.6047 46.353 96.7421 46.4309 96.8796C47.1839 98.22 48.7159 98.4692 50.0834 97.9794C50.7498 97.7388 51.347 97.3694 51.9529 97.0171C52.2731 96.8367 52.602 96.6476 52.9482 96.5273C53.104 96.4758 53.2598 96.4242 53.4156 96.3985C53.4935 96.3813 53.5714 96.3727 53.6579 96.3727H53.6666C53.4848 97.0343 52.6972 97.6271 52.1866 97.9107C51.2085 98.4434 50.0401 98.5379 48.9409 98.598C48.2571 98.6324 48.0061 99.7494 48.7678 99.8611C50.0228 100.05 51.2864 99.99 52.5068 99.6205C52.8184 99.526 53.13 99.4057 53.4329 99.2768C53.4935 99.2511 54.0128 99.0534 54.1945 98.9331C54.1945 98.9503 54.1945 98.9589 54.1945 98.9589C54.1945 99.1393 54.134 99.3026 54.0474 99.4573C53.1906 101.021 50.9835 101.691 49.3823 100.901C48.638 100.531 48.0148 101.571 48.7245 102.018C49.841 102.714 51.1739 102.954 52.4722 102.765C53.0953 102.671 53.7099 102.473 54.2638 102.164C54.2465 102.233 54.2292 102.293 54.2118 102.318C53.5194 103.332 52.0481 103.719 50.8883 103.719C49.391 103.719 47.9196 103.203 46.5348 102.671C45.1932 102.155 43.895 101.494 42.9516 100.394C43.2372 100.033 43.4882 99.6549 43.7305 99.2596ZM41.3937 97.7732C41.8351 97.3178 42.164 96.7937 42.3111 96.2008L42.5707 96.3555C42.7352 96.45 42.8996 96.5531 43.0641 96.6476C43.1766 96.7164 43.4363 96.8109 43.5142 96.9226C43.5142 96.9312 43.5055 96.9398 43.5055 96.9483C43.4795 97.0171 43.4536 97.0858 43.4189 97.146C43.3324 97.3264 43.2372 97.5069 43.142 97.6873C42.9775 97.9966 42.7958 98.3059 42.6054 98.6066C42.415 98.9074 42.2245 99.2081 42.0168 99.5002C41.9043 99.6635 41.7831 99.8353 41.662 99.99L41.5754 100.102C41.0907 99.7494 40.5887 99.4057 40.0954 99.062C40.4416 98.5723 40.9955 98.1942 41.3937 97.7732ZM34.1753 86.7323C35.5515 87.961 36.893 89.2326 38.1307 90.5988C38.7452 91.2776 39.3424 91.9735 39.8877 92.7124C40.3897 93.3912 40.8743 94.1301 41.0648 94.9722C41.2552 95.8486 40.8917 96.493 40.2685 97.0858C39.8357 97.5069 39.4116 97.8849 39.0741 98.3489C39.0654 98.3489 39.0654 98.3403 39.0568 98.3403C34.9889 96.1837 31.0075 93.8724 27.1214 91.3978C25.2779 90.2207 23.3737 89.0694 21.6773 87.6946C20.1454 86.4488 18.8991 84.9366 18.2067 83.0721C16.8565 79.4376 17.2979 75.4165 17.6873 71.6531C18.1807 66.8845 18.6827 62.1159 19.176 57.3386C19.3145 56.0326 19.4443 54.7266 19.5828 53.4206C19.7126 52.2006 19.8165 50.9719 20.1194 49.7776C20.5608 48.0076 21.5908 46.1947 23.3737 45.5846C23.4257 46.2462 23.6421 46.925 23.8065 47.5264C24.5855 50.3962 25.1394 53.3261 25.6068 56.256C25.8924 58.0174 26.1434 59.7874 26.3944 61.5488C26.3598 68.0444 25.7193 74.5315 24.4643 80.9069C24.3085 81.7145 25.5548 82.0668 25.7193 81.2505C25.7366 81.1388 25.7626 81.0357 25.7799 80.924C27.3897 81.2419 28.7659 82.1527 30.0209 83.1752C31.4403 84.3179 32.8165 85.5208 34.1753 86.7323ZM27.4416 68.328C27.7619 70.1753 28.134 72.0054 28.5928 73.8269C29.3025 76.6881 30.2372 79.4977 31.4836 82.1785C31.4403 82.1699 31.4057 82.1613 31.3624 82.1527C31.198 82.1183 31.0248 82.1441 30.8864 82.2129C29.4496 81.0529 27.8744 79.9961 26.0222 79.661C26.706 75.9148 27.1733 72.1343 27.4416 68.328ZM55.839 82.0668C55.8304 82.1355 55.8304 82.2043 55.8304 82.2644C55.6659 82.3332 55.5534 82.462 55.4928 82.6167C49.8324 84.2234 43.843 83.9313 38.0701 83.0978C36.3564 82.8487 34.6427 82.5565 32.9376 82.2472C30.5055 77.2724 29.3111 71.8336 28.4283 66.4033C28.1687 64.7794 27.9263 63.1555 27.6926 61.523C27.6926 61.2223 27.6926 60.913 27.6926 60.6123C27.6926 60.406 27.6147 60.2514 27.4936 60.1483C26.9829 56.6083 26.455 53.0684 25.65 49.58C25.4683 48.8067 25.2779 48.0248 25.0701 47.2601C24.897 46.6157 24.6374 45.9455 24.6547 45.2753C24.6807 44.545 25.2952 44.4505 25.9097 44.3044C26.6194 44.1325 27.3291 43.9607 28.0302 43.7975C29.3804 50.4735 30.7392 57.1582 32.0894 63.8343C32.1414 64.1007 32.4443 64.3155 32.7126 64.3069C38.3817 64.1522 44.0508 63.7312 49.6766 63.0352C50.3776 62.9493 51.0874 62.8548 51.7884 62.7603C52.377 62.683 53.0001 62.6228 53.4762 62.2362C53.9782 61.8323 54.082 61.2395 54.134 60.638C54.1945 59.9249 54.2465 59.2203 54.2897 58.5072C54.4888 55.6632 54.6273 52.8106 54.7052 49.9666C54.7917 46.9937 54.8091 44.0208 54.7571 41.048C55.5015 40.7129 56.4102 41.1683 56.8517 41.8213C57.5527 42.8523 57.4835 44.2356 57.4835 45.4214C57.4921 48.4114 57.5094 51.3929 57.4921 54.383C57.4835 55.9123 57.4662 57.4332 57.4402 58.9626C57.3537 59.0914 57.3277 59.2633 57.3969 59.4523C57.4056 59.4781 57.4142 59.5039 57.4229 59.5296C57.345 63.7226 57.1892 67.9156 56.8776 72.0999C56.6612 75.4251 56.315 78.7588 55.839 82.0668ZM57.12 82.1785C58.0114 75.9836 58.4615 69.7457 58.6606 63.4906C58.6692 63.2758 58.6692 63.0696 58.6779 62.8548C60.0194 66.4377 61.4475 69.9777 62.9795 73.4833C63.9661 75.7516 64.9874 78.0113 66.0693 80.2453C66.329 80.778 66.6233 81.3107 66.9695 81.7918C63.6805 81.9293 60.4002 82.0496 57.12 82.1785ZM70.7777 82.4792C68.839 82.7026 67.8783 81.0529 67.1599 79.5493C66.1819 77.5044 65.2384 75.4509 64.3297 73.3801C62.3044 68.7748 60.4608 64.0921 58.7644 59.3492C58.8683 54.4517 58.8856 49.5456 58.799 44.6567C58.7904 43.9521 58.7385 43.196 58.5567 42.4829C62.1313 44.0123 63.594 48.2482 64.4941 51.7624C65.7318 56.5654 67.0214 61.3512 68.562 66.0683C69.4448 68.7662 70.3796 71.4383 71.3749 74.0933C71.5826 74.6518 72.4655 74.7549 72.6299 74.0933C73.9541 68.6717 75.2784 63.2586 76.6026 57.837C76.6286 57.7425 76.6286 57.648 76.6112 57.5706C76.9401 57.1496 77.52 56.9348 78.0393 56.9262C78.8096 56.909 79.4847 57.3472 79.9435 57.9315C81.1898 59.5296 80.8522 61.7636 80.6359 63.6281C80.2031 67.4086 79.502 71.2579 77.9701 74.7721C77.2257 76.4819 76.2823 78.1316 75.0879 79.5837C74.0147 80.8897 72.552 82.273 70.7777 82.4792Z" fill="#010202"/>
<path d="M38.4495 6.41296C38.2763 5.21006 38.1032 4.00716 37.9301 2.80427C37.8782 2.46058 37.4368 2.27155 37.1339 2.35747C36.7617 2.46058 36.6319 2.80427 36.6838 3.14795C36.8569 4.35085 37.03 5.55375 37.2031 6.75665C37.255 7.10033 37.6965 7.28936 37.9994 7.20344C38.3716 7.10033 38.5014 6.76524 38.4495 6.41296Z" fill="#010202"/>
<path d="M31.4049 20.6502C31.0847 20.7705 30.8337 21.0884 30.9549 21.4407C30.9549 21.4493 30.9635 21.4578 30.9635 21.4664C30.9203 21.6727 30.9376 21.8875 31.0068 22.0937C31.102 22.3686 31.2924 22.6178 31.5607 22.7381C31.9069 22.9013 32.2704 22.7896 32.5301 22.5233C33.2225 21.8015 32.4436 20.2635 31.4049 20.6502Z" fill="#010202"/>
<path d="M47.2876 20.109C46.976 19.9543 46.5865 20.0317 46.3961 20.341C46.3529 20.4183 46.3269 20.5042 46.3182 20.5988C46.0672 20.9081 45.972 21.3033 46.0499 21.7157C46.1451 22.257 46.7596 22.9616 47.3655 22.6179C48.2829 22.0852 48.2224 20.5816 47.2876 20.109Z" fill="#010202"/>
<path d="M41.6697 52.9482L41.436 51.3501C41.3841 51.0064 40.9427 50.8174 40.6397 50.9033C40.2676 51.0064 40.1377 51.3501 40.1897 51.6938C40.2676 52.2265 40.3455 52.7592 40.4234 53.2919C40.4753 53.6356 40.9167 53.8246 41.2196 53.7387C41.5831 53.6442 41.7216 53.2919 41.6697 52.9482Z" fill="#010202"/>
<path d="M42.1815 58.4213L41.9046 56.5998C41.8526 56.2561 41.4199 56.0671 41.1083 56.153C40.7361 56.2561 40.5977 56.5998 40.6582 56.9435C40.7534 57.5535 40.8487 58.155 40.9352 58.765C40.9871 59.1087 41.4199 59.2977 41.7315 59.2118C42.095 59.1087 42.2335 58.765 42.1815 58.4213Z" fill="#010202"/>
<path d="M54.203 67.864C53.9607 66.8759 52.5326 66.9017 51.7363 66.8673C49.7283 66.79 47.7463 67.2196 45.7383 67.2196C41.6012 67.2024 37.265 66.137 33.3788 68.0444C32.9894 68.2334 32.9807 68.6373 33.1711 68.9208C33.4654 72.0483 33.9934 75.657 36.9361 77.4614C38.4767 78.4065 40.3549 78.6901 42.1292 78.8103C44.0419 78.9392 46.0066 78.776 47.8415 78.2003C49.5552 77.659 51.2257 76.7654 52.3422 75.3391C53.4587 73.9214 53.8828 72.1772 54.0818 70.4244C54.1251 70.0292 54.1597 69.6254 54.1857 69.2215C54.2203 68.7919 54.3069 68.285 54.203 67.864ZM52.8961 69.1528C52.8009 70.6478 52.6364 72.2202 51.944 73.5777C51.217 75.004 49.9361 75.9749 48.482 76.6022C46.9327 77.2638 45.219 77.5473 43.5399 77.5645C41.9041 77.5817 40.1904 77.427 38.6498 76.8599C35.3436 75.6399 34.781 72.0312 34.4867 68.9638C37.3948 67.7437 40.727 68.2592 43.7909 68.4396C45.5566 68.5428 47.2703 68.474 49.0359 68.2936C49.936 68.2077 50.8448 68.1217 51.7536 68.1561C51.97 68.1647 52.1864 68.1819 52.4114 68.1991C52.5066 68.2077 52.8269 68.3108 52.9567 68.3022C52.9567 68.3623 52.948 68.4311 52.948 68.4482C52.9221 68.6802 52.9134 68.9208 52.8961 69.1528Z" fill="#010202"/>
<path d="M46.6986 29.311C46.5082 28.9845 46.1274 28.933 45.8072 29.079C43.0202 30.3421 39.8092 30.5139 36.8924 29.6289C36.0962 29.3883 35.7499 30.6256 36.5462 30.8748C39.8178 31.8715 43.3578 31.6051 46.465 30.196C46.7939 30.0499 46.8631 29.5946 46.6986 29.311Z" fill="#010202"/>
<path d="M41.7646 25.3243H39.6961C38.8565 25.3243 38.8565 26.6126 39.6961 26.6126H41.7646C42.5955 26.6126 42.6042 25.3243 41.7646 25.3243Z" fill="#010202"/>
<path d="M107.576 75.5251C107.253 75.1011 106.815 74.8899 106.321 74.731C106.135 74.6658 105.936 74.6264 105.774 74.5162C105.625 74.4056 105.513 74.2432 105.401 74.0998C105.111 73.7131 104.808 73.3331 104.493 72.9661C103.207 71.4989 101.617 70.2938 99.8693 69.4297C99.5986 69.2968 99.2745 69.3179 99.0434 69.4891C98.8591 69.5002 98.6891 69.5746 98.572 69.7238C97.6854 70.8847 96.3952 71.452 95.052 71.9444C94.3458 72.2042 93.6326 72.4387 92.9332 72.7174C92.1898 73.0163 91.4149 73.3287 90.8182 73.8845C90.5074 74.1723 90.2692 74.5599 90.1717 74.9756C90.0682 75.4043 90.1816 75.8527 90.0842 76.2685C89.9174 76.9594 89.3734 77.5838 89.2078 78.3192C88.8025 80.1225 90.4834 81.6177 92.2187 81.5221C93.1913 81.4716 94.0901 81.0288 94.8384 80.4246C94.8633 80.4049 94.8945 80.3787 94.9194 80.359C94.972 80.4212 95.0181 80.4836 95.0705 80.5394C95.3911 80.8745 95.8359 81.0919 96.2905 81.1946C97.1483 81.3823 98.0681 81.2569 98.9162 81.0697C99.7834 80.882 100.621 80.5489 101.393 80.1158C101.77 79.9026 102.107 79.6523 102.457 79.4017C102.463 79.4016 102.469 79.395 102.476 79.3885C102.41 79.3076 102.38 79.1367 102.486 79.2929C102.499 79.3116 102.512 79.3304 102.538 79.3488C102.582 79.3222 102.632 79.2891 102.632 79.2828C102.614 79.3341 102.603 79.3725 102.584 79.3921C102.688 79.4784 102.837 79.5826 102.928 79.6502C103.629 80.1726 104.462 80.6152 105.359 80.5984C106.3 80.5805 107.061 79.976 107.447 79.1459C107.779 78.438 108.038 77.6112 108.005 76.8237C107.98 76.3539 107.86 75.8929 107.576 75.5251Z" fill="#A37356"/>
<path d="M102.532 79.3346C102.507 79.348 102.488 79.3612 102.469 79.3744C102.502 79.4118 102.541 79.4299 102.578 79.378C102.558 79.3658 102.545 79.347 102.532 79.3346Z" fill="#A37356"/>
<path d="M108.101 75.3768C107.522 74.6416 106.626 74.2133 105.696 74.1928C105.681 74.0724 105.658 73.9522 105.63 73.8321C105.388 72.8402 104.631 71.868 103.612 71.6018C103.419 71.5495 103.254 71.5474 103.108 71.583C102.825 70.9545 102.301 70.3958 101.831 69.9375C101.146 69.2813 100.343 68.7552 99.4675 68.39C99.1972 68.2761 98.8753 68.3798 98.7868 68.6491C98.686 68.6898 98.5925 68.7685 98.525 68.8657C97.9114 69.7525 97.0898 70.473 96.1419 70.9869C95.0935 71.5544 93.8957 71.7569 92.7927 72.1795C91.7968 72.5612 90.8248 73.1266 90.244 74.0507C89.7672 74.8132 89.6338 75.8084 89.9799 76.6387C89.5924 76.9157 89.251 77.2551 88.9823 77.6944C88.2374 78.9215 88.6187 80.3739 89.8097 81.1379C90.1981 81.3885 90.6028 81.5307 91.0184 81.6026C91.0254 81.6279 91.0324 81.6531 91.0395 81.6784C91.6706 83.1943 92.2767 84.7235 92.9395 86.2323C93.0681 86.5277 93.228 86.8034 93.5062 86.9806C93.8297 87.182 94.2183 87.1911 94.582 87.2262C95.4054 87.313 96.2222 87.3937 97.0451 87.4615C98.6462 87.5919 100.252 87.6649 101.854 87.5791C102.674 87.5325 103.493 87.4415 104.304 87.3061C104.602 87.254 104.906 87.208 105.169 87.0486C105.483 86.8562 105.646 86.5404 105.739 86.1947C106.202 84.39 106.53 82.5442 106.922 80.7222C106.939 80.6391 106.937 80.5565 106.916 80.4871C107.065 80.3561 107.202 80.2127 107.338 80.0693C107.939 79.4308 108.538 78.716 108.699 77.8282C108.836 76.9727 108.641 76.0623 108.101 75.3768ZM103.214 72.7246C103.264 72.6725 103.3 72.6016 103.311 72.5187C103.323 72.5183 103.343 72.5242 103.375 72.5297C103.483 72.5396 103.6 72.6193 103.69 72.6678C104.058 72.8745 104.334 73.2107 104.522 73.5809C104.972 74.4848 104.784 75.5832 104.38 76.4646C103.657 78.0472 102.28 79.2016 100.72 79.9221C99.8459 80.3197 98.9045 80.5919 97.9536 80.7436C97.4782 80.8194 96.983 80.8703 96.499 80.8637C96.0979 80.8613 95.5874 80.8109 95.3427 80.4549C95.2436 80.3176 95.1148 80.2573 94.9809 80.248C94.759 79.3001 95.6692 78.5583 96.417 78.183C97.2967 77.7407 98.2445 77.4683 99.1172 77.0008C100.718 76.1394 102.175 74.8748 102.992 73.2262C103.077 73.0651 103.142 72.8917 103.214 72.7246ZM91.4408 74.058C92.1732 73.3335 93.2024 73.0081 94.1689 72.7226C95.2111 72.4096 96.2466 72.0841 97.1668 71.4818C97.7614 71.0914 98.2842 70.6329 98.748 70.106C99.0392 73.2455 95.0651 74.8864 92.6063 75.5602C91.9996 75.7284 91.3803 75.9033 90.8142 76.1658C90.566 75.4284 90.8949 74.6061 91.4408 74.058ZM90.4142 80.3912C89.9428 80.13 89.5558 79.6886 89.5288 79.1362C89.5013 78.5647 89.8189 78.0479 90.2162 77.6562C90.3961 77.4735 90.6024 77.3284 90.8217 77.1956C90.8407 77.1887 90.8531 77.1757 90.872 77.1688C91.838 76.6162 93.0689 76.4637 94.0909 76.1068C95.4534 75.6266 96.7983 74.9562 97.9004 74.0059C99.0584 73.0034 99.8982 71.5068 99.6986 69.9416C99.7226 69.8838 99.7398 69.8134 99.7377 69.7308C99.7364 69.68 99.7351 69.6292 99.7338 69.5783C100.199 69.8334 100.639 70.1399 101.031 70.4985C101.324 70.7643 101.599 71.0561 101.836 71.3678C102.054 71.6547 102.304 71.9724 102.364 72.3396C102.352 72.3717 102.34 72.3975 102.322 72.4297C102.124 72.8989 101.868 73.3505 101.567 73.7588C100.946 74.595 100.136 75.2834 99.2525 75.8338C98.7452 76.1521 98.205 76.433 97.6508 76.6635C97.0273 76.9211 96.3772 77.135 95.7808 77.4555C94.7825 77.9899 93.9426 78.9906 94.0169 80.1394C92.8635 80.5824 91.5508 81.0231 90.4142 80.3912ZM105.037 84.8904C104.963 85.2293 104.896 85.5744 104.815 85.9134C104.747 86.2076 104.64 86.2676 104.349 86.3259C103.64 86.4777 102.909 86.5474 102.192 86.5977C100.736 86.6988 99.2714 86.6603 97.8176 86.5642C97.097 86.5129 96.376 86.4488 95.6613 86.3782C95.3103 86.3428 94.9656 86.3072 94.6146 86.2717C94.3019 86.2416 94.0096 86.2619 93.8554 85.9607C93.487 85.2518 93.2248 84.4639 92.9193 83.7279C92.6275 83.0297 92.3358 82.3316 92.044 81.6334C92.6728 81.579 93.3046 81.3975 93.9102 81.1848C94.1398 82.6792 94.3756 84.1672 94.6052 85.6616C94.6436 85.915 94.8147 86.1331 95.0946 86.1258C95.33 86.1198 95.5978 85.8904 95.5594 85.637C95.3378 84.2059 95.1162 82.7749 94.8946 81.3438C95.4015 81.7439 96.0785 81.8346 96.7401 81.8175C96.773 82.5986 96.825 83.3793 96.8707 84.1601C96.8821 84.3569 96.9001 84.5598 96.9115 84.7566C96.9205 84.8581 96.9232 84.9598 96.9258 85.0614C96.9261 85.0741 96.9264 85.0868 96.9268 85.0995C96.8971 85.183 96.8934 85.2848 96.9281 85.3983C96.942 85.4425 96.9626 85.4991 96.989 85.5366C97.1349 85.7617 97.4164 85.818 97.6486 85.6913C98.0565 85.4646 97.8564 84.6178 97.8342 84.2497C97.7807 83.4118 97.7274 82.5804 97.693 81.7421C98.1942 81.6783 98.6884 81.5893 99.1818 81.4685C99.2565 82.8843 99.2486 84.3022 99.1515 85.7161C99.11 86.3275 100.064 86.2965 100.106 85.6915C100.207 84.1948 100.213 82.688 100.123 81.1899C100.199 81.1625 100.274 81.1351 100.35 81.1078C100.772 80.9506 101.188 80.7683 101.59 80.5545C101.395 82.1235 101.206 83.6986 101.011 85.2676C100.938 85.8798 101.713 86.0696 101.94 85.498C101.97 85.4209 102 85.3438 102.03 85.2668C102.072 85.164 102.056 85.0563 102.003 84.9623L102.539 80.5809C102.539 80.5682 102.538 80.5618 102.544 80.5489C103.027 80.7526 103.527 80.8923 104.039 80.9809C103.668 82.1475 103.406 83.3431 103.253 84.5614C103.221 84.8165 103.33 85.068 103.599 85.1373C103.823 85.1951 104.144 85.047 104.175 84.7919C104.334 83.529 104.607 82.2822 105.002 81.0705C105.289 81.0758 105.588 81.0681 105.866 81.0164C105.594 82.3076 105.316 83.599 105.037 84.8904ZM107.325 78.5947C107.086 78.9442 106.782 79.2572 106.491 79.5635C106.144 79.9221 105.849 80.0886 105.347 80.108C104.526 80.1418 103.714 79.9911 102.955 79.6801C103.779 79.0485 104.491 78.2736 105.002 77.3513C105.379 76.674 105.646 75.917 105.715 75.1459C106.473 75.1709 107.171 75.5725 107.538 76.2496C107.953 77.0209 107.804 77.9021 107.325 78.5947Z" fill="#010202"/>
<path d="M1.60687 91.8758C1.67017 91.3084 1.93036 90.8395 2.19127 90.3421C2.42654 89.8929 2.508 89.4113 2.61406 88.9223C2.73388 88.3725 2.93899 87.8291 3.35601 87.4332C3.8064 87.0057 4.34153 86.9259 4.93258 87.0466C5.04186 87.0697 5.14698 87.0967 5.25251 87.1076C5.32561 87.1135 5.3867 87.111 5.41976 87.0915C5.51891 87.033 5.59136 86.9048 5.66684 86.8173C5.75911 86.7099 5.86711 86.6233 5.98316 86.5409C6.44723 86.2153 7.0639 86.1294 7.6047 86.3057C7.8751 86.3939 7.97848 86.6485 7.93097 86.9155C7.76096 87.8379 7.13617 88.5617 6.86553 89.4409C6.85656 89.4731 6.84761 89.5054 6.83865 89.5377C7.32433 89.9606 7.41339 90.6172 7.51203 91.2172C7.51193 91.2212 7.51193 91.2212 7.51182 91.2253C7.69524 91.2137 7.86763 91.3156 7.97746 91.4769C8.38904 92.093 9.05386 92.5122 9.7738 92.685C10.0974 92.7623 10.4754 92.7801 10.8349 92.7242C11.2394 92.6613 11.6483 92.5823 12.05 92.6291C12.0755 92.585 12.1051 92.5451 12.1465 92.5137C12.4121 92.3131 12.6737 92.1084 12.9392 91.9079C13.2754 91.6523 13.7511 91.8269 13.7641 92.2744C13.7816 92.8641 13.7747 93.4573 13.7351 94.0497C13.7013 94.5772 13.7209 95.2483 13.2162 95.5688C13.1996 95.5806 13.1791 95.5882 13.1625 95.5999C13.1732 95.6612 13.1755 95.7303 13.1824 95.7793C13.201 96.0074 13.1666 96.2381 13.0798 96.4513C12.8931 96.9099 12.5256 97.2786 12.0845 97.5031C11.5979 97.7508 11.0472 97.8059 10.5062 97.7962C10.2377 97.7935 9.9697 97.7704 9.69734 97.7594C9.4941 97.7502 9.24697 97.7073 9.07764 97.8046C8.9909 97.8552 8.91155 97.9345 8.8247 97.9892C8.70063 98.0673 8.56884 98.129 8.42933 98.1742C8.19535 98.2536 7.93415 98.2836 7.68608 98.2773C7.22248 98.2655 6.75749 98.148 6.3218 97.9987C4.64747 97.4318 3.18053 96.2321 2.33302 94.6783C1.87386 93.8538 1.50537 92.8243 1.60687 91.8758Z" fill="#A37356"/>
<path d="M1.20839 90.9102C1.30549 90.4534 1.66268 90.1699 2.07391 90.0015C2.11916 89.9823 2.16024 89.9671 2.20549 89.948C2.12175 89.8808 2.07157 89.7738 2.11169 89.6367C2.367 88.7206 2.72833 87.6364 3.64732 87.1843C4.07585 86.9757 4.54457 86.947 5.00234 87.0277C4.9968 86.926 5.03619 86.8172 5.14379 86.7468C5.61974 86.4338 6.1466 86.1992 6.69558 86.0547C7.16261 85.9324 7.73984 85.7967 8.20723 85.9793C8.41673 86.0619 8.60018 86.2088 8.66789 86.4259C8.75438 86.7045 8.62596 86.9532 8.48565 87.1895C8.19241 87.6778 7.8391 88.1281 7.45013 88.5409C7.53986 88.8521 7.51073 89.1968 7.36084 89.4897C7.46836 89.5819 7.56337 89.6859 7.64149 89.8139C7.88786 90.2062 7.92048 90.6826 7.92108 91.1378C8.40367 91.2029 8.88943 91.4632 9.1016 91.9197C9.14792 92.0185 9.17797 92.1168 9.19988 92.2149C9.61873 92.067 10.0415 92.2444 10.3307 92.5525C10.7297 92.2253 11.2954 92.2234 11.7583 92.4222C11.9555 92.0289 12.2053 91.6491 12.6288 91.477C13.0894 91.2896 13.6443 91.389 13.8972 91.8466C14.1501 92.3001 14.0093 92.8737 13.944 93.3597C13.8589 93.9875 13.7736 94.6194 13.6884 95.2472C13.668 95.4093 13.5546 95.5486 13.3756 95.5441C13.3593 95.5437 13.3431 95.5432 13.3228 95.5387C13.3934 95.8046 13.4598 96.0746 13.4773 96.3433C13.5255 97.1655 12.7157 97.4863 12.0555 97.6849C11.2353 97.9323 10.3679 97.955 9.53414 97.7793C9.48147 97.7698 9.44133 97.7485 9.40942 97.7233C9.25515 98.0283 9.10046 98.3495 8.79862 98.5369C8.49678 98.7243 8.1264 98.7271 7.78593 98.6737C6.91053 98.5336 6.05218 98.2029 5.25192 97.8289C5.20363 97.8074 5.16786 97.774 5.14846 97.7369C4.78955 97.7684 4.41738 97.6817 4.08774 97.523C3.5049 97.2399 3.09981 96.689 2.77177 96.1483C2.4673 95.6406 2.06772 95.033 2.27825 94.4368C2.05141 94.236 1.87763 93.8698 1.77666 93.6803C1.55541 93.2601 1.38391 92.8046 1.28591 92.3388C1.1875 91.8892 1.10722 91.3669 1.20839 90.9102ZM4.4182 87.5941C3.34189 87.6724 2.95284 88.8858 2.7066 89.7656C2.98562 89.6752 3.2685 89.5929 3.54711 89.5187C4.06335 89.3815 4.587 89.2729 5.11409 89.1887C5.55536 89.1187 6.0128 89.0531 6.45869 89.1213C6.58028 89.1407 6.6977 89.164 6.8147 89.2035C6.89632 89.0349 6.91745 88.8444 6.84484 88.6597C6.74563 88.4011 6.4722 88.2722 6.23923 88.1525C5.68903 87.8662 5.05822 87.5494 4.4182 87.5941ZM8.08158 86.598C8.04654 86.5361 7.88011 86.5197 7.81932 86.51C7.43381 86.4677 6.99933 86.5908 6.63835 86.7035C6.26507 86.82 5.91494 86.9859 5.58422 87.1888C5.84231 87.2807 6.09561 87.401 6.34485 87.5211C6.61015 87.6498 6.87941 87.7826 7.10218 87.9834C7.1101 87.9917 7.11407 87.9959 7.12199 88.0042C7.37324 87.7261 7.60447 87.4353 7.81192 87.1195C7.86706 87.0315 8.14 86.7011 8.08158 86.598ZM13.1301 94.7981C13.1754 94.4579 13.2207 94.1176 13.2701 93.7775C13.3302 93.336 13.4438 92.8715 13.4266 92.428C13.4146 92.0985 13.1958 91.9019 12.867 92.0317C12.5669 92.1501 12.3999 92.4751 12.2623 92.7642C12.6116 93.1104 12.8106 93.6032 12.9452 94.07C13.0123 94.3115 13.0712 94.5568 13.1301 94.7981ZM9.70765 97.1985C10.2824 97.3188 10.8845 97.3259 11.4612 97.2105C11.7435 97.1527 12.0263 97.0745 12.2896 96.9593C12.4994 96.8711 12.8155 96.7654 12.8586 96.5104C12.9061 96.2434 12.7837 95.9355 12.717 95.6777C12.6321 95.3382 12.5473 94.9946 12.4623 94.6551C12.3366 94.1602 12.2122 93.6124 11.8518 93.2252C11.5547 92.9047 10.9772 92.7315 10.6426 93.0888C10.6426 93.0888 10.6426 93.0888 10.6384 93.0928C10.6423 93.101 10.6461 93.1092 10.6459 93.1173C10.8629 93.8626 10.5475 94.7446 10.3259 95.4543C10.1399 96.0471 9.91755 96.6267 9.65905 97.1891C9.67928 97.1937 9.69149 97.194 9.70765 97.1985ZM7.42523 97.9777C7.68394 98.0452 7.95862 98.1254 8.22795 98.0956C8.51762 98.0664 8.64073 97.8663 8.76895 97.6257C9.08094 97.0403 9.34464 96.4333 9.56809 95.809C9.7829 95.2048 10.0028 94.5601 10.0883 93.9201C10.1284 93.6244 10.1332 93.275 9.94017 93.0262C9.78653 92.8272 9.55732 92.7198 9.31897 92.8113C9.26965 92.8304 9.22085 92.8291 9.17236 92.8157C9.09035 93.1591 8.90689 93.4918 8.71227 93.7835C7.84962 95.0581 6.89886 96.2776 5.9044 97.4553C6.39943 97.6712 6.90779 97.8426 7.42523 97.9777ZM2.99633 95.3208C3.27609 95.84 3.58317 96.4046 4.04966 96.7823C4.45232 97.1095 5.02617 97.2664 5.49681 97.002C6.21876 96.1384 6.91286 95.2497 7.57088 94.3397C7.99267 93.7571 9.34649 92.2105 8.05092 91.7914C7.57873 91.6372 7.10213 91.8161 6.68529 92.0453C6.13227 92.3482 5.61023 92.7129 5.07661 93.053C4.53883 93.3969 4.00115 93.7369 3.46336 94.0808C3.26484 94.2059 3.04589 94.3344 2.91068 94.5301C2.73325 94.7857 2.86834 95.0737 2.99633 95.3208ZM1.82211 91.8972C1.87765 92.2725 1.97397 92.6448 2.1197 92.994C2.19251 93.1706 2.27763 93.3435 2.37109 93.5085C2.41386 93.5868 2.4607 93.6652 2.5117 93.7396C2.52348 93.7562 2.54685 93.7974 2.57011 93.8427C2.61484 93.8439 2.65937 93.8531 2.69962 93.8704C2.8118 93.7798 2.93191 93.6975 3.04775 93.6232C3.35396 93.4237 3.66415 93.2284 3.97433 93.0331C4.63202 92.6149 5.28574 92.1926 5.94332 91.7785C6.35693 91.5167 6.81131 91.2519 7.30201 91.1587C7.29931 90.6262 7.25446 89.991 6.66955 89.7892C6.06452 89.5787 5.33973 89.7553 4.73048 89.8699C3.98213 90.0135 3.24453 90.2142 2.52581 90.4723C2.27526 90.5634 1.94286 90.6729 1.83039 90.9342C1.71334 91.2157 1.78066 91.6076 1.82211 91.8972Z" fill="#010202"/>
</svg>
