<svg width="169" height="489" fill="none" xmlns="http://www.w3.org/2000/svg"><path d="M76.3 69.4l-.3-.1.3.1zM113.3 54.7v-.2c.7-1.7-.3-4-2-4.9-1.8-.9-3.7-.6-5.3.7l-.1.2c-.1-4.7.1-9.4.3-14 .2-3.1-3.9-5.7-6.5-3.8-1.3 1-2.3 2.2-3.1 3.5l.7-1.6c1.2-3.2-2.5-6.2-5.4-5.4-3.6 1-6 4.4-6.1 8.1l-.5.3-.5.2-.1.1h-.3-.2v-.1h-.1l-.1-.1-.6-1.2-.1-.2-.1-.3c-.2-.2-.2-.4-.2-.6.1-.7.3-1.5.3-2.4.1-1.7-1.4-3.7-3.2-4.1-1.8-.4-3.2.2-4.4 1.5-.6.2-1.1.5-1.5.9-1.2 1.1-1.8 2.3-2.2 3.7l-.1.1-.7.3-.6.3c-2.5 1-5 2.1-7 3.9l.2-2.7c.1-2.3-2.1-4.5-4.4-4.4-2.4.1-4.2 1.9-4.4 4.4-.3 6.6 0 13.2 1.3 19.7l-.5-.6-1.3-2.4-.5-1.1-.2-.3V52l-.8-2.5c-.7-2.1-3.2-3.7-5.4-3-2.2.7-3.7 3-3 5.4 1.2 4.3 3.3 8.1 6.1 11.6 1 1.3 3 1.5 4.6 1 .7 9.3 5.2 18.3 12.8 23.5-.3 3.8 0 7.7 1.1 11.2l.5 1.6-.9 1.1c-.7 1.2-.8 2.8-.5 4.1.4 1.6 1.7 2.5 3 3.2 2.1 1 4.3 1.8 6.6 1.8 2.8-.1 5.3-1.3 7.1-3.3l.8.1c2.2-.1 4.5-1.9 4.3-4.3l-.2-3.3c-.1-1.2-.5-2.2-1.3-3l-.1-.2c-.1-1.7-.4-3.4-.8-5.1 2.5-.6 4.8-1.6 6.9-2.9 4.2-2.9 7.7-7 9.1-12h.1c2.9-3.4 4.2-7.5 3.7-11.9l.5-.5 4.5-4.8c1.3-1.4 1.7-3.5.8-5.1zM75 50.5l.1-.1h.1l-.3.2.1-.1zm9 22.4c-5.5-1.6-11.4-.3-15.9 3.1H68c.2-.3.3-.5.3-.8l.3-.7.1-.1.6-1.2.5-.8.2-.4 1-1 .6-.5.2-.2-.1.1.1-.1.2-.1.8-.5.2-.1.6-.2.6-.2.1-.1 1.1.1h.2l.4.1.3.1 1.5.6c.9.4 1.9.6 2.8.6 1.7-.1 3.1-.7 4.4-1.6l.4-.2h.4l.5.2h.2c.2 0 .3.2.5.3v.1l.6.5.4.5.3.6.2.6.2.7.4 1.9.1.4v.4l.1.5c-1.6-1.1-3.3-2.1-5.3-2.6zM71.8 70.3l.2-.1-.2.1zM89.3 75l-.1-.4.1.4zM72.7 187.2l-1.1-1.2c-.1-.5-.4-1-.6-1.4-2.6-4.4-8-3-12-1.8-3.7 1.2-7.1 2.8-10.5 4.6l-1.1.6c-.4 0-.6.2-.9.3l-.5.1-.2-1c-.1-1.8-1.2-3.7-3.1-4.1-1.8-.4-4.1.2-5 2-.9 1.9-1.1 3.9-.4 5.9l-.3 4.2v1.1l-.4 2-1 3.9-1.3 3.7-.1.2c-.2.3-.2.7-.4.9L33 209l-2 3.5-1.2 1.6-.5.9h-.1l-.2.3-.6.9c-.4.2-.8.6-1.2 1-1.2 1.6-1.2 4.3.4 5.8 1.4 1 2.8 2.2 4.4 3l.3.2 3.7 2.5c2 1.3 4.9.3 6-1.6.3-.6.4-1.2.5-1.9 1.5-1.7 2.7-4.1 3.9-6.1 2.6-4.1 5-8.5 7.4-12.8H57c1 0 2-.4 2.8-1.1 4-.2 8-1.4 11.3-3.8 1.5-1 2.4-2.8 2.1-4.5 1.4-3.2 1.7-6.9-.5-9.7zm-30.1 21.2l.5-1.4.2.2-.7 1.2zm2.8-20.3l-.1-.1-.2-.1c.2-.1.3.2.3.3v-.1zM156.9 273.2c-1.6-1-3.9-.7-5.3.7l-.1.1c-.5-1.9-2.3-3.2-4.2-3.3h-2l-.8-.1-.7-.1-3.5-.8c-2.2-.6-4.8.8-5.3 3.1-.6 2.2.7 4.6 3 5.3 1.6.5 3.1.9 4.8 1-.1 8.4 1.2 16.9 3.7 24.8.7 2.1 2.6 3.4 4.8 3.1 2.3-.3 3.5-2 3.7-4.3l.2-1.7c1 1 2.4 1.6 3.9 1.4 1.9-.2 3.4-1.7 3.7-3.6h.8c2.5-.1 4-1.9 4.4-4.3.8-8.5-3.8-17.1-11.1-21.3z" fill="#FFF1E1"/><path d="M43.5 236c-1-1.5-2.5-2.6-3.9-3.7-5-4.3-10.4-8-16.2-11.3l.9-2.8c1.1-3.6 1.9-7.2 2.5-10.9l3.3-22.4 1.4-8.9c6.3-9.3 6.9-22 2.2-32.2-1-2.2-2.3-4.3-3.9-6.1l1.2-1.6c1.3-1.8.3-4.9-1.6-5.9-1.9-1.1-3.7-.7-5.1.6-.7.2-1.3.6-1.9 1.1-5.9 5.3-9.4 12.6-11.6 20.1-2.1 7-3.2 14.4-4.1 21.7-2.2 10.1-3.5 20.4-3.8 30.8-.2 6.1-.1 12.2.5 18.2.6 6.2 1.1 12.5 3.8 18.1.8 1.6 1.8 3.2 3 4.4.3.5.8 1 1.3 1.4l1.2.9.6.5c.7.4 1.3.9 2 1.2l.8.4c1.2.5 2.4.9 3.7 1.2 5.5 1.2 11 .3 16-1.9 2.8-1.3 5.9-3.2 7.6-5.9 1.4-2.1 1.5-4.8.1-7zM160.4 267.4c-2.4-20.1-5.4-40.2-9-60.1-1.8-9.8-3.7-19.6-5.8-29.3-1.7-8.5-3.3-17-6.1-25.1-2.5-7.4-6.1-14.3-11.8-19.6l.7-1.8c.8-2.2-.9-4.9-3-5.4-2.4-.5-4.4.8-5.4 3l-.5 1.6c-1.2.8-1.8 2.1-1.8 3.5l-.1 1.8c-2.7 8.1-4.3 16.5-2.1 25 1.4 5 3.8 9.5 6.1 14l1.4 3.3.4.7.1.3v.1l.8 1.9 2.4 6.9c1.5 4.8 2.6 9.6 3.5 14.4l1.2 7.3.1.7v.4l.3 1.9.4 3.8c1 9.9 1.6 19.9 2.4 29.9.4 5.6 1.2 11.6 4.5 16.3-.8.8-1.3 1.9-1.2 3.1.1 2.5 1.9 4 4.3 4.3l13.8 1.4c2.2.3 4.6-2.2 4.4-4.3zm-10-6l-.4-.1-.7-.4-.5-.3c.8-.2 1.4-.6 1.9-1l.3 2-.4-.1-.2-.1z" fill="#fff"/><path d="M111.7 29.6l.1-.2c0-.7 0 .1-.1.2l.3-1.2v-.3l.3-.4.7-1.3c2-2.6-.6-6.7-3.7-6.4h-4.7H104.3l-.9-.3-.4-.1-.6-.4-.1-.2h-.1l-.2-.4v-.3c1.4-1.5 1.5-4 .2-5.6-1.4-1.9-3.6-2-5.6-1.2l-6.8 3v-4.2c-.1-2.3-2-4.4-4.4-4.3-2.4.1-4 1.8-4.3 4.2l-.1.1c0 .7 0 0 .1-.1l-.1.6-.2.6-.7 1.1-.1.1-.4.4-.6.6-1 .6-.4.1-.6.2h-.6l-1.1-.3h-.1l-.6-.2-.5-.4-.9-.9-.3-.5-.2-.3-.1-.2-.2-.6c-.1-2.3-1.8-4.5-4.3-4.3-2.3 0-4.4 1.9-4.3 4.3l-.1 1.3v.6c0 .3-.2.7 0 .2l-.1.3-.2.6-.4-.3-.1-.1-.7-.5-1.4-1.2-2.5-2.5-2.5-2.8-.5-.7-.1-.2L54 4.2c-1.3-1.8-3.8-2.9-6-1.5-2 1.3-2.5 3.7-1.5 5.9l4.3 9.2c.9 1.9 3.6 2.6 5.5 1.8l.4.4c-3.6 1.8-6.8 4.2-9.7 7-2.2 2.1-1.3 6.6 2 7.2 4.6 1 8.6-.9 12.3-3.7l1.6-1.1-.4 2.8c-.2 1.7 1.2 3.4 2.6 4 1.6.6 3.6.3 4.8-.9l7.3-8.2 2 5.3c.6 1.6 1.8 2.9 3.6 3.1 1.6.2 3.5-.5 4.2-2.1l4.2-7.6.4-.8.5 3.1c.4 2.6 1.3 5.2 3.3 7.1 1.6 1.4 4.6 1.8 6.2 0l.9-1.2.7 3.1.2 1.3.1.5v.2l.2 2.5c.1 1.9.1 3.7-.1 5.5-.1 2.2 1.8 4 3.8 4.3 2.1.3 4.2-1 4.8-3.1.5-2.1.7-4.3.5-6.5l-.2-3.1-.3-2.2-.2-.7v-.5-.3l-.1-.7-.2-1.3v-3-.4zM91.2 71c-1.9-2.3-4.6-3.9-7.4-4.8-2-.6-4.4.8-4.9 2.8l-.1 1.3c-.6-1.3-1.9-2.3-3.6-2.3h-3.7c-2.1 0-4.1 1.8-4 4 .1 2.1 1.7 4 4 4h3.7c2.1 0 4.1-1.9 4-4v-.2c.5 1 1.3 1.7 2.5 2.2l.6.1c-.7-.1 0 0 .2.1l1.3.8h.2c0 .2.2.3.4.4l1.1 1.3c1.4 1.6 4.3 1.5 5.7 0 1.5-1.7 1.4-3.9 0-5.7z" fill="#5B433F"/><path d="M104.7 114c-2.8-1.5-5.7-3-8.7-4.2-3-1.1-6.3-1.8-9.5-1.5-3.1.2-6 1.2-9 1.8l-1 .2-.2.1H74.9l-.7-.1-.7-.1-.2-.1-.2-.1-1.7-1.2c-1.8-1.4-4.1-1.8-6.4-1.2-1.8.4-3.4 1.6-5 2.7-2.7 1.7-5.6 3.5-8.6 4.9l-1.1.5-.3.2-.3.1-2.3.8c-1.4.5-2.9.9-4.4 1.2-.7-.4-1.6-.5-2.5-.2-2 .6-3.5 2.8-2.8 4.9C41 132.8 48.5 141.4 58 146c5 2.3 10.2 3.6 15.6 3.7 5.6.1 11-1.2 16.1-3.4 4.7-2.1 9-5.2 12.5-9 1.9-2 3.6-4.2 5-6.5 1.6-2.6 3.3-5.8 3.3-8.8 0-3.9-2.7-6.1-5.8-8zm-38.2 1.1l.5.2-.5-.2z" fill="#fff"/><path d="M66.7 149.3l-28.1-.7c-2.1 0-4.1 1.9-4 4 .1 2.2 1.8 4 4 4l28.1.7c2.1 0 4.1-1.9 4-4-.1-2.3-1.7-4-4-4zM66.5 171.6c-7.3-1.6-15-1.6-22.3.4-1.7.4-3 2.3-2.9 4l-.1 1.2.1 3.8c.1 2 1.8 4 4 4 7.8-.4 15.3-2.5 22.2-6.1 3-1.6 2.4-6.6-1-7.3z" fill="#839D57"/><path d="M62.1 156.2c-4.7.1-9.5.6-14.1 1.4-.3-.6-.8-1.2-1.6-1.6-1.7-1-4.6-.7-5.4 1.4-1.1 2.4-1.2 4.6 0 7 1 2 3 3.5 5.1 4.3 1.9.7 4.1.7 6.1.6l6.5-.4c4.3-.3 10.3.2 11.8-4.9 1.3-5-4.3-7.8-8.4-7.8zM63 203.2h-3.8c-2 0-4 1.8-3.9 4 .1 2.2 1.7 4 3.9 4H63c2 0 4-1.8 4-4-.1-2.2-1.8-4-4-4z" fill="#fff"/><path d="M74.6 447.2c1.4-.5 2.7-1.7 2.7-3.6-.2-18.8-2-37.6-5.3-56 .4-7.2 1-14.3 1.2-21.5.2-4.3.2-8.7.1-13.1-.2-2.7-.2-5.7-.7-8.5l-.2-.9c-.2-1.2-.6-2.3-1.1-3.4-2.3-4.7-7.7-5.9-12.5-6.4-4.1-.5-8.4-.2-12.4.8-.5-1.9-3.1-3.1-4.9-2.5-2.2.7-3.1 2.7-2.7 4.9l3.2 22c-.2.4-.3.9-.3 1.4-.7 8-.1 16.1.9 24.1 1.1 8.3 2.4 16.5 3.7 24.8l3.7 24.5 1.8 12c.6 3.6.9 7.3 2.1 10.8 1.2 3.7 3.3 6.9 6.5 9.2 3 2 7.2 2.8 10.6 1.4 2.3-.9 4-2.4 5-4.8.7-1.9.6-3.9.3-5.9-.4-3.1-1.1-6.2-1.7-9.3zM64.3 458.8h0zM136 453c-3.1-30.8-4.2-61.8-3.3-92.7.3-8.6.7-17.3 1.3-25.9.2-2.8-2.7-4.4-5-3.9l-29.2 5.7c-.8.2-1.5.6-2 1.3-2.1.8-2.8 2.7-2.5 4.8l7.7 55.5 3.8 27.7 1.9 13.9 1 7c.3 1.9.5 3.8 1.3 5.6 1.8 4.4 6 6.3 10.6 5.7 2-.2 3.9-.7 5.9-1.1h.5l1.2-.1h.6c.3.2.8.2 1.2.3 2.3.9 5.3-1.3 5-3.8z" fill="#F2B280"/><path d="M72.7 471c-.1-.5-.2-1-.4-1.3.1-1.1-.2-2.1-.8-2.9-1-1.2-2.7-2-4.2-1.5l-.7.3c-.6-.3-1.2-.6-2-.6l-4-.2h-1l-.6-.5c-1.6-1.5-4-1.5-5.6 0l-19.1 17.6c-2.9 2.6.1 7.9 3.9 6.6 11.2-3.7 22.1-8.3 32.6-13.5 1.4-.8 2.1-2.6 1.9-4zM147.4 477.4l-5.7-9.8c-1.7-3-3.3-6.2-5.7-8.7-2.4-2.7-5.7-4.1-9.4-3.5-1.6.3-3.1 1.1-4.3 2.1l-.8 1-.4-1.2c-.1-.5-.4-.9-.8-1.3l-.8-.6c-.6-.4-1.3-.6-2-.6l-1.1.2c-.7.2-1.2.5-1.7 1l-1 1c-.4.3-.7.8-.7 1.3-.3.4-.5.9-.4 1.5-.1.5.1 1 .4 1.5v.2l.9 1.5c7.8 9.1 16.8 17 26.6 23.8 1.4 1 3.7.6 4.8-.6.9-1 1.3-2.4 1.1-3.7 1.5-1.2 2-3.3 1-5.1z" fill="#5B433F"/><path d="M81 156.4l-.3.2.3-.2z" fill="#A51B18"/><path d="M143.7 318.9c-2.9-26.9-6.3-53.6-10.1-80.3-1.9-12.8-3.8-25.6-6.6-38.2-1.3-6.3-2.8-12.5-4.6-18.7-1.8-6.1-4.1-12.1-5.9-18.2-1-3.6-1.5-6.3-1.6-9.8-.1-1.7.1-3.5.1-5.3l.7-4.7c1.3-7.2 3.9-14.1 6.4-21 .7-1.7-.4-3.6-1.8-4.5-4.2-2.9-10.1-1-13.3 2.6-2.8 3.3-3.9 7.6-6.1 11.3l-1.5 2.4-.9 1.1v.1c-.2.3-.5.5-.6.8-1.3 1.5-2.7 3-4.2 4.3l-1.1.9-.6.5-.1.1-2.3 1.7c-1.6 1-3.4 2-5.1 2.7l-.5.3h-.2l-1.3.5-3.2 1.1c-2.7.9-5 2.3-6.6 4.7-1.2 1.9-1.7 4.3-2.1 6.5-.5 2.7-.7 5.4-.6 8.2 0 5.2 1.1 10.1 2.6 15 .7 2.4 1.4 4.7 1.9 7l.1.9.1.5.1.7v3.2l-.1.6-.4 1.5-.3.6-.2.6c-.3.8-.8 1.6-1.2 2.3l-.4.5c0 .1-.7.9-.2.2l-.9 1.2-2.3 2.2-.5.4-.3.3-.4.3-.8.6-2.8 1.7c-1.4.9-2.9 1.7-4.4 2.4-.6-1.1-1.9-1.9-3.3-1.8-2.1.1-4 1.7-4 4v.6l-.2.7-.1.2.2-.2-.2.2c0 .1-.1.3 0 0v.2l-.7 1.1-2.8 4c-2.3 3.3-3.1 7.1-3 11.1l.3 5.8v3.2l-.4 1.4c0 .3-.6 1.4-.1.5-.1.3-.3.5-.3.8l-.6.8-.3.4-1.4 1.4-.7.7-.4.2v.1c-4.8 3.5-10.9 6.5-13.5 12.2-1.9 4.3-1.9 9.1-2.1 13.7l-.6 13.4c-.4 9.1-.5 18.2-.5 27.2-.1 4.4-.8 9.8 2.5 13.3 1.6 1.5 3.6 2.4 5.6 3.1l5.5 2c15.2 5 31.2 7.2 47.1 6.7 16-.6 32-3.7 46.8-9.7l6-2.6c1-.4 1.6-1.4 1.9-2.6 1.7-.3 3.6-1.9 3.4-3.9z" fill="#E26E6B"/><path d="M58.1 144.2c-1.3-.2-2.6-.6-3.9-1.1l-.9-.3h-.1l-.1-.1-1.6-.7-3.5-2.2-.5-.4-.5-.4-1.4-1.3c-1-.9-1.8-1.9-2.6-2.9l-.1-.1-.1-.1-.6-.9-1-1.5-.9-1.6-.4-1-.3-.6-1.1-3.5c-.5-2-2.9-3.5-4.9-2.8-1.6.5-2.6 1.7-2.9 3.1-.7 1-1.1 2.2-.7 3.6.7 3.6 1.6 7.2 2.4 10.7.8 3.4 1.6 7 4.5 9.3 2.7 2.1 6 2.9 9.4 2.9 1.7 0 3.2-.3 4.8-.3.9-.2 1.8-.2 2.7-.2h1.8l.4.2c2.1.3 4.5-.6 5-2.9.4-2-.7-4.4-2.9-4.9zM39.7 167.7c-1.9-.5-4.6.6-4.9 2.8l-1.2 7.5c-.3 2 .5 4.3 2.8 4.8 1.9.5 4.6-.6 4.9-2.8l1.2-7.4c.3-2.1-.5-4.4-2.8-4.9z" fill="#A51B18"/><path d="M93.7 74.1c-2.4-3.6-6-6.2-10.3-7.3-.7-.1-1.2.2-1.4.8l-2.7.9h-.1c-.2-8.7-.1-17.5.3-26.2 0-1.7-2.5-1.7-2.6 0-.3 7.7-.4 15.4-.3 23.1-4.5-1-9.2 4.3-11.7 7.2-.7.8-.4 1.8.5 2.2 4.7 1.7 10.8 1.3 13.8-3 3.8 3.5 8.8 6.5 14.1 4.1.5-.3.7-1.3.4-1.8zm-25.6-1.2c1.1-1.2 2.3-2.2 3.5-3.3 1.4-1.1 3.4-2.2 5-1.4l.1 2.2v.3c-2 2.5-5.5 2.8-8.6 2.2zm13.4-2.4l1.9-.7.4-.2c2.6.8 5 2.4 6.7 4.4-3.3.8-6.5-1.3-9-3.5zM65 49.5l-.8-.5-.2-.3c-.5-.4-1.4-.5-1.8 0-.7.8-1 1.9-.6 2.9.2.6.5 1.1 1 1.4.7.4 1.5.1 2.1-.3 1-.8 1.2-2.4.3-3.2zM96.2 49.5l-.2-.2-.3-.2c-.4-.4-1-.5-1.6-.1-1 .4-1.3 1.7-.9 2.7.3.8 1.1 1.3 1.9 1 .7-.2 1.3-.7 1.5-1.3.2-.7.1-1.4-.4-1.9zM79.5 79.9c-.1 2.2-3.1 2-3.5 0-.3-1.6-2.7-.9-2.4.7.4 2.1 2.4 3.7 4.5 3.5 2.3-.1 3.9-2.1 4-4.2.1-1.7-2.5-1.7-2.6 0z" fill="#010202"/><path d="M167.6 290c-.3-3.1-1.1-6.2-2.3-9.2-1.3-3.2-3.1-6.1-5.3-8.8.6-.7 1-1.6 1.2-2.4.7-2.1.5-4.3-.2-6.3v-.7l-8.2-63.8c-2.5-19.2-5.3-38.8-14.3-56.2-4.4-8.6-10.3-16.5-17.7-22.6l-.2-.5c-.8-1.3-2.6-1.5-4-1.9l-5.3-1.4-.5-.1c-1-.7-2.4-1.2-3.6-1.6-2.8-1.2-5.8-2.1-8.7-3-2-1.7-4.1-3.2-6.5-4.2l-.3-.1v-.4l-1.3-14.2c4.7-1.6 8.9-4.4 12-8.3 4.1-5.3 5.6-11.8 5.7-18.3 1.1-.3 2.2-1.2 2.9-1.9 1.8-1.5 3.1-3.4 4-5.4.8-2.1 1.3-4.6 1-6.8-.4-2.1-2.2-3.6-4.3-3.1 1.1-6 .4-12.4-.4-18.5 3.8-1 5.6-6 3.5-9.5-2.2-3.8-6.6-4.7-10.6-3.7.9-2.8 1.1-6.1-1.8-7.7-1.8-1.1-4.1-.7-6 .2-1.2.6-2.2 1.4-3.3 2.2 0-.8-.1-1.8-.5-2.6-1-2.2-3.1-3.6-5.6-3.8-4.8-.4-8 3.3-10.2 7.3-.5-1.5-1-3-1.8-4.3-1-2.2-2.5-4.8-5.3-4.2-2.2.5-4.2 2.4-5.5 4.2-.7.9-1.2 1.9-1.6 3-1.4-2.3-3-4.4-4.9-6.4C56 3.3 51-1.7 49.3 2.6c-1.3 3.1-.9 7.2-.1 10.4.8 3 2.5 5.6 4.6 7.8-2.6 1.6-4.8 3.7-6.5 6.2-1.9 2.5-3.3 6.7-.3 9 1.9 1.3 4.4 1.3 6.8.8-.4 4.2-.7 8.5-.8 12.8l-2-1.4c-1.2-.8-2.5-1.6-3.8-.9-2.5 1.3-2.3 4.8-1.9 7.1.7 4.6 2.9 11.3 8.5 11.2 1 7.8 3.7 15.1 9.5 20.6.9.9 2 1.8 3.1 2.6l-.2.7c.2 5.3.1 10.5-.2 15.8-.7 0-1.4 0-2 .4-1 .5-1.8 1.3-2.5 2.1l-.7.7-.6.1-15.6 7.4-3.8 1.8c-1.1.6-2.4 1-3.5 1.8v.1c-1.7.5-3.3 1.3-4.9 2-1.4.7-3.3 1.5-4.1 2.9l-.2.2c-.3-.1-.6 0-.9.2-20.4 14.1-23.4 41.1-25.6 63.8-1.2 13.2-1.7 26.7.1 39.9 1.5 10.7 5.9 22.7 17 26.7 5.1 1.9 11.1 1.4 15.9-1.3l2.9 19.4c.2.8 1 1 1.6.9l32.9-4.9c5.4-.9 10.8-1.8 16.3-1.7 5.3.1 10.6 1.2 15.9 1.9 6.2.7 12.4.5 18.6.2.7-.1 1.3-.6 1.3-1.3l.6-19.2.3-9.8v-4.7c.1-1.3.4-3-.2-4.3-1-2-3.9-1.8-5.8-2.3-2.2-.7-4.3-2-6-3.5-3.7-3.3-6.2-7.7-7.5-12.4-1.8-6.4-1.7-13.2-1.7-19.8 0-.7-.6-1.3-1.3-1.3-8.5-.3-17-.1-25.5.4l-2.5-1 2.2-2.2c.4-.5.6-1.3 0-1.8-1.7-1.5-3.7-2.3-5.9-2.6.4-.3.9-.6 1.2-1 .7-1 1.1-2.5.4-3.6-.3-.5-.6-.7-.9-.9.5-7.1.8-14.1 1.1-21.2 1.1-.1 2.1-.9 2.4-2 .5-1.5-.4-3.2-1.7-3.9-1.6-1-3.6-.7-5.4-.5h-6.6c-4.4 0-8.8-.4-13.2-.4-2.1 0-4.4.1-6.6.4-.9 0-1.8.1-2.6.4l-.7-.2c.4 0 0-.4-.2-.6l-.4-1-1.1-2.1-1.8-4.1c-1.1-2.8-2-5.8-2.7-8.7l-1-4.3-.4-2.4c-.1-.4-.4-1.3-.2-1.9.2-.6 1.1-1 1.6-1.3l2-1.1 2.3-1c.2 1 .7 2 1 2.9 3.3 8.3 8.2 16.6 16.3 20.9 4.4 2.4 9.4 3.4 14.4 3.9 2.4.3 5 .5 7.5.6 1.3.1 2.5.2 3.8.1.5.5 1.4.4 1.9-.1l2.4-.6c4.6-1.4 8.7-4.4 12.4-7.4 3.4-3 6.5-6.4 9.2-10.1 1.4-2.2 2.8-4.4 3.9-6.7l1.5-3.3c.5-1.3 1.2-2.6 1.4-3.9l3 .9c.8.1 1.5.4 2.3.6l.8.2.2.5v.2c-.1 3-.7 6-1.3 9-1 5.7-2.4 11.4-3.2 17.2-.7 5.7-.6 11.7 1.2 17.3 1.8 5.5 4.8 10.5 6.7 16 4.2 11.5 5.7 23.8 7.4 35.9 1.9 12.7 3.5 25.6 4.9 38.4 1.6 14.3 3 28.7 4.4 43l.2.5v.3l1.6 22c.1.5.1 1.1-.2 1.7-.4.6-1 1-1.6 1.3-1.2 1-2.5 1.7-3.8 2.5-2.6 1.3-5.3 2.4-8.1 3.2-5.7 1.7-11.6 2.5-17.5 3.1L89.2 335c-7 .6-14 1.2-21.1.7-7.1-.5-14-1.8-20.8-3.6l-10-2.7-4.7-1.4c-1.5-.5-3.2-.8-4.6-1.6-1.3-.8-1-2.4-1-3.7V317l.2-10.7c.3-16.2.8-32.3 1.5-48.6 0-1.7-2.6-1.7-2.7 0-.6 15.3-1 30.6-1.3 45.8l-.2 11.2-.1 5.2c0 1.8-.2 3.7.1 5.5.5 3.3 3.9 3.9 6.5 4.7l6 1.9c1.5 19.1 3.3 38.3 5.4 57.4 2.1 19.3 4.4 38.6 7.1 58 .5 4 1 8.2 2.9 11.8l1.6 2.3c-7.8 6.7-15 14.1-21.5 22.1-.6.8-.5 1.9.5 2.2 4.4 1.4 9 .9 13.4-.2 4-1 7.8-2.5 11.6-4.2 7.4-3.5 14.3-8.4 20-14.3.6-.6.4-1.4-.1-1.8.8-1 1.1-2.1 1.3-3.4.2-2.2-.2-4.4-.5-6.6l-.7-7.4c-.5-4.8-1-9.6-1.3-14.4-.7-9.8-1.3-19.6-1.7-29.5-1-19.5-1.2-39-.7-58.6l.2-7c3.5 0 7-.2 10.5-.5l8.7-.9c2.3 15.6 4.6 31.2 6.7 46.8 2 15.6 3.9 31.1 5.6 46.7 1 8.8 2 17.7 2.8 26.5.2.8.6 1.3 1.2 1.3 6.2 8.7 14 16.3 22.9 22 2.2 1.5 4.5 2.8 6.9 4 2 1 4.4 2.3 6.7 1.7 2.5-.7 2.9-3.4 2.1-5.6-1-2.7-2.3-5.4-3.6-7.9-2.9-5.8-6.3-11.5-10.1-16.7.5-.4.9-.9 1.3-1.6 1-1.8.9-4 .8-6l-.1-7.8-.4-15.2-1.5-61.4-.9-34.2.4-.2c1.5-.8 3.1-1.6 4.5-2.6 1.3-.8 2.7-1.8 3.3-3.1.9-1.6.4-3.7.2-5.5l-.5-6.1c-.2-4.4-.5-8.7-.9-13.1l-.1-.6v-.1l-1.8-17.5.4-.2 1.4-.9c.9.9 1.2 2.4 1.5 3.6.6 1.9 1.2 3.8 1.6 5.7.9 4 1.7 8 2.1 12l.4 5.9c.1 1.5.1 3.4 2 3.7 3.2.6 3.7-3.6 3.9-6.4l.1 1.8c0 .6.5 1.2 1.3 1.2 1.7 0 2.7-1.2 3.3-2.5v.1c.2 1.2 1.2 2.2 2.5 2 1.3-.4 1.9-1.8 2.2-3l.7-3.1c.4.4.8.8 1.5.8 1.4.2 2.4-.9 2.9-2.1.4-1.4.5-3 .6-4.4v-5zM48 55.3c-.1-.9-.4-1.8-.4-2.7-.1-.5-.2-2.5.6-2.8.5-.2 2.1 1.1 2.5 1.4l2.2 1.6c.1 3.5.3 6.9.6 10.3-3.6-.4-4.8-4.8-5.5-7.8zM79 197.4c-.6-.5-1.2-.9-2-1.3.7-.5 1.2-1.1 1.6-1.9 7.5-.4 15.1-.5 22.6-.4 0 10.5.4 21.6 7.4 30.1 2.9 3.6 6.9 6.4 11.5 7.3l1.4.2c.7.1.9.2 1.1.8.1.7-.1 1.5-.1 2.2v2.8l-.3 9.6-.6 20.5c-5.1.3-10.2.5-15.3 0-5.3-.4-10.7-1.7-16.1-2-5.4-.3-10.9.5-16.2 1.3l-16.6 2.5-17.4 2.6-3-19.1c4.5-3.5 7.2-8.6 7.6-14.3v-.3c1.9-1.3 2.2-3.9 1.3-5.8-.6-1.3-1.7-2.2-2.9-2.8 2.6-3.1 5-6.5 7.1-10.1 1.1-1.9 2.1-3.9 2.9-5.9l.4-.8 11.6-.8c1.5-.2 2.8-.6 3.4-2 .6-1.8 1-3.8 1.5-5.5l.1-.2c3-1.3 6-2.8 8.8-4.7.6-.4.8-1.4.2-2zm-36.5 39.4c-4.8-1.1-9.5-2.5-14-4.2-2.5-1-4.9-2-7.3-3.2-2-1-4.1-2.2-5.1-4.4-.7-1.7-.7-4 1.1-5.1 1.8-1 4.1-.5 5.8.5l1.1.8.7.5 3.4 3.1c1.8 1.6 3.8 3 5.9 4 2.3 1.2 4.7 1.7 7.1 2.6.9.4 2 1 2.4 2 .4.8.4 1.9-.5 2.4-.4.2-.6.6-.6 1zM54.4 210c.3-.6.6-1.1 1.1-1.5.7-.5 1.8-.7 2.7-.9 1-.1 1.9-.3 2.8-.6 2-.4 4-1 5.9-1.7l-.8 3c-.1.7-.3.8-1 .9l-2.4.2-8.3.6zm19.4-22.2c-1.1 1.2-2.4 2.1-3.8 2.8l-.3.2c-4.1-.2-8.2.1-12.3.6-1.7.3-1 2.7.6 2.6 4.1-.7 8.2-.8 12.3-.6.5 0 .8-.2 1-.4 1.5-.1 3 .2 4.3.9l.1.1c-.7.6-1.4 1.1-2.3 1.4-4.9.7-9.8 1.7-14.6 3.1-1.6.5-.8 3 .7 2.5 4.3-1.2 8.6-2.2 13-2.8.2.1.5.1.8 0 .7-.2 1.7-.2 2.4.1-3.2 1.9-6.7 3.5-10.2 4.7-1.9.7-3.9 1.3-5.9 1.7-1.9.5-4.1.5-5.6 1.8-1.6 1.2-2.1 3.1-2.9 4.8-.7 1.9-1.6 3.7-2.6 5.7-2.1 3.8-4.7 7.4-7.5 10.7-.3.3-.4.6-.4.8l-.8-.2c-2.8-.9-5.3-2-7.8-3.7-1.8-1.3-3.3-3-5-4.4 3.5-6.3 6.5-13 8.6-19.8 1.1-3.6 2.1-7.4 2.8-11.1.4-2.1.6-5 2-6.8l.3 3.8c-1.4.7-.7 3 .8 2.4 6.2-2.2 12.4-4.1 18.7-5.7l8.6-2c0 .6.4.8.8 1l-.8.6c-.8.5-1.4 1.1-1.8 1.9l-11.7 1.3c-1.6.2-1.6 2.8 0 2.6L68 187l.5-.2c1.8-.4 3.7 0 5.3 1zm-31.6-18h-.3l-.5-6-.4-3.7c0-.5-.2-1.3 0-1.8v-.1l.4-.2h.3c5-.3 9.9-.2 14.8-.3l13.5-.2-.5 11.6h-.1c-9.1-.3-18.2-.1-27.2.7zm27.1 1.8l-.5 6.8-.4.1-5.4 1.2c-6.7 1.6-13.3 3.5-19.8 5.7L42 172.3h.2c9-.7 18.1-.9 27.1-.7zM39.4 154c1.6-.5 3.2-.6 4.8-.7 3.5-.3 7-.1 10.4 0 3.5.2 7 .4 10.5.3l4.9-.3c.7 0 1.6 0 2.2.6.4.4.5 1.1-.2.9-.4-.1-.7 0-1 .1l-24.9.4c-1.8 0-3.9-.3-5.6.2l-.9.3c-.7.2-1.5.2-2.2.1-.1-1 1.2-1.8 2-1.9zm-.9 6.3l.9 11.5.6 7.5c-2.5 1.7-3.3 4.7-3.9 7.4-.6 3.3-1.3 6.7-2.2 10 2.3-12 3.9-24.2 4.6-36.4zm-5.7-14.8l2.2 4.9 1.3 2.3c-1.1 1.1-1.8 2.7-1.3 4.3.2.6.6 1 1 1.2v.2c-1 18.2-3.7 36.2-8.2 53.9v.7c-.9 1.8-1.8 3.7-2.9 5.6-1.9-1.3-4.2-2.1-6.6-1.7-2.3.3-4.4 1.9-5 4.2-.3 1.2-.3 2.3-.1 3.3-1.2-.5-2.2-1.3-3.2-2.2-1.1-1.2-3 .6-1.8 1.8 1 1 2.2 2 3.5 2.6l-.6.7c-1 1.3.9 3.1 1.9 1.8.5-.7 1-1.1 1.8-1.4 1.9 2.3 5.1 4 7.7 5.2 6.2 2.7 12.7 4.9 19.4 6.4-.6 4.6-3.1 8.8-6.8 11.5-4.1 3-9.6 3.9-14.5 2.5-10.7-3.1-14.8-15-16.2-24.9-1.8-12.3-1.4-24.7-.4-37 1-11.9 2.2-24.1 5.6-35.5 3.2-10.9 9-21.5 18.4-28.2l.2 1.5c.3 1.9.6 3.8 1.1 5.6.9 3.6 2 7.2 3.5 10.7zm57.9-36c1.6.5 3.1 1.7 4.4 2.7l1.7 1.3.2.2c-5-.2-9.9-1-14.7-2.2l2.5-.8c1.8-.7 4-1.7 5.9-1.2zM68.8 90.3c4.4 2.5 9.5 3.9 14.6 3.7l4.6-.7 1.1 13.4.1.1c-.9.1-1.7.2-2.5.5l-6.2 2-1.7.6-7.6-2.9-2.8-1 .3-.7c.3-5 .3-10 .1-15zm43.6-39.1c1.2-.5 1.1 2.8 1 3.3-.1 1.2-.4 2.5-1 3.6-.5 1.2-1.3 2.3-2.1 3.2-.4.5-.8.9-1.3 1.2l-.9.6-.1.1c0-1.5-.1-2.9-.3-4.3l.3-.3c1.5-2.3 2.5-4.8 3.2-7.4.3.2.8.2 1.2 0zM49.2 34.1c-2.9-1.1-.4-5.1.8-6.5 1.8-2.3 4-4.1 6.6-5.4 1-.5.8-1.5.2-2.1l-.3-.2c-4.1-3.7-6.2-9.5-5.2-14.9l.2-1c.2-.5.1-.5.5-.3.7.3 1.3.9 1.8 1.3l3.1 3c2.1 2.3 3.7 4.9 5.1 7.6.6 1.3 2.2.5 2.3-.6.3-3.2 2.5-7 5.7-8.2 1-.4 1.5.6 2 1.4.5.8 1 1.7 1.3 2.6.9 1.9 1.4 3.9 1.7 6 .2 1 2 1.2 2.4.2 1.6-3.5 3.6-8 7.9-8.9 1.7-.4 3.5-.1 4.5 1.4.9 1.2 1.1 3 0 4.1-.9.9 0 2.5 1.2 2.1 1.7-.5 3.1-1.5 4.5-2.5 1.3-.9 2.9-2 4.7-1.8 3.6.4 1.6 5.4.6 7.2-.5 1.2.6 2.4 1.8 1.8 3.1-1.5 7.4-1.8 9.6 1.2.9 1.2 1.3 2.7.8 4.1-.7 1.3-2 2.3-3.4 2.3s-1.6 1.5-.9 2.3c1.1 7.9 2 16.5-1.3 23.9-.1-9-.9-18-2.4-26.9v-.1c-.2-1.2-1.9-1.8-2.4-.6-.9 1.9-1.2 4-1.9 6-.5 1.4-1.8 3.4-3.6 3.1-1.7-.3-2.1-3.4-2.4-4.7-.5-2.4-.7-4.9-.7-7.3.1-1.6-2-1.7-2.5-.4-.8 2.2-1.8 4.3-2.9 6.3-.9 1.7-2 4.1-3.6 5.3-1.7 1.1-3.5-.8-4-2.3-.8-2.1-.6-4.6-1.1-6.8-.3-1-1.9-1.2-2.4-.3-2.2 4-5.3 7.5-9.1 10.2-1.4.9-4.2 2.7-4.4-.2 0-1 .5-2 1-2.9.4-1.1.8-2.1.9-3.3.1-1.2-1.5-1.7-2.2-.9-1.9 2-4.3 3.6-6.9 4.7-2.1.9-5.3 1.9-7.6 1zM66 85.2C60.2 80 57.3 73 56.4 65.3c-1.2-9.6-.9-19.6 0-29.3h.2c2-.8 3.8-1.7 5.4-2.9-.4 1.2-.7 2.4-.3 3.7.8 2.9 3.7 3.4 6.1 2.2 2.5-1.2 4.9-3.3 6.8-5.3 1.2-1.2 2.3-2.5 3.3-3.9.1 1.7.4 3.4 1.2 4.9 1.2 2 3.6 3.7 5.9 2.9 2.6-.7 3.9-3.4 5-5.4l1.8-3.2.7 3.9c.6 2.1 1.5 4.7 4 5.2 2.2.5 4.3-.9 5.6-2.7.6-.7.9-1.5 1.2-2.4 1.2 8.4 1.7 17 1.5 25.5 0 .5.2.8.4 1l.4 4.8v.2c.1 5.7-.9 11.5-4 16.5-2.6 4.2-6.9 7.4-11.7 9-.7-.6-2.1-.4-2.2.7-.9.3-1.9.4-2.9.5-6.8.8-13.6-1.6-18.8-6zm-5.5 27.4l2.2-2.4c.7-.7 1.5-1.6 2.3-2.2 1-.5 2.2.3 3.1.6l3.3 1.2 3.5 1.3-6.9 2.2c-3.2 1-6.5 2.1-9.8 2.4l2.3-3.1zM79 148.5c-2.7.2-5.4-.1-8-.3-4.5-.4-9-1-13-2.5-8-3-13.2-9.9-16.7-17.4l-1.4-3.2c-.3-.5-.4-1.1-.7-1.5-.2-.5-.5-1.1-.4-1.6v-.2l.4-.4c.8-.6 2.2-1 2.8-1.4l3.7-1.7L57 113c-.9 1-1.6 2.2-2.4 3.4-.6.8.2 1.9 1.1 1.9 3.9.1 7.7-.8 11.4-2l9.5-3c1.7 11.7 2.4 23.5 2.4 35.2zm30.1-28.9c-1.3 3.9-3.2 7.5-5.5 10.9-4.4 6.8-10.9 13.1-18.3 16.5-1.3.7-2.5 1-3.8 1.3.1-11.8-.7-23.4-2.3-35 6.8 2 14 3.1 21.2 3.1.7 0 1.2-.6 1.2-1.2l3.1 1 3.3 1.3c.4.1 1 .3 1.2.5.4.5.1 1.1-.1 1.6zM57.3 478.8c-3.5 1.7-7.1 3-10.8 4.1-3.5.9-7.3 1.5-10.9.8 6.2-7.4 13-14.2 20.3-20.4 1.4 1 3 1.9 4.7 2.4 3.4 1.2 7.4 1.5 11.1 1.6l2.5-.1c-5 4.7-10.7 8.6-16.9 11.6zm18.4-27.7l.7 6.9c.1 1.7.6 4-.4 5.5-1 1.4-3.2 1.3-4.8 1.2l-5.2-.4c-3.5-.5-7.2-1.5-9.7-4.1-2.6-2.7-3.3-6.6-3.9-10.2-2.8-18.5-4.9-37.2-7-55.8-2-18.7-3.8-37.4-5.4-56.2 0-1.8-.2-3.5-.4-5.3l2.2.6c6.9 1.9 13.9 3.5 20.9 4.4 3.1.3 6.1.6 9.2.6-.6 18.8-.6 37.6.1 56.4.6 18.8 1.8 37.7 3.7 56.4zm65.2 18.9c1.3 2.3 2.5 4.7 3.6 7.1l1.5 3.6c.3.8 1 2.3-.2 2.7-1.7.6-4.1-1.1-5.5-1.8L134 478c-4-2.7-7.8-5.6-11.3-9-3.4-3.2-6.6-6.8-9.4-10.6 4.1 0 8.2-.1 12.2-.4 2.2-.1 4.9-.1 7.2-1 3 4.2 5.7 8.5 8.2 13zm-6.4-22.4c.1 2.1.5 4.9-1.4 6.4-1.7 1.2-4.2 1.2-6.2 1.3-5.2.4-10.4.6-15.6.4-1.5-15.3-3.3-30.6-5.1-45.8-1.9-15.8-3.9-31.5-6.2-47.2-1.2-8.7-2.4-17.3-3.8-26l10-1.1c6.3-.6 12.6-1.3 18.8-2.8 2.2-.6 4.4-1.3 6.5-2.2l1.5 57.7 1.5 59.3zm2.3-190.3c-1.4-12.5-2.8-24.9-4.6-37.3-1.8-12.4-3.2-25-7-37-1.9-5.7-4.8-11-7-16.6-2.2-5.7-2.6-11.6-2-17.6.8-6.7 2.5-13.2 3.7-19.8l.7-5 .1-.7c12.6 11.2 19.8 27 23.9 43.1 2.4 9.8 4 19.8 5.3 29.7l4.1 31.2 4.3 34c-7.2-.6-14.3-2-21.3-4h-.2zm.2 2.7c7 2 14.1 3.3 21.3 3.8.9 1.8 1 3.9.2 5.7-.5 1.2-1.2 1.2-2.4 1.1l-3.4-.4c-4.7-.6-9.4-1.5-14.1-2.6h-.7l-.9-7.6zm28 35.9l-.4 2.3-.1.2c-.1-.7.1-1.4.1-2l-.2-3.1c-.3-1.8-.7-3.5-1.4-5.3-.5-1.2-2.8-1.2-2.6.4.3 2.6.4 5.2.2 7.9-.1 1.3-.3 2.7-.6 3.9 0 .8-.3 1.4-.5 2.1l-.1-1-.5-4.1-1.1-8.5c-.2-1.6-2.8-1.7-2.5 0 .3 3 .6 5.9.5 8.8 0 1.5-.1 2.9-.4 4.3l-.4 1.5c-.5-5.3-1.5-10.3-3.1-15.3-.4-1.4-2.7-1.2-2.6.3.5 4.7 1 9.4.7 14.2 0 1.2-.2 2.5-.4 3.7 0 .4 0 .8-.2 1.1v.3l-.1-.2c.2-1.1-.1-2.4-.2-3.4-.1-1.2-.1-2.3-.3-3.4-.4-4.4-1.2-8.8-2.3-13.2-.5-2.1-1.2-4.2-1.9-6.4-.6-1.6-1.3-3.2-2.9-4.1-.3-.2-.9-.3-1.3 0l-1.4.9-.8-7.7c5.8 1.4 11.8 2.4 17.8 3l1.8.1.2.3c4.2 4.9 6.7 11.2 7 17.6v4.8z" fill="#010202"/></svg>