<svg xmlns="http://www.w3.org/2000/svg" width="98" height="81" fill="none" viewBox="0 0 98 81"><g clip-path="url(#a)" opacity=".7"><path fill="#7D6F5D" fill-rule="evenodd" d="M6.54 9.818A3.267 3.267 0 0 1 9.8 6.545h36.314L6.54 28.988V9.818zm0 19.64v22.906h84.92V9.818a3.267 3.267 0 0 0-3.26-3.273H46.944L6.539 29.458zM49 65.454c.866 0 1.697-.344 2.31-.958a3.276 3.276 0 0 0-1.06-5.338 3.261 3.261 0 0 0-3.56.71A3.274 3.274 0 0 0 49 65.454zM9.8 0C4.378 0-.006 4.401-.006 9.818v52.364C-.006 67.598 4.379 72 9.8 72h30.625l-.817 6.546H26.133A3.274 3.274 0 0 0 22.963 81h52.073a3.274 3.274 0 0 0-3.17-2.454H58.393L57.575 72H88.2c5.421 0 9.806-4.401 9.806-9.818V9.818C98.006 4.401 93.621 0 88.2 0H9.8zm38.792 20.454l7.426 4.296v8.59l-7.426 4.296-7.426-4.295V24.75l7.426-4.296z" clip-rule="evenodd"/></g><defs><clipPath id="a"><path fill="#fff" d="M0 0h98v81H0z"/></clipPath></defs></svg>