<svg width="77" height="90" fill="none" xmlns="http://www.w3.org/2000/svg"><g opacity=".45" fill="#CFCCC7"><path fill-rule="evenodd" clip-rule="evenodd" d="M71.37 63.08c-4.06 6.33-24.47 5.75-32.9 5.75-8.45 0-27.06 0-32.92-5.75C.39 57.95 0 40 0 34.42c0-5.6.4-23.54 5.55-28.6C11.4 0 30.02 0 38.46 0c8.44 0 27.05 0 32.91 5.83 5.16 5.05 5.63 23 5.63 28.59s-.47 23.53-5.63 28.66zM67.31 9.87c-3.52-3.5-17.75-4.12-28.85-4.12-11.1 0-25.33.62-28.77 4.12-2.73 2.72-3.98 15.3-3.98 24.55 0 9.24 1.25 21.83 3.98 24.55 3.44 3.49 17.67 4.19 28.77 4.19 11.1 0 25.33-.7 28.85-4.2 2.73-2.71 3.9-15.3 3.9-24.54 0-9.25-1.17-21.83-3.9-24.55zm-5.94 32H15.56l-2.82-22.06 14 9.63 11.72-11.73 11.8 11.73 14-9.63-2.9 22.06zm-1.1 8.63H16.73l-.7-4.82H60.9l-.63 4.82zM49.8 35.2L38.46 24 27.13 35.2l-8.6-6.07 1.01 8h37.84l1.1-8-8.68 6.06z"/><path d="M22.22 84.82a2.33 2.33 0 00.6 1.73 2.04 2.04 0 001.4.57c.34 0 .62-.03.86-.09a2.74 2.74 0 001.01-.42c.14-.08.27-.12.4-.15.26-.05.5-.03.71.07.21.1.39.28.53.55.19.34.23.68.13 1.01a1.7 1.7 0 01-.5.85c-.4.37-.89.64-1.46.8a5.72 5.72 0 01-3.51-.02 4.48 4.48 0 01-1.6-.88 4.68 4.68 0 01-1.12-1.56 5.79 5.79 0 01-.42-2.32v-3.39c0-.9.14-1.66.42-2.3a4.36 4.36 0 012.72-2.46 6.14 6.14 0 013.51-.04c.5.15.88.34 1.16.57.3.24.5.53.62.9.11.34.08.69-.09 1.04a1.3 1.3 0 01-.58.6c-.24.12-.48.15-.73.1a1.85 1.85 0 01-.45-.15 2.31 2.31 0 00-.9-.36 4.26 4.26 0 00-.71-.05 1.97 1.97 0 00-1.4.59 2.1 2.1 0 00-.44.72c-.11.28-.16.61-.16 1v3.09zM32 77.9c.14-.47.38-.8.73-1.02.36-.23.73-.34 1.12-.34.37 0 .72.11 1.06.34.34.23.58.57.72 1.01l3.75 11.83h-3.16l-.57-2.02h-3.7l-.54 2.02h-3.12L32 77.9zm.7 7.05h2.2l-1.09-4.06-1.1 4.06zM40.16 89.72V79.18c0-.47.03-.87.1-1.2.07-.32.2-.58.37-.79.17-.2.4-.35.7-.44.28-.1.64-.15 1.07-.15h4.8a1.02 1.02 0 01.9.48 1.9 1.9 0 01.2 1.48c-.04.16-.11.31-.2.46-.1.13-.21.23-.37.32-.14.08-.32.12-.53.12h-3.66c-.16 0-.27.03-.33.1-.06.05-.09.17-.09.37v2.05h3.7a1.02 1.02 0 01.9.47c.1.15.16.3.2.48a1.9 1.9 0 010 1c-.04.17-.1.32-.2.46-.09.13-.2.24-.36.33-.15.08-.32.11-.54.11h-3.7v4.9h-2.96zM52.38 81.67h3.93a1.01 1.01 0 01.9.47c.09.15.16.3.2.48a1.72 1.72 0 01-.2 1.43c-.1.13-.21.24-.37.33-.14.07-.32.11-.53.11h-3.93v1.9c0 .2.03.33.08.4.06.05.17.08.34.08h3.78c.21 0 .4.04.54.13.15.08.27.19.36.33.1.13.16.28.2.45a1.72 1.72 0 010 1c-.04.17-.1.33-.2.47a1.02 1.02 0 01-.9.47h-4.9c-.44 0-.8-.04-1.09-.13-.29-.1-.52-.25-.69-.45a1.9 1.9 0 01-.37-.8 6 6 0 01-.1-1.2v-7.96a6 6 0 01.1-1.2c.07-.32.2-.58.37-.79.17-.2.4-.35.7-.44.28-.1.64-.15 1.07-.15h4.77a1.01 1.01 0 01.9.48 1.9 1.9 0 01.2 1.48c-.04.16-.11.31-.2.46-.1.13-.21.23-.37.32-.14.08-.32.12-.53.12H52.8c-.17 0-.28.03-.34.1-.05.05-.08.17-.08.37v1.74z"/></g></svg>