<svg xmlns="http://www.w3.org/2000/svg" width="169" height="489" fill="none" viewBox="0 0 169 489"><path fill="#FFF1E1" d="M76.313 69.407c-.094-.024-.188-.047-.282-.094-.141-.024-.189-.024.282.094z"/><path fill="#FFF1E1" d="M113.261 54.688c.023-.047.047-.094.047-.14.61-1.738-.376-4.061-1.996-4.907-1.854-.985-3.685-.586-5.258.681-.047.047-.117.094-.164.141-.047-4.648.07-9.319.352-13.967.188-3.098-3.92-5.68-6.526-3.756-1.338.986-2.324 2.136-3.122 3.474.235-.54.446-1.08.657-1.643 1.268-3.169-2.417-6.173-5.352-5.352-3.591 1.01-6.009 4.413-6.126 8.075l-.47.352c-.188.07-.352.118-.54.165-.047.023-.07.023-.094.047h-.421c-.023 0-.07-.024-.094-.024-.023 0-.023-.023-.047-.023l-.07-.07c0-.024-.024-.024-.024-.048-.188-.399-.422-.774-.61-1.173-.047-.118-.094-.188-.118-.235-.046-.094-.07-.164-.117-.258-.094-.212-.164-.423-.258-.634a9.26 9.26 0 0 0 .422-2.324c.118-1.808-1.431-3.78-3.192-4.178-1.807-.423-3.286.21-4.46 1.479a4.514 4.514 0 0 0-1.479.938c-1.127 1.08-1.784 2.324-2.16 3.733-.07.023-.117.07-.187.094-.141.07-.587.281-.61.281-.212.094-.423.165-.634.259-2.489 1.009-5.024 2.136-6.972 3.967.023-.916.07-1.855.117-2.77.141-2.277-2.089-4.437-4.342-4.343-2.465.117-4.202 1.901-4.343 4.343a79.758 79.758 0 0 0 1.267 19.765c-.164-.235-.328-.47-.492-.728-.493-.728-.916-1.502-1.338-2.277a16.003 16.003 0 0 1-.54-1.103c-.047-.094-.094-.212-.141-.329-.024-.023-.024-.07-.047-.14-.282-.846-.587-1.667-.845-2.512-.634-2.183-3.099-3.756-5.352-3.029-2.23.728-3.71 3.005-3.028 5.352 1.244 4.32 3.333 8.122 6.15 11.597 1.033 1.29 3.028 1.549 4.6.986.728 9.342 5.235 18.31 12.817 23.52v.094a31.451 31.451 0 0 0 1.033 11.174c.141.516.329 1.056.54 1.573-.328.328-.61.68-.845 1.079-.704 1.221-.939 2.794-.563 4.155.422 1.573 1.666 2.488 3.051 3.146 2.043.986 4.25 1.784 6.55 1.737 2.816-.071 5.281-1.268 7.136-3.193.258.047.516.071.75.071 2.184-.094 4.555-1.925 4.343-4.343-.093-1.08-.187-2.16-.258-3.239-.094-1.174-.422-2.207-1.267-3.075l-.094-.094c-.118-1.737-.4-3.45-.751-5.188a21.277 21.277 0 0 0 6.854-2.91c4.249-2.818 7.676-7.02 9.108-11.925l.047-.047c2.981-3.38 4.225-7.512 3.732-11.878.188-.141.376-.305.54-.47l4.507-4.859c1.315-1.432 1.62-3.45.728-5.094zm-38.263-4.155c.047-.023.094-.046.094-.07l.024-.023c.047-.024.07-.024.117-.047-.094.094-.282.21-.376.21.024 0 .07-.023.141-.07zm9.061 22.324c-5.563-1.573-11.432-.305-15.962 3.122-.023-.023-.023-.047-.047-.07a3.54 3.54 0 0 0 .282-.681l.281-.775c.024-.023.024-.047.047-.07.235-.4.423-.822.658-1.22.14-.259.305-.494.469-.728.047-.094.188-.259.258-.353.305-.352.61-.704.963-1.032.211-.212.422-.4.633-.587.047-.047.118-.094.165-.141-.047.023-.07.047-.118.07.047-.023.094-.046.141-.093.188-.118.352-.235.165-.094.281-.188.54-.352.845-.517l.187-.094c.118-.047.517-.211.54-.234.212-.07.4-.118.61-.165.048-.023.118-.023.165-.047.235.024.845.047 1.056.024l.235.047c.117.023.235.07.352.117.094.024.211.047.282.094.516.211 1.033.446 1.573.657.845.305 1.877.517 2.77.493 1.643-.047 3.051-.704 4.436-1.55.023-.023.188-.14.352-.234.047 0 .117-.023.188-.023h.188l.563.14c.07.024.118.024.165.047.164.094.328.235.422.306.047.023.094.07.14.094.236.234.635.68.54.516.118.164.236.352.33.516.046.07.21.4.328.61.07.212.235.611.235.588.07.234.164.492.211.727.164.61.305 1.244.422 1.878.024.141.047.282.071.446.023.094.047.235.047.305v.024c.023.164.047.328.047.493-1.643-1.08-3.24-2.042-5.235-2.606z"/><path fill="#FFF1E1" d="M71.828 70.299c.07-.047.118-.07.165-.094-.047.023-.094.07-.165.094zm17.442 4.625c-.023-.118-.023-.212-.047-.306-.023-.141-.047-.188.047.306zM72.721 187.222a6.635 6.635 0 0 0-1.103-1.174 6.955 6.955 0 0 0-.657-1.479c-2.606-4.366-7.935-3.004-11.925-1.784-3.709 1.127-7.136 2.841-10.563 4.625-.352.187-.705.352-1.08.539h-.024c-.305.094-.61.212-.915.306-.164.047-.329.07-.493.117h-.047l-.07-.939c-.141-1.854-1.245-3.732-3.193-4.178-1.784-.399-4.037.234-4.906 1.995-.986 1.995-1.15 3.99-.446 5.986 0 1.385-.07 2.77-.211 4.155a8.158 8.158 0 0 1-.094.751c-.023.094-.047.258-.07.399a27.62 27.62 0 0 1-.353 1.925c-.258 1.338-.61 2.652-.985 3.967a52.652 52.652 0 0 1-1.292 3.685.564.564 0 0 1-.07.165c0 .023-.023.023-.023.046-.141.306-.259.587-.4.892l-.845 1.761a47.991 47.991 0 0 1-2.042 3.545c-.352.539-.704 1.079-1.08 1.619-.187.258-.375.517-.563.798-.047.047-.07.094-.094.141-.047.047-.094.118-.164.211a5.558 5.558 0 0 0-.564.869 4.417 4.417 0 0 0-1.22 1.056c-1.22 1.573-1.315 4.32.328 5.704 1.385 1.151 2.84 2.254 4.437 3.099l.282.141 3.732 2.488c1.901 1.268 4.883.423 5.939-1.549.329-.61.493-1.244.54-1.878 1.596-1.761 2.746-4.108 3.943-6.08 2.56-4.225 5-8.521 7.324-12.887h3.264c1.008 0 2.018-.399 2.792-1.056 4.038-.212 8.005-1.432 11.315-3.78 1.455-1.032 2.418-2.793 2.113-4.53 1.408-3.169 1.62-6.854-.517-9.671zm-30.093 21.173c.164-.446.328-.868.493-1.314.07.023.14.047.21.094-.234.399-.469.798-.703 1.22zm2.723-20.281a.393.393 0 0 1-.07-.141c.023.023.023.07.046.117-.094-.117-.188-.234-.211-.234.14-.024.282.258.305.328l-.07-.07zm111.547 85.069c-1.596-.939-3.967-.728-5.258.681-.047.047-.07.094-.117.141-.47-1.855-2.348-3.24-4.249-3.263-.657 0-1.291-.024-1.948-.071l-.869-.07c-.094 0-.563-.07-.634-.07a34.987 34.987 0 0 1-3.521-.799c-2.183-.633-4.835.775-5.352 3.029-.54 2.323.704 4.671 3.028 5.352 1.573.446 3.169.798 4.789 1.009a79.148 79.148 0 0 0 3.756 24.765c.657 2.066 2.582 3.404 4.765 3.122 2.277-.305 3.545-2.089 3.756-4.272.07-.611.117-1.197.188-1.808.939 1.103 2.347 1.714 3.873 1.502a4.332 4.332 0 0 0 3.709-3.661c.258.047.493.07.751.047 2.559-.118 4.084-1.925 4.343-4.343.915-8.451-3.733-17.042-11.01-21.291z"/><path fill="#fff" d="M43.497 236c-.962-1.502-2.488-2.605-3.85-3.708-5.094-4.202-10.492-7.958-16.244-11.221.306-.986.61-1.948.916-2.911 1.103-3.544 1.854-7.183 2.441-10.845 1.197-7.488 2.254-14.976 3.357-22.464.422-2.911.915-5.845 1.361-8.779 6.315-9.343 6.902-22.019 2.183-32.3a27.104 27.104 0 0 0-3.85-6.08c.376-.54.752-1.08 1.15-1.596 1.386-1.831.353-4.93-1.548-5.939-1.878-1.01-3.71-.611-5.118.657-.68.188-1.338.563-1.925 1.056-5.891 5.282-9.436 12.629-11.619 20.117-2.066 7.043-3.169 14.39-4.014 21.667a166.488 166.488 0 0 0-3.873 30.868c-.188 6.08-.024 12.159.516 18.216.54 6.126 1.08 12.464 3.803 18.075a19.059 19.059 0 0 0 3.005 4.413c.352.516.774.986 1.267 1.408.4.329.798.61 1.244.869.212.164.423.305.634.469.587.47 1.22.892 1.925 1.244.282.141.563.258.869.352 1.173.54 2.417.963 3.708 1.244 5.446 1.198 10.986.306 16.01-1.948 2.793-1.267 5.868-3.192 7.558-5.798 1.409-2.183 1.479-4.906.094-7.066zm116.876 31.385c-2.441-20.117-5.422-40.164-9.014-60.093a1044.16 1044.16 0 0 0-5.727-29.366c-1.761-8.38-3.334-16.948-6.104-25.07-2.511-7.371-6.126-14.272-11.807-19.507.235-.634.469-1.267.704-1.878.822-2.136-.892-4.859-3.028-5.352-2.488-.563-4.483.751-5.352 3.028-.188.517-.399 1.033-.587 1.573-1.15.822-1.713 2.113-1.807 3.521a46.852 46.852 0 0 0-.094 1.831c-2.653 8.075-4.296 16.455-2.019 24.883 1.338 4.952 3.803 9.53 6.033 14.107a97.595 97.595 0 0 1 1.502 3.193c.118.258.235.516.329.774.047.094.07.165.094.235 0 .024.023.047.047.094.258.634.54 1.291.774 1.948a92.663 92.663 0 0 1 2.395 6.902c1.455 4.718 2.582 9.554 3.474 14.413.446 2.417.821 4.835 1.173 7.253 0-.047.071.446.094.681.024.164.047.399.071.446.07.634.164 1.267.234 1.878.165 1.267.306 2.511.423 3.779 1.056 9.953 1.596 19.953 2.441 29.929.47 5.587 1.197 11.596 4.507 16.315-.798.798-1.314 1.877-1.267 3.028.117 2.558 1.925 4.084 4.342 4.342 4.601.47 9.179.939 13.78 1.432 2.183.235 4.647-2.159 4.389-4.319zm-9.976-5.962c-.118-.047-.305-.118-.352-.141l-.775-.423c-.07-.047-.258-.164-.423-.281a4.273 4.273 0 0 0 1.878-1.01c.094.681.165 1.362.259 2.042a1.888 1.888 0 0 1-.352-.093c-.047-.024-.141-.047-.235-.094z"/><path fill="#5B433F" d="M111.736 29.595s-.024.023 0 0c-.024.023 0 0 0 0 0-.047 0-.118.023-.165.047-.704.024.047-.023.165.07-.141.234-1.127.281-1.244 0-.024.047-.118.071-.235.047-.094.117-.329.164-.376.235-.446.493-.868.798-1.29 1.855-2.606-.61-6.785-3.756-6.526a38.4 38.4 0 0 1-4.648.093h-.187c-.047-.023-.094-.023-.165-.046-.305-.094-.61-.141-.915-.235a1.366 1.366 0 0 1-.329-.118h-.023c-.118-.07-.564-.399-.658-.446l-.093-.094-.024-.023c0-.023 0-.023-.023-.047-.071-.117-.141-.258-.212-.375 0-.024-.023-.047-.023-.047-.024-.094-.047-.188-.07-.259 1.525-1.479 1.549-4.014.281-5.657-1.408-1.83-3.591-2.019-5.61-1.127-2.254.986-4.507 2.02-6.76 3.005l-.071-4.202c-.047-2.277-1.972-4.46-4.343-4.342-2.464.117-4.037 1.83-4.319 4.154 0 .07-.023.118-.023.165-.07.704-.024-.047.023-.165-.023.094-.117.564-.14.61-.071.236-.142.447-.212.658-.211.352-.446.751-.634 1.103 0 .024 0 .024-.023.047a4.22 4.22 0 0 1-.446.47c-.212.211-.798.634-.634.563a13.18 13.18 0 0 0-.962.587h-.024c-.14.047-.305.094-.446.14-.211.048-.422.095-.61.142h-.564c-.281-.118-.962-.188-1.15-.235-.023 0-.07-.024-.094-.024-.164-.093-.352-.164-.516-.258-.188-.117-.352-.235-.54-.352-.305-.305-.61-.61-.915-.892-.094-.164-.212-.305-.306-.47-.023-.023-.117-.234-.21-.375a1.422 1.422 0 0 1-.071-.188c-.07-.188-.094-.399-.165-.587-.164-2.253-1.878-4.46-4.342-4.342-2.324.094-4.367 1.901-4.343 4.342 0 .446 0 .892-.024 1.315 0 .211-.023.399-.046.61-.024.235-.212.681-.024.188.258-.61-.047.14-.07.305-.047.188-.094.376-.141.587v.024a8.296 8.296 0 0 1-.47-.282c-.047-.024-.07-.07-.117-.094-.211-.188-.422-.352-.634-.54-.47-.399-.939-.822-1.385-1.244a50.24 50.24 0 0 1-2.511-2.488 47.397 47.397 0 0 1-2.489-2.817 7.068 7.068 0 0 1-.516-.657c-.07-.07-.117-.165-.164-.212-.4-.516-.775-1.033-1.15-1.572-1.315-1.855-3.85-2.911-5.94-1.55-2.136 1.362-2.582 3.733-1.549 5.94l4.296 9.177c.892 1.902 3.615 2.63 5.47 1.808l.422.352c-3.568 1.854-6.831 4.249-9.718 7.042-2.23 2.16-1.315 6.62 1.925 7.254 4.694.938 8.661-.986 12.37-3.71a39.11 39.11 0 0 0 1.573-1.173 37.588 37.588 0 0 0-.4 2.84c-.187 1.69 1.245 3.357 2.677 3.967 1.526.658 3.568.376 4.742-.892 2.464-2.7 4.835-5.492 7.347-8.145.634 1.76 1.291 3.521 1.925 5.258.61 1.667 1.784 2.864 3.615 3.122 1.643.211 3.497-.54 4.319-2.066l4.108-7.676c.117-.234.258-.469.376-.704.21 1.01.375 2.043.54 3.052.422 2.629 1.314 5.211 3.31 7.066 1.572 1.431 4.624 1.9 6.149 0 .306-.376.587-.752.892-1.127.282 1.01.517 2.042.728 3.075.071.422.164.822.211 1.244.024.164.047.352.071.516 0 .047.023.118.023.212a45.1 45.1 0 0 1 .211 2.535 42.85 42.85 0 0 1-.07 5.493c-.164 2.16 1.784 3.99 3.756 4.272 2.089.282 4.225-1.01 4.765-3.122.54-2.113.704-4.32.587-6.502-.047-1.01-.164-2.02-.282-3.028a74.063 74.063 0 0 0-.305-2.23c-.023-.235-.07-.47-.094-.705 0-.07-.047-.328-.07-.516-.024-.117-.024-.235-.024-.282a7.077 7.077 0 0 0-.094-.704l-.14-1.385c-.071-.962-.118-1.925-.047-2.887.023-.118.023-.282.047-.446zM91.172 71.05c-1.902-2.324-4.53-3.944-7.371-4.836-1.995-.634-4.437.751-4.906 2.793-.094.446-.141.892-.094 1.315-.634-1.362-1.948-2.324-3.568-2.324h-3.756c-2.089 0-4.084 1.831-3.99 3.99.094 2.16 1.76 3.991 3.99 3.991h3.756c2.09 0 4.084-1.83 3.99-3.99 0-.07 0-.118-.023-.188.47.962 1.338 1.737 2.488 2.112.212.07.423.165.657.212-.727-.212-.046-.024.141.07.47.235.892.493 1.338.775.047.023.07.047.118.07.14.118.281.235.422.376.423.399.798.821 1.174 1.267 1.315 1.62 4.296 1.48 5.634 0 1.572-1.713 1.408-3.896 0-5.633z"/><path fill="#fff" d="M104.67 114.077c-2.817-1.596-5.657-3.098-8.686-4.249-2.98-1.126-6.314-1.831-9.506-1.549-3.099.258-5.986 1.221-9.014 1.855-.306.07-.61.117-.94.187-.093.024-.164.024-.258.047-.047 0-.164.024-.328.024-.352 0-.704.047-1.08.023-.14 0-.657-.07-.704-.07-.212-.047-.446-.118-.657-.165-.07-.023-.118-.023-.165-.046-.047-.024-.094-.071-.188-.141-.587-.376-1.126-.822-1.713-1.221-1.878-1.338-4.108-1.714-6.338-1.197-1.902.446-3.498 1.62-5.094 2.676-2.746 1.831-5.587 3.544-8.568 4.976-.375.188-.751.352-1.127.517-.14.07-.234.117-.305.141a3.81 3.81 0 0 0-.258.094c-.751.305-1.526.586-2.3.845a35.368 35.368 0 0 1-4.39 1.126c-.775-.328-1.643-.422-2.512-.141-1.995.634-3.45 2.77-2.793 4.906 3.192 10.094 10.727 18.686 20.281 23.216 4.883 2.324 10.164 3.709 15.587 3.779 5.563.094 10.986-1.22 16.056-3.45 4.695-2.066 9.037-5.164 12.559-8.92a38.605 38.605 0 0 0 4.976-6.549c1.549-2.559 3.333-5.752 3.31-8.827-.047-3.826-2.747-6.103-5.845-7.887zm-38.122 1.056c.07-.023.212.047.376.141-.188-.047-.47-.094-.376-.141z"/><path fill="#839D57" d="M66.737 149.288c-9.39-.211-18.78-.446-28.146-.657-2.089-.047-4.084 1.878-3.99 3.99.094 2.207 1.76 3.944 3.99 3.991 9.39.211 18.78.446 28.146.657 2.089.047 4.084-1.878 3.99-3.99-.094-2.207-1.737-3.944-3.99-3.991zm-.189 22.3c-7.37-1.666-15-1.572-22.3.352-1.76.47-3.075 2.324-2.934 4.155a3.262 3.262 0 0 0-.118 1.08l.141 3.756c.094 2.089 1.76 4.084 3.99 3.99a52.373 52.373 0 0 0 22.184-6.032c2.957-1.573 2.347-6.55-.963-7.301z"/><path fill="#fff" d="M62.135 156.213c-4.742.047-9.507.587-14.178 1.432-.306-.681-.799-1.291-1.573-1.69-1.714-.916-4.578-.611-5.47 1.432-1.032 2.37-1.08 4.624.094 6.971 1.057 2.089 2.981 3.498 5.118 4.296 1.924.704 4.084.751 6.103.634 2.16-.118 4.319-.282 6.502-.423 4.202-.258 10.352.282 11.76-4.859 1.338-4.929-4.272-7.84-8.356-7.793zm.869 46.995H59.25c-2.09 0-4.085 1.83-3.99 3.99.093 2.16 1.76 3.991 3.99 3.991h3.755c2.09 0 4.085-1.831 3.991-3.991-.094-2.16-1.76-3.99-3.99-3.99z"/><path fill="#F2B280" d="M74.623 447.218c1.455-.493 2.652-1.76 2.629-3.662-.141-18.779-1.925-37.511-5.188-55.985.376-7.136.94-14.295 1.174-21.431.164-4.367.188-8.709.023-13.075-.117-2.77-.117-5.751-.657-8.592a3.597 3.597 0 0 0-.164-.845 15.309 15.309 0 0 0-1.15-3.404c-2.301-4.765-7.677-5.915-12.442-6.455-4.131-.469-8.403-.141-12.464.822-.517-1.902-3.052-3.052-4.836-2.488-2.253.727-3.122 2.699-2.793 4.906 1.08 7.3 2.183 14.624 3.263 21.924a4.254 4.254 0 0 0-.33 1.456c-.68 8.051-.093 16.103.94 24.107 1.056 8.263 2.394 16.502 3.638 24.765L50 433.791l1.83 12.042c.54 3.592.916 7.301 2.043 10.751 1.244 3.733 3.286 6.925 6.55 9.179 3.004 2.042 7.159 2.864 10.586 1.479 2.324-.939 4.014-2.489 4.953-4.836.774-1.878.634-3.897.352-5.869-.423-3.145-1.103-6.22-1.69-9.319z"/><path fill="#F2B280" d="M64.342 458.791c.023.024.047.047.094.047-.047-.023-.07-.023-.094-.047zm71.711-5.798a694.113 694.113 0 0 1-3.309-92.675c.281-8.662.704-17.3 1.291-25.962.187-2.77-2.7-4.319-5.047-3.85-9.742 1.902-19.46 3.78-29.202 5.681a3.357 3.357 0 0 0-1.995 1.291c-2.066.798-2.817 2.676-2.512 4.812 2.559 18.521 5.141 37.018 7.7 55.539 1.267 9.226 2.558 18.427 3.826 27.653.634 4.647 1.291 9.295 1.925 13.943.328 2.324.634 4.648.962 6.972.258 1.925.493 3.826 1.244 5.61 1.855 4.39 6.057 6.314 10.657 5.728 1.996-.259 3.944-.752 5.916-1.104l.446-.07c.399-.024.798-.07 1.197-.07.188 0 .399.023.587.023h.023c.376.141.798.188 1.198.329 2.323.845 5.352-1.385 5.093-3.85z"/><path fill="#5B433F" d="M72.676 470.95a4.609 4.609 0 0 0-.4-1.291 3.96 3.96 0 0 0-.797-2.887c-.94-1.197-2.677-1.948-4.202-1.432-.235.07-.47.164-.704.235a4.702 4.702 0 0 0-1.925-.54 3322.33 3322.33 0 0 1-4.061-.282 3.801 3.801 0 0 0-1.033.094 2.463 2.463 0 0 0-.517-.587c-1.643-1.502-3.99-1.502-5.633 0l-19.085 17.606c-2.887 2.652.118 7.934 3.874 6.666a242.422 242.422 0 0 0 32.558-13.591c1.432-.728 2.136-2.512 1.925-3.991zm74.716 6.432c-1.902-3.263-3.779-6.549-5.681-9.812-1.713-2.957-3.286-6.173-5.634-8.709-2.488-2.699-5.798-4.014-9.436-3.427-1.596.258-3.099 1.033-4.296 2.089a5.877 5.877 0 0 0-.892.986 3.047 3.047 0 0 0-.328-1.197 3.287 3.287 0 0 0-.822-1.291c-.258-.211-.54-.422-.798-.634a4.065 4.065 0 0 0-2.019-.54l-1.056.141a3.946 3.946 0 0 0-1.761 1.033l-.939.939c-.399.352-.657.798-.821 1.291-.258.47-.376.986-.352 1.526-.024.54.094 1.056.352 1.526.023.047.047.117.07.164.188.54.493 1.08.916 1.573 7.769 9.061 16.76 16.995 26.572 23.755 1.385.963 3.709.611 4.836-.633.915-1.01 1.314-2.348 1.079-3.639 1.479-1.221 2.043-3.357 1.01-5.141z"/><path fill="#A51B18" d="M80.94 156.448c-.071.047-.142.07-.212.117-.047.024 0 0 .211-.117z"/><path fill="#E26E6B" d="M143.684 318.887a2192.471 2192.471 0 0 0-10.094-80.304c-1.854-12.77-3.826-25.54-6.526-38.145-1.361-6.291-2.887-12.559-4.694-18.733-1.784-6.126-4.108-12.089-5.869-18.215-1.033-3.592-1.526-6.268-1.619-9.812a49.574 49.574 0 0 1 .164-5.282c.164-1.878.305-2.723.657-4.648 1.362-7.23 3.897-14.178 6.432-21.056.634-1.737-.446-3.568-1.831-4.507-4.202-2.887-10.141-1.033-13.239 2.606-2.817 3.333-3.967 7.605-6.174 11.314a40.857 40.857 0 0 1-1.526 2.371c-.258.399-.54.775-.821 1.15-.024.024-.024.024-.024.047-.211.282-.446.54-.657.822a42.787 42.787 0 0 1-4.178 4.319c-.353.305-.705.61-1.08.915-.188.141-.376.306-.54.446-.023.024-.094.071-.164.141a40.424 40.424 0 0 1-2.324 1.62 40.133 40.133 0 0 1-5.118 2.793c-.14.071-.258.118-.399.188a2.541 2.541 0 0 1-.281.118c-.446.164-.869.352-1.315.492-1.033.376-2.112.681-3.145 1.057-2.676.962-4.977 2.3-6.573 4.695-1.291 1.924-1.831 4.272-2.183 6.525-.446 2.7-.704 5.423-.657 8.169.07 5.188 1.197 10.164 2.7 15.117.68 2.301 1.384 4.578 1.854 6.925.047.282.117.564.164.845 0 .047.047.329.07.493.024.235.07.845.07.751.024.282.048.564.048.845a20.73 20.73 0 0 1 0 1.691c0 .211-.024.446-.047.657-.024.07-.07.469-.094.587a10.83 10.83 0 0 1-.376 1.502l-.211.634c-.023.07-.211.54-.235.61a15.878 15.878 0 0 1-1.244 2.23 7.478 7.478 0 0 1-.376.54c-.07.094-.75.939-.164.235-.328.375-.634.751-.962 1.126a25.255 25.255 0 0 1-2.277 2.207c-.164.141-.352.305-.517.446-.046.024-.234.188-.375.305-.118.071-.258.211-.305.235-.282.211-.564.399-.845.61a42.542 42.542 0 0 1-2.77 1.784c-1.432.869-2.888 1.643-4.366 2.395-.705-1.151-1.925-1.949-3.334-1.878-2.089.094-4.06 1.76-3.99 3.99v.634c-.047.188-.188.657-.212.751a.334.334 0 0 1-.047.141c.024-.047.07-.117.094-.211-.047.07-.07.141-.117.211-.07.164-.14.329 0 .024-.023.07-.07.117-.094.187-.188.376-.399.751-.634 1.127-.868 1.362-1.901 2.629-2.817 3.944-2.3 3.333-3.145 7.136-3.004 11.173.07 1.925.282 3.826.352 5.728.023.868.047 1.76-.024 2.629-.023.211-.117.868-.046.61-.094.47-.188.963-.33 1.432-.093.282-.61 1.362-.14.47-.14.258-.258.516-.376.751-.164.281-.328.563-.516.821.024-.047-.258.376-.305.423a15.9 15.9 0 0 1-1.385 1.432c-.258.235-.493.446-.751.657a4.006 4.006 0 0 0-.329.282c-.023.023-.047.023-.047.047-4.835 3.474-10.892 6.525-13.45 12.23-1.925 4.272-1.902 9.014-2.137 13.591-.234 4.484-.445 8.99-.61 13.474a808.665 808.665 0 0 0-.54 27.206c-.023 4.39-.75 9.789 2.582 13.239 1.526 1.573 3.545 2.395 5.54 3.169 1.831.705 3.686 1.362 5.563 1.972 15.118 4.953 31.197 7.16 47.09 6.667 15.961-.517 31.924-3.709 46.759-9.671a170.547 170.547 0 0 0 5.986-2.559c1.009-.47 1.667-1.502 1.878-2.629 1.807-.352 3.638-1.902 3.427-3.92z"/><path fill="#A51B18" d="M58.12 144.218a25.57 25.57 0 0 1-3.92-1.08c-.329-.117-.634-.235-.939-.352-.023 0-.047-.024-.07-.024-.024 0-.024-.023-.07-.023-.564-.282-1.128-.517-1.667-.822a32.457 32.457 0 0 1-3.451-2.136c-.094-.07-.446-.352-.517-.399-.14-.117-.281-.211-.399-.329a28.23 28.23 0 0 1-1.502-1.361 30.344 30.344 0 0 1-2.629-2.864c-.047-.047-.07-.094-.094-.117a.49.49 0 0 0-.094-.141c-.188-.282-.399-.54-.587-.822a21.843 21.843 0 0 1-.985-1.572c-.306-.54-.61-1.08-.892-1.62-.165-.305-.306-.61-.447-.916-.047-.07-.258-.633-.258-.61-.422-1.174-.821-2.324-1.103-3.544-.493-2.019-2.91-3.428-4.906-2.794-1.526.493-2.559 1.69-2.84 3.146-.799.962-1.127 2.253-.822 3.591.822 3.568 1.667 7.136 2.488 10.681.798 3.404 1.55 6.995 4.46 9.295 2.7 2.137 6.01 2.935 9.413 2.911 1.62-.023 3.216-.235 4.813-.399a25.613 25.613 0 0 1 2.699-.164c.446 0 .892 0 1.338.047.188.023.258.023.188 0 .094.023.188.023.281.047.141.023.306.07.447.094 2.042.399 4.413-.587 4.906-2.794.422-2.042-.658-4.436-2.84-4.929zm-18.426 23.45c-1.902-.446-4.554.587-4.906 2.794-.4 2.488-.798 4.976-1.174 7.464-.328 2.042.517 4.39 2.794 4.906 1.901.446 4.553-.587 4.906-2.793.399-2.488.798-4.977 1.173-7.465.329-2.042-.54-4.389-2.793-4.906z"/><path fill="#010202" d="M93.708 74.101c-2.395-3.638-6.01-6.244-10.258-7.253-.728-.165-1.245.235-1.48.751-.891.305-1.783.61-2.652.915-.023 0-.07-.023-.094-.023a464.254 464.254 0 0 1 .235-26.197c.07-1.666-2.512-1.666-2.582 0-.282 7.7-.376 15.399-.282 23.099-4.46-1.01-9.202 4.295-11.737 7.23-.657.774-.375 1.807.564 2.159 4.694 1.69 10.798 1.315 13.779-2.981 3.873 3.52 8.779 6.502 14.06 4.06.587-.28.799-1.22.447-1.76zm-25.61-1.22a38.392 38.392 0 0 1 3.52-3.24c1.41-1.103 3.287-2.206 5-1.455.024.727.024 1.455.048 2.183a.94.94 0 0 0 .07.352c-2.066 2.441-5.493 2.817-8.638 2.16zm13.45-2.395a59.405 59.405 0 0 0 1.878-.657.979.979 0 0 0 .376-.211 14.38 14.38 0 0 1 6.713 4.46c-3.286.727-6.455-1.338-8.967-3.592zm-16.62-21.032a1.971 1.971 0 0 0-.727-.446.81.81 0 0 0-.212-.282c-.47-.47-1.361-.517-1.83 0-.705.798-.963 1.878-.587 2.887.21.54.563 1.056 1.056 1.362.634.375 1.502.14 2.042-.306.986-.798 1.22-2.323.258-3.215zm31.267.07c-.093-.094-.187-.14-.281-.211-.07-.07-.141-.165-.235-.212-.422-.399-.986-.469-1.55-.187-1.032.493-1.337 1.83-.915 2.817.305.727 1.08 1.29 1.902 1.009.704-.235 1.244-.704 1.502-1.385.211-.634.07-1.408-.423-1.831zM79.528 79.876c-.164 2.253-3.098 2.018-3.474 0-.305-1.62-2.793-.94-2.488.68.399 2.113 2.418 3.733 4.577 3.569 2.254-.188 3.827-2.09 3.99-4.25.095-1.666-2.487-1.666-2.605 0z"/><path fill="#010202" d="M167.556 290.061c-.305-3.169-1.032-6.291-2.23-9.225a33.653 33.653 0 0 0-5.328-8.85c.563-.681.939-1.549 1.197-2.371.681-2.089.516-4.319-.282-6.314.118-.212.188-.423.165-.658-2.747-21.291-5.47-42.558-8.24-63.849-2.488-19.225-5.328-38.825-14.319-56.243-4.413-8.568-10.305-16.455-17.769-22.605a2.094 2.094 0 0 0-.188-.399c-.775-1.315-2.606-1.526-3.944-1.902l-5.282-1.455c-.211-.047-.399-.071-.563-.047-.962-.775-2.371-1.244-3.544-1.69a103.44 103.44 0 0 0-8.756-2.911c-1.948-1.714-4.085-3.263-6.385-4.225-.14-.047-.258-.094-.4-.141.024-.117.048-.258.024-.423l-1.267-14.178c4.671-1.573 8.896-4.39 11.948-8.31 4.084-5.258 5.61-11.784 5.704-18.333 1.08-.258 2.183-1.103 2.981-1.807 1.714-1.48 3.028-3.38 3.897-5.47.845-2.065 1.361-4.53.962-6.76-.375-2.113-2.183-3.615-4.225-3.099 1.08-6.009.423-12.417-.376-18.474 3.803-1.056 5.517-5.985 3.475-9.483-2.254-3.873-6.597-4.695-10.564-3.732.892-2.84 1.033-6.057-1.807-7.7-1.878-1.08-4.155-.68-6.01.211-1.197.564-2.23 1.409-3.31 2.16a6.43 6.43 0 0 0-.516-2.535c-.986-2.3-3.075-3.662-5.54-3.826-4.905-.352-8.074 3.333-10.281 7.253a26.36 26.36 0 0 0-1.737-4.32c-1.103-2.135-2.535-4.788-5.376-4.13-2.206.516-4.154 2.417-5.469 4.178a12.25 12.25 0 0 0-1.62 2.981 34.354 34.354 0 0 0-4.906-6.291c-1.76-1.76-6.643-6.784-8.403-2.441-1.268 3.098-.916 7.16-.024 10.305a18.791 18.791 0 0 0 4.554 7.887 22.155 22.155 0 0 0-6.55 6.08c-1.83 2.582-3.239 6.737-.187 9.037 1.831 1.385 4.366 1.315 6.69.822-.376 4.248-.634 8.52-.704 12.816-.68-.469-1.362-.938-2.066-1.408-1.15-.751-2.441-1.596-3.826-.868-2.441 1.29-2.3 4.788-1.901 7.089.798 4.53 2.957 11.338 8.544 11.22 1.01 7.747 3.685 15.07 9.483 20.587a27.191 27.191 0 0 0 3.099 2.558 1.16 1.16 0 0 0-.188.728c.165 5.282.118 10.563-.164 15.845-.704-.071-1.385 0-2.042.352-.963.516-1.76 1.385-2.535 2.136l-.634.634c-.188 0-.4.047-.587.141-5.211 2.488-10.446 4.953-15.657 7.441-1.244.587-2.512 1.197-3.756 1.784-1.15.54-2.465 1.009-3.474 1.784-.024.023-.07.047-.094.07a33.98 33.98 0 0 0-4.883 2.019c-1.361.704-3.239 1.526-4.107 2.864-.047.07-.094.164-.141.235-.282-.071-.587-.024-.916.188C6.76 139.1 3.78 166.142 1.62 188.841c-1.268 13.216-1.737 26.62.117 39.812 1.502 10.728 5.892 22.793 16.995 26.784 5.094 1.831 11.08 1.338 15.845-1.291l2.958 19.389c.117.751.962.986 1.596.892 10.986-1.667 21.948-3.31 32.934-4.976 5.375-.822 10.774-1.737 16.22-1.667 5.352.07 10.61 1.291 15.915 1.925 6.198.728 12.418.446 18.639.141.704-.047 1.267-.564 1.291-1.291.188-6.385.352-12.794.54-19.178l.281-9.813c.047-1.549.094-3.122.118-4.671.047-1.314.352-3.028-.258-4.272-1.033-2.019-3.944-1.784-5.822-2.371-2.207-.704-4.249-1.925-5.962-3.451-3.733-3.262-6.197-7.699-7.512-12.441-1.784-6.432-1.737-13.169-1.69-19.765 0-.704-.587-1.267-1.291-1.291a307.232 307.232 0 0 0-25.47.423 11.47 11.47 0 0 0-2.558-1.033 16.324 16.324 0 0 0 2.207-2.207c.422-.493.563-1.338 0-1.831a10.96 10.96 0 0 0-5.916-2.535c.446-.305.869-.634 1.15-1.009.752-1.01 1.15-2.512.446-3.662a2.348 2.348 0 0 0-.939-.869c.493-7.065.892-14.107 1.15-21.173 1.104-.141 2.113-.869 2.442-2.019.422-1.502-.446-3.145-1.714-3.92-1.643-1.009-3.638-.681-5.446-.563-2.183.141-4.39.141-6.596.094-4.413-.094-8.803-.423-13.192-.423-2.183 0-4.39.094-6.573.352-.892.094-1.784.211-2.652.446a1.268 1.268 0 0 0-.634-.211c.329.023-.07-.376-.188-.61-.164-.306-.329-.634-.493-.939a56.993 56.993 0 0 1-1.033-2.09 65.262 65.262 0 0 1-1.807-4.154 70.15 70.15 0 0 1-2.77-8.662 89.5 89.5 0 0 1-.963-4.343c-.14-.775-.281-1.526-.399-2.3-.07-.517-.352-1.409-.21-1.925.21-.658 1.15-1.033 1.69-1.362.656-.399 1.337-.751 2.018-1.103a25.949 25.949 0 0 1 2.207-.962c.187.962.633 1.971 1.009 2.887 3.333 8.286 8.192 16.643 16.338 20.939 4.436 2.323 9.366 3.309 14.295 3.873 2.512.281 5.047.469 7.582.634 1.268.07 2.512.117 3.78.07.54.446 1.432.376 1.901-.164.822-.118 1.62-.282 2.418-.517 4.577-1.361 8.709-4.366 12.324-7.418 3.497-2.957 6.596-6.408 9.225-10.164a52.504 52.504 0 0 0 3.943-6.643 53.616 53.616 0 0 0 1.503-3.333c.516-1.244 1.174-2.559 1.338-3.897 1.033.282 2.089.587 3.122.869.728.211 1.455.399 2.206.61.423.117.705.141.869.235.023.164.07.328.188.469v.235c-.141 3.005-.728 6.009-1.291 8.967-1.104 5.728-2.489 11.385-3.193 17.183-.704 5.775-.61 11.713 1.174 17.3 1.76 5.517 4.765 10.54 6.713 16.009 4.155 11.503 5.658 23.873 7.395 35.915 1.854 12.77 3.427 25.587 4.859 38.404 1.596 14.342 3.028 28.685 4.436 43.027.024.211.071.376.165.54v.211c.54 7.324 1.15 14.648 1.619 21.972.047.61.118 1.197-.211 1.76-.352.587-1.056.986-1.573 1.385a40.844 40.844 0 0 1-3.873 2.395c-2.558 1.361-5.281 2.418-8.075 3.239-5.704 1.69-11.619 2.465-17.511 3.075-6.596.704-13.17 1.432-19.765 2.136-6.995.728-14.038 1.244-21.08.775-7.042-.47-13.99-1.831-20.821-3.568a251.412 251.412 0 0 1-9.977-2.77c-1.572-.469-3.169-.939-4.741-1.432-1.456-.446-3.216-.728-4.53-1.502-1.339-.775-1.08-2.371-1.057-3.733l.07-5.61c.047-3.591.094-7.159.165-10.751.281-16.197.75-32.394 1.432-48.591.07-1.666-2.512-1.666-2.583 0a2128.42 2128.42 0 0 0-1.643 62.136c-.023 1.807-.235 3.755.07 5.563.564 3.263 3.85 3.873 6.526 4.695 1.996.61 3.991 1.22 5.986 1.807a1955.068 1955.068 0 0 0 5.352 57.441 2006.6 2006.6 0 0 0 7.113 58.004c.54 4.014.986 8.192 2.934 11.807.47.868 1.01 1.643 1.643 2.347a169.798 169.798 0 0 0-21.572 22.089c-.61.751-.423 1.831.563 2.16 4.343 1.432 8.967.915 13.31-.188 3.99-1.009 7.887-2.465 11.596-4.202a68.647 68.647 0 0 0 20.047-14.272c.61-.634.399-1.408-.118-1.854.775-.939 1.174-2.113 1.291-3.381.188-2.159-.258-4.413-.493-6.572a988.215 988.215 0 0 1-1.972-21.784 888.241 888.241 0 0 1-1.807-29.507 856.892 856.892 0 0 1-.587-58.637c.047-2.324.118-4.648.188-6.972 3.521-.024 7.042-.211 10.563-.517 2.888-.258 5.775-.563 8.639-.868 2.37 15.587 4.6 31.173 6.643 46.807a2383.616 2383.616 0 0 1 5.68 46.619c.986 8.85 1.925 17.723 2.817 26.596.071.704.517 1.244 1.244 1.291 6.08 8.732 13.827 16.244 22.77 21.995a78.555 78.555 0 0 0 6.972 3.99c1.995 1.01 4.342 2.277 6.643 1.667 2.582-.681 2.934-3.357 2.113-5.563-1.01-2.723-2.277-5.352-3.569-7.958-2.887-5.821-6.29-11.385-10.117-16.643a5.523 5.523 0 0 0 1.291-1.62c.986-1.854.939-3.99.892-6.032-.07-2.582-.14-5.165-.187-7.747-.118-5.07-.259-10.164-.376-15.234l-1.549-61.431c-.282-11.385-.587-22.77-.869-34.178.118-.071.258-.118.376-.188a36.726 36.726 0 0 0 4.577-2.629c1.221-.822 2.606-1.69 3.286-3.028.846-1.643.329-3.827.188-5.564-.141-2.018-.305-4.061-.446-6.079-.328-4.366-.634-8.733-.962-13.099a1.457 1.457 0 0 0-.164-.563v-.188c-.587-5.821-1.151-11.643-1.738-17.464.118-.047.212-.094.329-.165.47-.305.939-.634 1.409-.939.915.939 1.22 2.465 1.572 3.639a99.68 99.68 0 0 1 1.597 5.751 88.15 88.15 0 0 1 2.065 11.854c.211 1.972.352 3.967.423 5.962.07 1.526.047 3.404 1.948 3.756 3.193.587 3.732-3.568 3.897-6.408.047.563.094 1.127.117 1.667.047.704.563 1.291 1.291 1.291 1.714.023 2.723-1.104 3.333-2.512v.07c.212 1.221 1.151 2.324 2.512 1.996 1.315-.329 1.878-1.761 2.183-2.935.258-1.032.493-2.089.681-3.122.376.446.869.775 1.549.845 1.385.141 2.348-.962 2.794-2.159.516-1.338.563-2.934.657-4.343a29.254 29.254 0 0 0-.024-4.976zM48.098 55.181c-.188-.868-.4-1.76-.446-2.652-.047-.61-.117-2.489.634-2.817.563-.258 2.089 1.103 2.511 1.408a50.138 50.138 0 0 1 2.277 1.62c.024 3.427.188 6.854.493 10.258-3.52-.375-4.788-4.812-5.47-7.817zM78.99 197.41a7.684 7.684 0 0 0-1.902-1.267 8.76 8.76 0 0 0 1.526-1.925 316.24 316.24 0 0 1 22.605-.376c-.047 10.47.399 21.596 7.348 30.047 2.934 3.568 6.971 6.408 11.549 7.3.469.094.962.141 1.432.235.61.117.892.141 1.033.751.14.681-.047 1.549-.047 2.23l-.071 2.817c-.094 3.193-.188 6.385-.258 9.577l-.563 20.517c-5.118.258-10.235.446-15.329.023-5.399-.469-10.704-1.784-16.126-2.066-5.423-.305-10.845.493-16.197 1.315a3922.23 3922.23 0 0 0-16.573 2.512c-5.822.868-11.643 1.76-17.465 2.629-.962-6.385-1.948-12.77-2.91-19.155 4.436-3.451 7.183-8.662 7.582-14.272 0-.117 0-.258-.047-.376 1.948-1.197 2.23-3.779 1.29-5.751-.61-1.314-1.713-2.159-2.957-2.793 2.723-3.122 5.164-6.502 7.207-10.094a61.762 61.762 0 0 0 2.934-5.845c.117-.258.235-.563.328-.868 3.874-.259 7.747-.446 11.62-.799 1.456-.14 2.77-.563 3.38-2.018.704-1.714 1.033-3.686 1.503-5.493 0-.047.023-.071.023-.118a57.291 57.291 0 0 0 8.873-4.718c.61-.422.845-1.432.212-2.019zM42.464 236.8a107.729 107.729 0 0 1-13.967-4.249c-2.465-.939-4.906-1.949-7.277-3.146-1.971-.986-4.108-2.253-5.07-4.342-.798-1.737-.751-4.132 1.08-5.188 1.76-1.009 4.06-.47 5.704.493.422.235.822.516 1.197.798.164.235.4.446.68.54 1.175.986 2.23 2.089 3.381 3.098 1.784 1.597 3.756 2.982 5.916 4.038 2.277 1.127 4.741 1.62 7.065 2.582.963.399 1.995.986 2.418 2.019.329.798.352 1.878-.493 2.347-.446.258-.634.634-.634 1.01zm11.925-26.878c.282-.54.634-1.033 1.08-1.385.75-.61 1.83-.704 2.746-.892.94-.188 1.901-.376 2.84-.587a55.552 55.552 0 0 0 5.845-1.737c-.258.986-.493 1.972-.798 2.958-.187.634-.305.821-.986.915-.774.118-1.596.118-2.37.165-2.794.187-5.587.375-8.357.563zm19.46-22.159a15.525 15.525 0 0 1-3.897 2.84c-.094.047-.164.117-.258.188a71.98 71.98 0 0 0-12.324.634c-1.643.234-.939 2.723.68 2.488 4.062-.564 8.17-.704 12.254-.517.47.024.798-.164 1.01-.446 1.525-.07 2.98.235 4.319.939l.023.024a5.75 5.75 0 0 1-2.206 1.526c-4.953.68-9.836 1.69-14.625 3.098-1.596.47-.915 2.958.681 2.488 4.249-1.244 8.592-2.23 12.981-2.863.212.093.47.117.775.047.822-.188 1.643-.165 2.394.093-3.192 1.925-6.572 3.545-10.117 4.742a52.232 52.232 0 0 1-5.962 1.69c-1.902.423-4.061.493-5.634 1.737-1.526 1.197-2.09 3.099-2.793 4.836-.775 1.925-1.69 3.779-2.676 5.61a59.24 59.24 0 0 1-7.512 10.798c-.235.258-.329.54-.329.798-.282-.094-.563-.164-.821-.258-2.77-.822-5.352-1.972-7.723-3.638-1.855-1.315-3.404-2.982-5.094-4.46 3.544-6.268 6.455-12.911 8.591-19.765 1.15-3.639 2.066-7.348 2.794-11.08.399-2.136.61-4.977 2.018-6.784.094 1.268.212 2.512.306 3.779-1.409.634-.752 3.005.798 2.442a192.836 192.836 0 0 1 18.709-5.681c2.816-.704 5.68-1.502 8.544-1.995.07.493.399.774.822.892-.259.211-.54.399-.799.586-.75.564-1.385 1.127-1.807 1.925-3.897.446-7.77.869-11.667 1.315-1.643.188-1.643 2.77 0 2.582l12.606-1.408c.235-.024.422-.094.587-.212a7.96 7.96 0 0 1 5.352 1.01zm-31.667-18.005c-.117 0-.21.024-.305.047-.164-1.995-.328-3.99-.493-5.962-.093-1.244-.21-2.488-.305-3.733-.047-.469-.281-1.314-.14-1.76.023-.047.023-.094.046-.141.141-.07.282-.141.376-.235h.376c4.929-.234 9.882-.187 14.811-.258 4.484-.07 8.991-.141 13.474-.188-.14 3.85-.328 7.723-.563 11.573h-.047a250.921 250.921 0 0 0-27.23.657zm27.113 1.878a621.8 621.8 0 0 1-.446 6.808c-.141.023-.282.046-.4.07-1.83.376-3.661.775-5.492 1.197a200.146 200.146 0 0 0-19.789 5.681l-1.08-13.052h.094a261.214 261.214 0 0 1 27.113-.704zm-29.882-17.723c1.525-.446 3.192-.516 4.788-.61 3.474-.211 6.972-.094 10.446.047 3.498.141 6.972.329 10.47.258 1.62-.023 3.239-.211 4.858-.258.752-.024 1.667-.047 2.23.54.376.375.54 1.174-.258.939-.352-.094-.657-.071-.915.07-8.31.118-16.62.235-24.93.376-1.807.023-3.872-.211-5.633.211a2.68 2.68 0 0 0-.869.352 9.913 9.913 0 0 1-2.206.024c-.047-.963 1.197-1.714 2.019-1.949zm-.916 6.385c.305 3.826.634 7.653.94 11.502.21 2.512.422 5 .61 7.512-2.536 1.643-3.38 4.601-3.92 7.418-.635 3.357-1.339 6.713-2.254 10a275.539 275.539 0 0 0 4.624-36.432zm-5.727-14.835a66.325 66.325 0 0 0 2.253 4.929c.399.775.751 1.667 1.291 2.324-1.15 1.056-1.784 2.723-1.291 4.272.188.587.563.963 1.056 1.221 0 .047-.023.117-.023.164a280.895 280.895 0 0 1-8.24 53.92 1.16 1.16 0 0 0 0 .634 106.96 106.96 0 0 1-2.934 5.633c-1.948-1.291-4.202-2.018-6.549-1.69-2.37.329-4.436 1.902-5.047 4.272-.305 1.174-.329 2.23-.117 3.24-1.174-.517-2.207-1.244-3.146-2.207-1.15-1.197-2.98.634-1.83 1.831a12.259 12.259 0 0 0 3.544 2.582c-.211.212-.423.423-.61.681-1.01 1.291.798 3.146 1.83 1.831.517-.657 1.104-1.127 1.832-1.408 1.924 2.347 5.07 3.99 7.699 5.164a106.515 106.515 0 0 0 19.413 6.479c-.61 4.53-3.075 8.802-6.784 11.478-4.131 3.005-9.624 3.897-14.53 2.489-10.728-3.099-14.789-15.024-16.22-24.93-1.785-12.229-1.386-24.718-.33-36.994C5.07 179.5 6.244 167.34 9.624 155.862c3.216-10.869 8.944-21.432 18.286-28.169.07.516.188 1.033.259 1.526.305 1.878.68 3.756 1.126 5.61a73.014 73.014 0 0 0 3.474 10.634zm57.956-35.939c1.573.493 3.099 1.69 4.413 2.676.564.399 1.08.845 1.62 1.291.07.094.165.188.282.259-5-.235-9.93-1.01-14.765-2.277.822-.259 1.666-.54 2.488-.799 1.808-.586 4.061-1.713 5.963-1.15zm-21.9-19.248c4.389 2.558 9.46 3.92 14.577 3.638a26.686 26.686 0 0 0 4.53-.657l1.197 13.474c0 .047 0 .07.024.117-.822.047-1.644.235-2.465.493-2.066.634-4.131 1.315-6.174 1.972-.563.188-1.126.352-1.666.54h-.024a2722.39 2722.39 0 0 1-7.582-2.817l-2.817-1.056c.118-.188.212-.423.235-.681.258-5.023.329-10.023.164-15.023zm43.614-39.037c1.197-.54 1.056 2.7 1.009 3.216-.117 1.267-.493 2.535-1.033 3.685a12.249 12.249 0 0 1-2.136 3.192c-.399.423-.821.822-1.267 1.198-.282.21-.564.422-.869.61-.023.023-.047.023-.07.047a52.86 52.86 0 0 0-.376-4.32c.07-.07.141-.14.211-.234 1.573-2.347 2.629-4.836 3.31-7.441.329.211.751.258 1.221.047zm-63.286-17.09c-2.887-1.173-.352-5.093.822-6.596 1.807-2.276 4.084-4.06 6.666-5.351.94-.47.752-1.55.118-2.066a1.23 1.23 0 0 0-.235-.258c-4.084-3.686-6.22-9.437-5.211-14.883.07-.329.094-.704.235-1.033.164-.422.047-.446.54-.258.586.211 1.197.892 1.666 1.291a34.78 34.78 0 0 1 3.146 3.028c2.042 2.254 3.732 4.836 5.046 7.582.61 1.268 2.3.493 2.395-.657.305-3.192 2.441-6.972 5.61-8.122 1.103-.399 1.526.563 2.019 1.385.493.822.939 1.667 1.338 2.559.868 1.901 1.408 3.943 1.737 6.009.164 1.056 1.901 1.291 2.37.305 1.667-3.615 3.64-8.004 7.912-8.967 1.643-.375 3.497-.047 4.483 1.409.845 1.197 1.056 2.934-.047 4.037-.892.892 0 2.535 1.268 2.16 1.69-.517 3.075-1.503 4.483-2.512 1.315-.939 2.91-2.042 4.648-1.854 3.615.399 1.643 5.399.681 7.277a1.297 1.297 0 0 0 1.76 1.76c3.099-1.502 7.301-1.808 9.601 1.22.892 1.15 1.291 2.7.704 4.085-.587 1.385-1.854 2.348-3.356 2.277-1.315-.047-1.597 1.573-.822 2.277 1.056 7.934 1.995 16.55-1.338 23.943a156.14 156.14 0 0 0-2.465-26.854c0-.047-.023-.07-.023-.117-.118-1.15-1.761-1.855-2.348-.587-.892 1.901-1.15 3.944-1.854 5.916-.493 1.384-1.831 3.356-3.592 3.098-1.76-.258-2.112-3.357-2.418-4.695-.516-2.394-.704-4.812-.633-7.277.047-1.549-2.019-1.62-2.535-.352-.869 2.136-1.831 4.225-2.935 6.244-.915 1.714-1.948 4.132-3.591 5.282-1.714 1.197-3.45-.704-4.014-2.23-.798-2.136-.587-4.577-1.103-6.784-.259-1.08-1.831-1.268-2.371-.305-2.23 4.014-5.305 7.511-9.085 10.117-1.338.939-4.249 2.723-4.342-.14-.047-1.034.422-1.973.821-2.912.47-1.103.845-2.136.986-3.333.141-1.127-1.502-1.666-2.207-.915-1.924 2.042-4.248 3.685-6.877 4.765-2.09.845-5.352 1.972-7.653 1.033zm16.901 51.01c-5.892-5.141-8.708-12.23-9.67-19.86-1.198-9.647-.87-19.647.046-29.318l.211-.07a22.16 22.16 0 0 0 5.4-2.77c-.423 1.15-.705 2.323-.33 3.685.775 2.863 3.663 3.38 6.08 2.23 2.536-1.22 4.883-3.31 6.831-5.305a34.607 34.607 0 0 0 3.24-3.92c.164 1.69.399 3.356 1.267 4.859 1.198 2.018 3.522 3.661 5.963 2.934 2.465-.751 3.802-3.404 5-5.47a81.003 81.003 0 0 0 1.69-3.145c.164 1.314.422 2.629.751 3.897.563 2.183 1.455 4.67 3.92 5.21 2.23.494 4.39-.938 5.657-2.675.54-.751.892-1.573 1.151-2.441a152.317 152.317 0 0 1 1.525 25.539c0 .423.141.728.399.939.212 1.596.329 3.216.376 4.836v.164c.117 5.727-.892 11.526-3.944 16.432-2.676 4.295-6.924 7.488-11.713 9.154-.704-.68-2.113-.47-2.183.658-.963.234-1.948.422-2.934.516-6.808.751-13.592-1.596-18.733-6.08zm-5.54 27.464a43.562 43.562 0 0 1 2.23-2.441c.681-.705 1.409-1.573 2.23-2.113.963-.61 2.23.188 3.17.54l3.263 1.22c1.15.423 2.3.869 3.474 1.291-2.277.728-4.53 1.456-6.808 2.184-3.24 1.032-6.526 2.065-9.906 2.347a40.266 40.266 0 0 1 2.348-3.028zm18.404 35.915c-2.629.141-5.305-.165-7.958-.376-4.413-.375-8.873-.962-13.051-2.511-7.981-2.935-13.122-9.836-16.643-17.301a56.107 56.107 0 0 1-1.408-3.239c-.212-.517-.4-1.033-.61-1.526-.165-.446-.564-1.08-.494-1.573 0-.07.047-.164.094-.234.141-.118.258-.235.352-.376.728-.587 2.23-1.033 2.77-1.314l3.756-1.785c3.756-1.784 7.488-3.544 11.244-5.328a48.752 48.752 0 0 0-2.37 3.404c-.54.845.187 1.901 1.102 1.948 3.92.117 7.7-.845 11.409-1.995a645.172 645.172 0 0 0 9.46-3.028 224.027 224.027 0 0 1 2.347 35.234zm30.187-28.897c-1.338 3.827-3.215 7.489-5.469 10.869-4.483 6.784-10.915 13.122-18.356 16.572-1.245.587-2.512.939-3.78 1.174a223.411 223.411 0 0 0-2.347-34.976 74.524 74.524 0 0 0 21.197 3.146c.751 0 1.22-.587 1.267-1.245 1.01.329 2.043.681 3.052 1.033 1.127.399 2.253.822 3.357 1.291.328.141.939.306 1.197.587.375.446.07 1.057-.118 1.549zm-51.783 359.15a66.592 66.592 0 0 1-10.868 4.061c-3.545.962-7.23 1.572-10.822.892 6.15-7.395 12.934-14.226 20.258-20.47 1.385 1.057 2.981 1.878 4.672 2.442 3.52 1.173 7.464 1.525 11.173 1.596.798.023 1.62 0 2.441-.141a65.82 65.82 0 0 1-16.854 11.62zm18.333-27.676c.235 2.324.47 4.624.704 6.948.165 1.643.705 3.944-.375 5.399-1.033 1.409-3.193 1.315-4.742 1.244a57.488 57.488 0 0 1-5.305-.446c-3.474-.469-7.113-1.432-9.624-4.037-2.63-2.723-3.38-6.643-3.92-10.235-2.794-18.521-4.906-37.159-6.949-55.774a1960.338 1960.338 0 0 1-5.375-56.196l-.423-5.329c.728.212 1.456.423 2.16.611 6.878 1.901 13.85 3.521 20.939 4.413 3.051.375 6.103.587 9.131.633a866.937 866.937 0 0 0 .047 56.338 871.196 871.196 0 0 0 3.732 56.431zm65.234 18.849a119.273 119.273 0 0 1 3.568 7.16 60.609 60.609 0 0 1 1.526 3.568c.329.822 1.033 2.347-.164 2.723-1.714.54-4.085-1.103-5.517-1.831a87.304 87.304 0 0 1-6.267-3.638 76.381 76.381 0 0 1-11.291-8.874c-3.451-3.286-6.62-6.854-9.413-10.704 4.061.047 8.122-.047 12.183-.328 2.183-.141 4.929-.165 7.206-.986a118.57 118.57 0 0 1 8.169 12.91zm-6.385-22.323c.047 2.042.423 4.859-1.408 6.291-1.667 1.314-4.225 1.244-6.221 1.408-5.187.399-10.375.517-15.563.399a2295.239 2295.239 0 0 0-5.094-45.868 2441.616 2441.616 0 0 0-6.173-47.135 2396.902 2396.902 0 0 0-3.803-26.009c3.333-.376 6.666-.751 10-1.103 6.267-.634 12.582-1.292 18.685-2.841a50.499 50.499 0 0 0 6.62-2.136c.492 19.225.962 38.45 1.455 57.675.493 19.765 1.009 39.53 1.502 59.319zm2.277-190.373c-1.385-12.441-2.864-24.883-4.624-37.277-1.737-12.347-3.193-25.023-6.995-36.948-1.831-5.774-4.742-11.056-6.925-16.69-2.183-5.657-2.629-11.525-1.995-17.535.704-6.69 2.464-13.239 3.638-19.858.282-1.667.54-3.334.751-5 .024-.212.047-.423.094-.658 12.535 11.197 19.765 27.019 23.873 43.098 2.488 9.766 3.991 19.765 5.305 29.742 1.362 10.375 2.676 20.774 4.014 31.15 1.456 11.314 2.911 22.628 4.39 33.966-7.207-.587-14.343-1.925-21.291-3.92a.45.45 0 0 0-.235-.07zm.305 2.746c6.949 1.949 14.061 3.24 21.244 3.803.869 1.76.963 3.85.165 5.657-.54 1.221-1.174 1.221-2.395 1.103a161.615 161.615 0 0 1-3.38-.375c-4.742-.587-9.46-1.479-14.108-2.582a1.267 1.267 0 0 0-.728.023c-.258-2.535-.539-5.094-.798-7.629zm27.864 35.845c-.071.751-.118 1.596-.352 2.3-.024.071-.071.141-.118.235-.047-.681.071-1.385.071-2.042a18.485 18.485 0 0 0-.188-3.005 20.867 20.867 0 0 0-1.408-5.305c-.493-1.197-2.723-1.244-2.536.352.282 2.606.352 5.235.165 7.864a37.782 37.782 0 0 1-.517 3.99c-.117.681-.352 1.385-.54 2.066-.047-.329-.07-.657-.117-.986-.164-1.385-.352-2.746-.516-4.131-.353-2.817-.705-5.657-1.057-8.474-.211-1.62-2.77-1.667-2.582 0 .329 2.934.634 5.892.563 8.826-.046 1.432-.164 2.84-.446 4.225-.07.329-.164.963-.352 1.526-.516-5.211-1.549-10.352-3.145-15.352-.423-1.314-2.676-1.174-2.535.352.469 4.695.915 9.437.68 14.178a39.185 39.185 0 0 1-.375 3.733c-.047.375-.094.774-.211 1.126-.024.094-.047.165-.071.259-.023-.047-.023-.094-.047-.165.165-1.103-.117-2.417-.188-3.521a77.212 77.212 0 0 0-.305-3.31 95.985 95.985 0 0 0-2.347-13.168 85.36 85.36 0 0 0-1.855-6.362c-.563-1.666-1.291-3.286-2.887-4.178-.375-.211-.915-.258-1.314 0-.47.305-.939.634-1.409.939-.258-2.559-.516-5.141-.798-7.7a137.01 137.01 0 0 0 17.723 2.982c.634.07 1.244.117 1.831.07.047.094.117.188.188.282 4.225 4.906 6.76 11.22 7.136 17.676.047 1.596.023 3.168-.141 4.718z"/></svg>