<?xml version="1.0"?>
<!--Icons from directory ""-->
<svg xmlns="http://www.w3.org/2000/svg" width="113" height="503" viewBox="0 0 113 503"><svg width="110" height="105" fill="none" id="Barista-Girl" y="0"><path d="M88.607 40.721a11.18 11.18 0 00-2.397-2.2c-1.065-.72-2.354-.67-3.505-.214-2.173.85-3.87 2.818-4.224 5.13-.087.55.138 1.108.727 1.271.493.138 1.194-.163 1.28-.721.018-.13.044-.25.07-.379.138.026.277.026.433-.008.173-.043.337-.103.502-.163.112-.009.225-.009.32.008.303.052.571.18.822.37.303.232.554.532.78.842-.209.154-.425.318-.633.472-.51.387-1.203.748-1.523 1.332-.675 1.255.692 2.432 1.748 2.861 2.164.868 4.337-.344 5.583-2.105.675-.954 1.134-2.114 1.203-3.273.06-1.212-.441-2.303-1.186-3.223zm-5.175 6.488c.112-.086.224-.164.337-.25 0 .18.052.361.147.507-.043-.017-.086-.026-.13-.043a1.15 1.15 0 01-.355-.215zM55.008 93.752c-.018-.524-.381-1.04-1.004-.98-.78.07-1.428.353-2.043.705a27.83 27.83 0 00-2.917.464.863.863 0 00-.502.318c-.519-.954-2.233-.404-1.904.79.416 1.521 2.147 2.149 3.584 1.745.744-.206 1.393-.636 2.025-1.074.052-.035.112-.078.164-.112a9.09 9.09 0 00.45-.146c.433-.034.875-.06 1.316-.069.917-.026 1.203-1.04.83-1.64zM28.48 27.077a.322.322 0 00-.095-.043c.095-.928-1.342-1.58-1.948-.601a26.06 26.06 0 00-2.83 6.315c-.13.438.087.937.476 1.169.424.249.892.128 1.255-.164.64-.515 1.29-1.03 1.93-1.546.52-.421 1.09-.817 1.523-1.332.953-1.126 1.126-2.982-.311-3.798zM49.935 14.55v-.017c-.009.009-.009.018 0 .018z" fill="#A37356"/><path d="M52.81 8.397c-.148-.36-.433-.653-.797-.73l-.095-.146A17.263 17.263 0 0049.071 3.2c-.303-.335-.701-.37-1.048-.24a5.502 5.502 0 00-2.138-.98 1.2 1.2 0 00-.605.026 11.235 11.235 0 00-1.792-.602c-2.31-.567-4.752-.48-7.114-.532-2.138-.043-4.45-.267-6.51.447-4.405 1.52-5.512 6.805-5.72 10.886a30.736 30.736 0 00.017 3.342c.052 1.048.009 2.243.468 3.205.493 1.022 1.765 1.504 2.7.713.718-.61.658-1.59.779-2.354.303-1.968 2.224-3.368 3.739-4.545l5.721-4.468c2.146.859 4.25 1.821 6.3 2.887a80.02 80.02 0 013.255 1.804c.546.318 1.082.653 1.619.988.242.155.493.31.735.464.113.078.303.18.45.275v.043a1.5 1.5 0 00.148.37c.225.369.649.558 1.073.49.13-.018.242-.06.346-.112-.017.584-.07 1.16-.156 1.735-.086.55.139 1.108.727 1.272.546.146 1.134-.18 1.281-.722.831-3.024.667-6.298-.536-9.194z" fill="#A37356"/><path d="M57.24 63.482c.113-3.119.191-6.238.235-9.357.026-2.19.043-4.382.034-6.573a.94.94 0 00-.052-.318l.052-.498c.113-1.169.312-2.363.182-3.54-.139-1.272-.623-2.57-1.86-3.17-.728-.353-1.516.077-1.568.893L53.07 59.401c-.026.37-.052.739-.07 1.108-.016.3-.008.61-.094.86-.009.008-.009.025-.009.025-.06.035-.173.086-.164.086-.234.095-.502.12-.745.163-1.54.224-3.09.404-4.63.602-3.09.404-6.171.799-9.261 1.203l-2.398.309c-.588.077-1.237.189-1.826.052-.935-.224-1.307-1.117-1.575-2.002-.398-1.315-.623-2.698-.909-4.039-.329-1.512-.658-3.024-.978-4.528-.329-1.512-.658-3.024-.978-4.528l-.493-2.268c-.139-.645-.303-1.289-.719-1.822a1.884 1.884 0 00-.424-.404.952.952 0 00-.459-.601c-.389-.232-1.038-.163-1.332.223-.39.095-.745.31-.996.67-.06.01-.13.018-.19.035-.493.137-.944.747-.727 1.272.329.782.649 1.563.97 2.354-.018 1.048.069 2.105.207 3.162.329 2.56.744 5.112 1.22 7.647a136.475 136.475 0 003.748 15.045c.052.163.104.317.147.48-.363.121-.649.439-.658.946-.008 2.114.97 4.098 2.458 5.576l.078.078c.303.506.623 1.013.952 1.503.286.421.805.636 1.299.421a1.1 1.1 0 00.25-.155c1.013.516 2.104.877 3.212 1.109 2.345.481 4.76.481 7.14.36 2.493-.128 5.037-.395 7.444-1.048.242-.068.476-.137.718-.223.294.558 1.073.894 1.653.318 1.03-1.022 1.489-2.44 1.359-3.815a2.799 2.799 0 00-.251-1.306 1.15 1.15 0 00.433-.833l.181-2.638c.295-.12.537-.353.589-.67.623-3.523.614-7.08-.017-10.603.026-.026.017-.034.017-.043z" fill="#5F4C4C" fill-opacity=".9"/><path d="M91.35 81.878c-5.409.678-10.818-.421-16.227-.387.173-.172.337-.344.493-.515 1.385-1.564 2.493-3.343 3.358-5.233 1.774-3.9 2.545-8.154 3.012-12.39.19-1.744.32-3.737-.45-5.344.588-.645.814-1.521.623-2.406 0-.017-.009-.026-.009-.043a.871.871 0 00.13-.06 11.099 11.099 0 004.882-6.401c.026-.086.034-.172.026-.25 1.8-1.013 3.116-2.732 3.202-4.862.087-2.32-1.064-4.752-3.012-6.067-2.146-1.443-4.881-.807-6.872.602-2.32 1.65-3.635 4.648-2.268 7.329a.674.674 0 00.087.129c-.268.447-.493.91-.684 1.392-.736 1.847-.9 3.875-.935 5.842 0 .13.026.232.078.318l-.017.018c-.71.644-.995 1.795-.467 2.629-.468.309-.849.756-1.082 1.349a.51.51 0 00.043.447c-1.117 4.58-2.233 9.159-3.358 13.73a191.234 191.234 0 01-4.155-12.837c-.7-2.449-1.324-4.915-1.956-7.372-.57-2.242-1.246-4.528-2.527-6.487-1.272-1.942-3.124-3.566-5.427-4.133-.008 0-.017 0-.026-.008a3.378 3.378 0 00-.294-.318c-.788-.74-1.982-1.143-3.012-.79a.642.642 0 00-.355-.112c-2.164-.026-4.327-.052-6.482-.07a7.77 7.77 0 00-1.151-1.4.614.614 0 00-.641-.146c-.06-.945-.113-1.881-.173-2.827 0-.017 0-.043-.009-.06 1.281-.558 2.502-1.297 3.445-2.328 1.073-1.169 1.748-2.612 2.138-4.133.26-1.005.398-2.036.485-3.076a.617.617 0 00.467-.069c1.86-1.074 3.8-3.041 2.995-5.387-.286-.834-.91-1.486-1.74-1.736a13.255 13.255 0 00.147-10.44c-1.445-3.479-4.405-6.1-7.989-7.294C43.93.115 42.07-.126 40.27.064c-1.152.111-2.25.412-3.42.378C35.717.407 34.6.218 33.467.33c-3.636.335-6.777 2.792-8.5 5.92-2.285 4.167-1.973 9.21-.649 13.636-.199.171-.363.386-.476.635-.268.593-.216 1.238-.13 1.865.165 1.203.476 2.535 1.454 3.35.217.181.45.327.71.448a14.705 14.705 0 00-3.549 8.497c-.026.318.32.688.65.645 2.778-.353 5.323-1.9 6.854-4.21 1.455 2.414 3.835 4.072 6.578 4.785.243.06.494.12.745.172.052.696.112 1.392.164 2.088-.026.017-.052.043-.086.069a9.312 9.312 0 00-.944 1.082c-.043.009-.095.018-.147.035a121.38 121.38 0 00-7.78 2.947.786.786 0 00-.26.163c-.762.18-1.515.361-2.277.55-.7.163-1.463.3-1.956.868a1.929 1.929 0 00-.225.318c-1.913.326-3.419 1.847-4.189 3.557-.96 2.14-1.047 4.562-1.29 6.865-.51 4.94-1.03 9.88-1.54 14.821-.424 4.099-1.09 8.37-.13 12.45.467 1.968 1.367 3.807 2.744 5.302 1.506 1.64 3.436 2.852 5.288 4.064A169.796 169.796 0 0038.39 99.44c.104.052.2.077.295.077.051.095.12.18.207.241.044.06.095.112.165.155.441.309.883.618 1.333.936.407.284.84.688 1.376.61a.921.921 0 00.32-.103c1.013 1.151 2.389 1.873 3.8 2.432 1.61.644 3.34 1.237 5.097 1.211 1.49-.017 3.082-.533 4.077-1.675.415-.473.684-1.074.563-1.702.233-3.101.311-6.203.225-9.313-.044-1.487-.035-3.033-.251-4.503-.096-.653-.442-1.185-1.09-1.409-.633-.215-1.394-.206-2.043-.189-1.472.043-2.926.361-4.32.808-.692.223-1.375.472-2.06.73-.553.215-1.375.378-1.739.885-.433.602-.035 1.418.156 2.045.216.748.441 1.495.658 2.251.207.722.424 1.444.631 2.165.01.043.026.086.035.13 0 0-.009 0-.009.008-.493.232-.978.464-1.471.687-.208-.171-.459-.3-.684-.438-.441-.258-.874-.515-1.315-.773-.303-1.564-1.506-2.947-2.484-4.107-2.173-2.578-4.709-4.829-7.297-6.994a.608.608 0 00.182-.095c6.12 1.109 12.403 2.071 18.617 1.263 1.775-.232 3.523-.593 5.228-1.134a.566.566 0 00.277-.172l10.62-.403a.629.629 0 00.45-.198c.684.576 1.506.936 2.536.91 1.064-.025 2.068-.403 2.977-.962h.026c5.964-.318 11.918 1.092 17.873.344.346-.043.649-.266.649-.644 0-.31-.303-.68-.65-.636zM80.793 39.897c1.393-1.178 3.583-2.054 5.34-1.203 1.61.782 2.605 2.5 2.882 4.21.32 1.993-.597 3.694-2.31 4.717a7.409 7.409 0 01-2.84.988c-.562.069-1.09.009-1.558-.327-.441-.326-.77-.781-1.09-1.22.078-.137.173-.266.277-.386.173-.198.355-.361.554-.498.415.249.623.773 1.047 1.04.666.411 1.437.24 2.094-.095 1.16-.585 2.51-1.538 2.796-2.879.312-1.452-.51-2.818-1.42-3.883-.51-.602-1.125-1.006-1.938-1.023-.693-.017-1.402.232-2 .559a5.176 5.176 0 00-2.553 3.42c-.043.197 0 .369.087.498-.364.283-.693.61-.987.953-.649-1.77.225-3.694 1.619-4.871zm2.977 3.067c-.744-.395-1.523-.3-2.25.009a3.915 3.915 0 011.912-2.045c.502-.25 1.22-.473 1.731-.13.537.362.97 1.075 1.255 1.633.286.559.45 1.22.19 1.822-.233.532-.743.91-1.22 1.228-.372.25-1.185.928-1.653.62-.173-.113-.311-.344-.441-.516.537-.215 1.047-.533 1.186-1.135.156-.618-.156-1.194-.71-1.486zm-3.462 2.457c.606-.653 1.714-1.684 2.709-1.374.095.025.208.103.208.086 0 .017-.13.128-.217.18-.493.266-1.056.352-1.532.662a4.346 4.346 0 00-1.999 3.47c-.034.783 1.125.826 1.281.13.554.636 1.22 1.168 2.103 1.306.909.137 1.878-.052 2.77-.361a9.774 9.774 0 01-4.033 4.863.117.117 0 00-.035.026 4.058 4.058 0 00-1.54-1.16c-.624-.267-1.36-.395-2.035-.284.07-2.655.433-5.525 2.32-7.544zm-2.605 8.996c.536-.386 1.35-.232 1.904.035.571.275 1.09.739 1.264 1.366.095.335.06.739-.104 1.065a4.865 4.865 0 00-.433-.404 3.649 3.649 0 00-2.83-.782c-.018-.034-.026-.06-.052-.085-.277-.396-.139-.911.25-1.195zM48.889 44.7a7.817 7.817 0 00-.571-3.824c1.722.017 3.445.035 5.167.06a208.5 208.5 0 01-.355 15.775c-.078 1.35-.113 2.715-.286 4.056-.069.515-.328.593-.83.679-.658.103-1.325.18-1.983.266-1.886.24-3.782.447-5.677.619-.494-5.757-.978-11.514-1.472-17.28.338.181.667.379 1.004.568.589.335 1.177.67 1.775 1.005.502.284 1.142.816 1.757.816 1.185 0 1.376-1.89 1.471-2.74zm-10.153-4.855l-.285-3.566c2 .206 4.05-.017 5.946-.644.095 1.478.182 2.947.277 4.425a.723.723 0 00-.2.197c-.536.73-1.081 1.461-1.618 2.192-.268.369-.536.73-.813 1.1-.052.077-.113.145-.165.223-.069-.07-.173-.138-.225-.198a29.44 29.44 0 01-2.925-3.548.424.424 0 00.008-.18zm7.254.516l-.052-.885c.761.859 1.28 1.89 1.531 3.024.148.645.182 1.297.139 1.959-.026.318-.07.636-.147.945-.035.163-.087.327-.13.481-.017.06-.043.13-.06.19-.252-.12-.494-.301-.719-.43-.372-.207-.736-.421-1.108-.628-.666-.378-1.324-.824-2.025-1.142.052-.078.104-.155.156-.224l1.982-2.689c.25-.069.459-.266.432-.601zm8.066-19.401c.173 1.503-1.056 2.586-2.242 3.316.009-.3.026-.593.026-.893.026-1.186.052-2.363.07-3.549.285-.25.718-.292 1.09-.206.64.154.987.713 1.056 1.332zM25.52 8.054c1.177-2.981 3.808-5.559 6.994-6.29 2.008-.455 4.05.147 6.075-.154.927-.137 1.818-.31 2.753-.318.822-.008 1.644.069 2.45.232 3.305.679 6.317 2.698 7.996 5.637 1.94 3.385 2.052 7.741.269 11.212l-.113.026.026-1.547a.571.571 0 00-.242-.506c.06-1.1-1.23-1.788-1.99-2.355a65.91 65.91 0 00-2.883-1.993c-1.965-1.289-3.999-2.526-6.11-3.583-1.04-.515-2.147-.876-3.28-.447-.97.37-1.888.963-2.744 1.547a23.229 23.229 0 00-4.648 4.115 21.03 21.03 0 00-2.12 2.887c-.624 1.032-1.04 2.14-.936 3.334a2.56 2.56 0 00-1.488-.43c-1.09-3.685-1.445-7.724-.009-11.367zm-.502 14.418c-.086-.55-.329-1.65.476-1.762.693-.094 1.238.473 1.67.988a25.77 25.77 0 00.433 3.137.628.628 0 00-.57.163c-.061.051-.122.112-.183.172a1.678 1.678 0 01-.856-.421c-.64-.567-.84-1.487-.97-2.277zm-1.315 11.436a13.353 13.353 0 013.678-7.458c.19-.017.372-.06.554-.129.303 1.177.684 2.346 1.186 3.445-1.125 2.054-3.125 3.618-5.418 4.142zm7.616-2.861c-1.064-1.53-1.679-3.334-2.138-5.113a25.354 25.354 0 01-.7-4.098.674.674 0 00-.044-.601 21.67 21.67 0 01-.043-1.306.598.598 0 00-.113-.361c-.052-.902.407-1.788.874-2.544.468-.756.996-1.478 1.558-2.165a22.297 22.297 0 014.016-3.789 22.494 22.494 0 012.32-1.478c.39-.215.787-.455 1.229-.524.493-.077 1.004.086 1.454.284.943.42 1.835.953 2.726 1.46a67.496 67.496 0 012.735 1.641c.961.61 1.913 1.246 2.848 1.9.476.334.952.678 1.42 1.022.302.223 1.003.584.96 1.022-.017.198.087.378.25.498-.016.825-.025 1.642-.042 2.466-.139.224-.121.447-.009.62-.017.79-.026 1.58-.043 2.37-.026 1.487-.052 2.99-.269 4.468-.207 1.41-.588 2.819-1.341 4.047-.796 1.298-2.008 2.217-3.367 2.879-4.578 2.25-11.208 1.744-14.28-2.698zm4.683 11.848c.26-1.04.718-2.019 1.358-2.87a.56.56 0 00.104.43c.589.85 1.212 1.676 1.878 2.475.312.378.64.739.97 1.1.147.154.285.326.441.48-.51.353-1.021.705-1.55 1.032a38.71 38.71 0 01-2.085 1.22c-.294.154-.58.3-.883.43-.138.06-.078.017-.095-.01-.087-.11-.104-.343-.139-.48-.328-1.246-.311-2.56 0-3.807zm-.71-1.89a9.51 9.51 0 00-.797 3.059 8.863 8.863 0 00.312 3.23c.139.482.355.928.848 1.117.58.224 1.16-.034 1.68-.3a35.98 35.98 0 003.462-2.062c.276-.19.545-.404.822-.61.484 5.67.96 11.341 1.445 17.003-.06.009-.112.009-.173.018 0-.052-.009-.112-.017-.164-.078-.3-.165-.61-.243-.91-.086-.327-.467-.559-.796-.447-.337.111-.545.447-.45.79.078.275.147.559.225.834-2.778.215-5.565.36-8.343.446-1.333-6.564-2.666-13.128-3.99-19.701 1.982-.825 3.99-1.59 6.015-2.303zM54.54 97.627c-.035-.008-.06-.008-.095-.017l.103-.155c0 .06-.008.112-.008.172zm.043-2.337c-.545-.37-1.402-.189-1.973.009-.684.24-1.299.618-1.922.98-1.047.61-2.553 1.176-3.22-.216-.302-.627-.45-1.349-.64-2.019 2.623.722 5.453.258 7.738-1.185.017.816.026 1.623.017 2.431zm-7.01-6.71c1.497-.533 3.055-.989 4.656-1.066.398-.017.796-.017 1.194.009.087.008.2.008.303.017a9.203 9.203 0 01-7.348 1.478c.39-.146.788-.292 1.194-.438zm-1.827 1.77l-.052-.164c2.934.8 6.206.232 8.681-1.53v.078l.078 1.28c.026.447.044.886.06 1.332-.043.026-.086.052-.129.086-2.198 1.701-5.236 2.105-7.842 1.177-.051-.017-.103-.025-.147-.034l-.294-1.014c-.112-.404-.234-.808-.355-1.211zm-2.017 8.91c.269-.43.52-.877.745-1.332.13-.258.268-.524.32-.8l1.428-.67c.06.147.13.284.208.422.753 1.34 2.285 1.59 3.652 1.1.667-.241 1.264-.61 1.87-.963.32-.18.649-.37.995-.49.156-.051.312-.103.468-.129.078-.017.155-.025.242-.025h.009c-.182.661-.97 1.254-1.48 1.538-.978.532-2.147.627-3.246.687-.684.034-.935 1.151-.173 1.263 1.255.189 2.518.129 3.739-.24.311-.095.623-.215.926-.344.06-.026.58-.224.761-.344v.026c0 .18-.06.344-.147.498-.856 1.564-3.063 2.234-4.665 1.444-.744-.37-1.367.67-.657 1.117 1.116.696 2.449.936 3.747.747a5.313 5.313 0 001.792-.601.601.601 0 01-.052.154c-.693 1.014-2.164 1.401-3.324 1.401-1.497 0-2.968-.516-4.353-1.048-1.342-.516-2.64-1.177-3.583-2.277.285-.361.536-.74.779-1.134zm-2.336-1.487c.441-.455.77-.98.917-1.572l.26.155c.164.094.329.197.493.292.113.068.372.163.45.275 0 .008-.009.017-.009.025-.026.07-.051.138-.086.198-.087.18-.182.36-.277.541-.165.31-.346.619-.537.92a19.847 19.847 0 01-.943 1.383l-.087.112c-.484-.353-.986-.696-1.48-1.04.347-.49.9-.868 1.299-1.289zm-7.219-11.04c1.377 1.228 2.718 2.5 3.956 3.866a27.497 27.497 0 011.757 2.113c.502.68.986 1.418 1.177 2.26.19.877-.173 1.521-.796 2.114-.433.42-.857.799-1.195 1.263-.009 0-.009-.009-.017-.009a173.567 173.567 0 01-11.936-6.942c-1.843-1.177-3.747-2.329-5.444-3.703-1.532-1.246-2.778-2.758-3.47-4.623-1.35-3.634-.91-7.656-.52-11.419.494-4.769.996-9.537 1.489-14.314.139-1.306.268-2.612.407-3.918.13-1.22.234-2.45.536-3.643.442-1.77 1.472-3.583 3.255-4.193.052.661.268 1.34.433 1.941.779 2.87 1.332 5.8 1.8 8.73.285 1.761.536 3.531.787 5.293a103.103 103.103 0 01-1.93 19.358c-.155.808 1.09 1.16 1.255.344.018-.112.044-.215.06-.327 1.61.318 2.987 1.229 4.242 2.251 1.42 1.143 2.795 2.346 4.154 3.557zm-6.733-18.405c.32 1.847.692 3.677 1.15 5.499.71 2.861 1.645 5.67 2.892 8.352-.044-.01-.078-.018-.122-.026a.746.746 0 00-.476.06c-1.436-1.16-3.012-2.217-4.864-2.552a103.674 103.674 0 001.42-11.333zm28.397 13.739c-.009.069-.009.137-.009.197a.615.615 0 00-.337.353c-5.66 1.606-11.65 1.314-17.423.48a148.41 148.41 0 01-5.132-.85c-2.433-4.975-3.627-10.413-4.51-15.844a301.93 301.93 0 01-.735-4.88v-.91a.585.585 0 00-.2-.465c-.51-3.54-1.038-7.08-1.843-10.568a69.553 69.553 0 00-.58-2.32c-.173-.644-.433-1.314-.415-1.985.026-.73.64-.825 1.255-.97.71-.172 1.42-.344 2.12-.508 1.35 6.677 2.71 13.361 4.06 20.037.051.267.354.481.623.473a177.746 177.746 0 0019.075-1.547c.589-.077 1.212-.137 1.688-.524.502-.404.606-.996.658-1.598.06-.713.112-1.418.156-2.13.199-2.845.337-5.697.415-8.541.087-2.973.104-5.946.052-8.919.745-.335 1.653.12 2.095.773.7 1.031.632 2.415.632 3.6.008 2.99.025 5.972.008 8.962-.008 1.53-.026 3.05-.052 4.58a.53.53 0 00-.043.49l.026.077c-.078 4.193-.234 8.386-.545 12.57a128.797 128.797 0 01-1.039 9.967zm1.281.112c.891-6.195 1.342-12.433 1.54-18.688.01-.215.01-.421.018-.636a213.2 213.2 0 004.302 10.628 182.55 182.55 0 003.09 6.762c.259.533.553 1.066.9 1.547-3.29.137-6.57.258-9.85.386zm13.658.3c-1.939.224-2.9-1.426-3.618-2.93a208.13 208.13 0 01-2.83-6.169 213.123 213.123 0 01-5.566-14.03c.104-4.898.122-9.804.035-14.693-.009-.705-.06-1.461-.242-2.174 3.574 1.53 5.037 5.765 5.937 9.28 1.238 4.802 2.527 9.588 4.068 14.305.883 2.698 1.818 5.37 2.813 8.025.208.559 1.09.662 1.255 0l3.973-16.256a.56.56 0 00.008-.266c.33-.421.909-.636 1.428-.645.77-.017 1.446.421 1.904 1.005 1.247 1.599.91 3.833.693 5.697-.433 3.78-1.134 7.63-2.666 11.144-.744 1.71-1.688 3.36-2.882 4.812-1.073 1.306-2.536 2.689-4.31 2.895z" fill="#010202"/><path d="M38.45 6.413l-.52-3.609c-.052-.343-.493-.532-.796-.447-.372.104-.502.447-.45.79l.52 3.61c.051.343.492.532.795.446.373-.103.502-.438.45-.79zM31.405 20.65c-.32.12-.571.438-.45.79 0 .01.009.018.009.026-.044.207-.026.421.043.628.095.275.285.524.554.644.346.163.71.052.97-.215.691-.721-.087-2.26-1.126-1.873zM47.288 20.109c-.312-.155-.701-.077-.892.232a.643.643 0 00-.078.258c-.25.31-.346.704-.268 1.117.095.541.71 1.246 1.316.902.917-.533.856-2.036-.078-2.509zM41.67 52.948l-.234-1.598c-.052-.344-.493-.533-.796-.447-.372.103-.502.447-.45.79l.233 1.599c.052.344.494.533.797.447.363-.095.502-.447.45-.79zM42.181 58.421l-.276-1.821c-.052-.344-.485-.533-.797-.447-.372.103-.51.447-.45.79.095.61.19 1.212.277 1.822.052.344.485.533.796.447.364-.103.502-.447.45-.79zM54.203 67.864c-.242-.988-1.67-.962-2.467-.997-2.008-.077-3.99.353-5.998.353-4.137-.018-8.473-1.083-12.36.824-.389.19-.397.593-.207.877.294 3.127.822 6.736 3.765 8.54 1.54.945 3.419 1.23 5.193 1.35 1.913.128 3.878-.035 5.713-.61 1.713-.542 3.384-1.436 4.5-2.862 1.117-1.418 1.54-3.162 1.74-4.915.043-.395.078-.799.104-1.203.034-.43.12-.936.017-1.357zm-1.307 1.289c-.095 1.495-.26 3.067-.952 4.425-.727 1.426-2.008 2.397-3.462 3.024-1.55.662-3.263.945-4.942.962-1.636.018-3.35-.137-4.89-.704-3.306-1.22-3.869-4.829-4.163-7.896 2.908-1.22 6.24-.705 9.304-.524 1.766.103 3.48.034 5.245-.146.9-.086 1.809-.172 2.718-.138.216.009.432.026.657.043.096.009.416.112.546.103 0 .06-.009.13-.009.146-.026.232-.035.473-.052.705zM46.699 29.311c-.19-.326-.572-.378-.892-.232-2.787 1.263-5.998 1.435-8.915.55-.796-.24-1.142.997-.346 1.246 3.272.997 6.812.73 9.919-.679.329-.146.398-.601.234-.885zM41.765 25.324h-2.069c-.84 0-.84 1.289 0 1.289h2.069c.83 0 .84-1.289 0-1.289z" fill="#010202"/><path d="M107.576 75.525c-.323-.424-.761-.635-1.255-.794-.186-.065-.385-.105-.547-.215-.149-.11-.261-.273-.373-.416-.29-.387-.593-.767-.908-1.134a15.013 15.013 0 00-4.624-3.536.804.804 0 00-.826.06.63.63 0 00-.471.234c-.887 1.16-2.177 1.728-3.52 2.22-.706.26-1.42.495-2.119.773-.743.3-1.518.612-2.115 1.168-.31.287-.549.675-.646 1.09-.104.43.01.878-.088 1.294-.167.69-.71 1.315-.876 2.05-.406 1.803 1.275 3.299 3.01 3.203.973-.05 1.872-.493 2.62-1.097l.081-.066c.053.062.1.125.151.18.321.335.766.553 1.22.656.858.187 1.778.062 2.626-.125a8.97 8.97 0 002.477-.954c.377-.213.714-.464 1.064-.714.006 0 .012-.007.019-.014-.066-.08-.096-.251.01-.095.013.019.026.037.052.056a.46.46 0 00.094-.066c-.018.051-.029.09-.048.11.104.085.253.19.344.257.701.523 1.534.965 2.431.948.941-.017 1.702-.622 2.088-1.452.332-.708.591-1.535.558-2.322-.025-.47-.145-.931-.429-1.299z" fill="#A37356"/><path d="M102.532 79.335a.609.609 0 00-.063.04c.033.037.072.055.109.003-.02-.012-.033-.031-.046-.043z" fill="#A37356"/><path d="M108.101 75.377a3.158 3.158 0 00-2.405-1.184 3.493 3.493 0 00-.066-.36c-.242-.993-.999-1.965-2.018-2.231a.996.996 0 00-.504-.019c-.283-.629-.807-1.187-1.277-1.645a7.714 7.714 0 00-2.364-1.548c-.27-.114-.592-.01-.68.26-.101.04-.195.118-.262.216a6.869 6.869 0 01-2.383 2.12c-1.048.568-2.246.77-3.35 1.194-.995.381-1.967.947-2.548 1.87-.477.763-.61 1.758-.264 2.589a3.59 3.59 0 00-.998 1.055c-.745 1.227-.363 2.68.828 3.444.388.25.793.393 1.208.465l.022.075c.63 1.516 1.237 3.046 1.9 4.554.128.296.288.571.566.749.324.201.712.21 1.076.245.823.087 1.64.168 2.463.236 1.601.13 3.207.203 4.809.117.82-.046 1.639-.137 2.45-.273.298-.052.602-.098.865-.257.314-.193.477-.509.57-.854.463-1.805.791-3.65 1.183-5.473a.487.487 0 00-.006-.235c.149-.13.286-.274.422-.418.601-.638 1.2-1.353 1.361-2.24.137-.856-.058-1.767-.598-2.452zm-4.887-2.652a.365.365 0 00.097-.206c.012 0 .032.005.064.01.108.01.225.09.315.139.368.206.644.543.832.913.45.904.262 2.002-.142 2.884-.723 1.582-2.1 2.737-3.66 3.457-.874.398-1.816.67-2.766.822-.476.075-.971.126-1.455.12-.401-.003-.912-.053-1.156-.41a.474.474 0 00-.362-.206c-.222-.948.688-1.69 1.436-2.065.88-.442 1.828-.715 2.7-1.182 1.601-.862 3.058-2.126 3.875-3.775.085-.16.15-.334.222-.501zm-11.773 1.333c.732-.725 1.761-1.05 2.728-1.335 1.042-.313 2.078-.639 2.998-1.241a7.79 7.79 0 001.581-1.376c.291 3.14-3.683 4.78-6.142 5.454-.606.168-1.226.343-1.792.606-.248-.738.08-1.56.627-2.108zm-1.027 6.333c-.471-.261-.858-.702-.885-1.255-.028-.571.29-1.088.687-1.48.18-.183.386-.328.606-.46.019-.007.031-.02.05-.027.966-.553 2.197-.705 3.219-1.062 1.362-.48 2.707-1.15 3.81-2.101 1.157-1.003 1.997-2.5 1.798-4.064a.51.51 0 00.039-.211l-.004-.153a6.675 6.675 0 012.102 1.79c.218.287.468.604.528.972a.611.611 0 01-.042.09c-.198.469-.454.92-.755 1.329-.621.836-1.431 1.524-2.314 2.075-.508.318-1.048.599-1.602.83-.624.257-1.274.471-1.87.791-.999.535-1.838 1.536-1.764 2.684-1.153.443-2.466.884-3.603.252zm14.623 4.5c-.074.338-.141.683-.222 1.022-.068.295-.175.355-.466.413-.709.152-1.44.221-2.157.272-1.456.1-2.92.062-4.374-.034a79.12 79.12 0 01-2.157-.186l-1.046-.106c-.313-.03-.605-.01-.76-.311-.368-.71-.63-1.497-.936-2.233l-.875-2.095c.629-.054 1.26-.236 1.866-.448.23 1.494.466 2.982.695 4.477.039.253.21.471.49.464.235-.006.503-.236.464-.489l-.664-4.293c.507.4 1.184.49 1.845.474.033.78.085 1.561.13 2.342.012.197.03.4.041.597.01.101.012.203.015.304v.038a.473.473 0 00.002.3.49.49 0 00.72.293c.408-.227.208-1.074.186-1.442-.053-.838-.107-1.67-.141-2.508a13.3 13.3 0 001.489-.273 35.038 35.038 0 01-.03 4.247c-.042.612.912.58.954-.024.101-1.497.107-3.004.017-4.502l.227-.082c.422-.157.838-.34 1.24-.553-.195 1.569-.384 3.144-.579 4.713-.073.612.702.802.929.23l.09-.231a.344.344 0 00-.027-.305l.536-4.381c0-.013-.001-.02.005-.032.483.204.983.343 1.495.432a20.037 20.037 0 00-.786 3.58c-.032.255.077.507.346.576.224.058.545-.09.576-.345.159-1.263.432-2.51.827-3.722.287.006.586-.002.864-.054a769.01 769.01 0 01-.829 3.874zm2.288-6.296c-.239.35-.543.662-.834.969-.347.358-.642.525-1.144.544a5.684 5.684 0 01-2.392-.428c.824-.632 1.536-1.406 2.047-2.329.377-.677.644-1.434.713-2.205a2.134 2.134 0 011.823 1.104c.415.77.266 1.652-.213 2.345z" fill="#010202"/><path d="M1.607 91.876c.063-.568.323-1.037.584-1.534.236-.45.317-.93.423-1.42.12-.55.325-1.093.742-1.489.45-.427.986-.507 1.577-.386.109.023.214.05.32.06.073.007.134.004.167-.016.099-.058.171-.186.247-.274a1.858 1.858 0 011.938-.512c.27.089.373.344.326.61-.17.923-.795 1.647-1.065 2.526-.01.032-.018.064-.027.097.485.423.574 1.08.673 1.68v.007a.534.534 0 01.465.252c.412.616 1.077 1.035 1.797 1.208a2.82 2.82 0 001.06.04c.405-.064.814-.143 1.216-.096a.375.375 0 01.096-.115c.266-.2.528-.406.793-.606.336-.256.812-.081.825.366.018.59.01 1.183-.029 1.776-.034.527-.014 1.198-.519 1.519-.016.012-.037.02-.053.03.01.062.012.131.02.18.018.228-.016.46-.103.672a2.087 2.087 0 01-.995 1.052c-.487.248-1.038.303-1.579.293-.268-.003-.536-.026-.809-.037-.203-.009-.45-.052-.62.046-.086.05-.165.13-.252.184-.124.078-.256.14-.396.185-.234.08-.495.11-.743.103-.464-.011-.929-.129-1.364-.278-1.675-.567-3.141-1.767-3.989-3.32-.46-.825-.828-1.855-.726-2.803z" fill="#A37356"/><path d="M1.208 90.91c.097-.457.455-.74.866-.909l.131-.053a.279.279 0 01-.093-.311c.255-.916.616-2 1.535-2.453.429-.208.898-.237 1.355-.156a.307.307 0 01.142-.281 5.275 5.275 0 011.552-.692c.467-.123 1.044-.258 1.511-.076.21.083.393.23.46.447.087.278-.041.527-.181.763a7.948 7.948 0 01-1.036 1.352c.09.311.06.656-.09.949.108.092.203.196.281.324.247.392.28.869.28 1.324.483.065.968.325 1.18.782.047.099.077.197.099.295.419-.148.841.03 1.13.337.4-.327.965-.329 1.428-.13.198-.393.447-.773.87-.945.461-.187 1.016-.088 1.27.37.252.453.111 1.027.046 1.513l-.256 1.887c-.02.162-.133.302-.312.297-.017 0-.033 0-.053-.005.07.266.137.536.154.804.048.822-.761 1.143-1.421 1.342-.82.247-1.688.27-2.522.094a.276.276 0 01-.125-.056c-.154.305-.309.627-.61.814-.302.187-.673.19-1.013.137-.875-.14-1.734-.471-2.534-.845a.212.212 0 01-.104-.092 2.066 2.066 0 01-1.06-.214c-.583-.283-.988-.834-1.316-1.375-.305-.507-.704-1.115-.494-1.711-.227-.201-.4-.567-.501-.757a5.2 5.2 0 01-.491-1.341c-.099-.45-.179-.972-.078-1.429zm3.21-3.316c-1.076.078-1.465 1.292-1.711 2.172a15.81 15.81 0 012.407-.577c.441-.07.899-.136 1.345-.068.121.02.239.043.356.083a.667.667 0 00.03-.544c-.1-.259-.373-.388-.606-.507-.55-.287-1.18-.604-1.82-.559zm3.664-.996c-.035-.062-.202-.078-.263-.088-.385-.042-.82.08-1.18.194a4.68 4.68 0 00-1.055.485c.258.092.512.212.76.332.266.129.535.262.758.462l.02.021a7.28 7.28 0 00.69-.885c.055-.088.328-.418.27-.521zm5.048 8.2c.045-.34.09-.68.14-1.02.06-.442.174-.907.157-1.35-.012-.33-.231-.526-.56-.396-.3.118-.467.443-.605.732.35.346.549.84.683 1.306.067.242.126.487.185.728zm-3.422 2.4a4.393 4.393 0 002.582-.239c.21-.088.526-.194.569-.449.047-.267-.075-.575-.142-.832l-.255-1.023c-.125-.495-.25-1.043-.61-1.43-.297-.32-.875-.493-1.21-.136l-.004.004a.057.057 0 01.008.024c.217.746-.099 1.628-.32 2.337a14.667 14.667 0 01-.667 1.735c.02.005.032.005.049.01zm-2.283.78c.259.067.534.147.803.118.29-.03.413-.23.541-.47.312-.586.576-1.193.8-1.817.214-.604.434-1.249.52-1.889.04-.296.044-.645-.149-.894-.153-.199-.383-.306-.621-.215a.227.227 0 01-.147.005c-.082.343-.265.676-.46.968a43.573 43.573 0 01-2.808 3.671c.495.216 1.004.388 1.521.523zM2.996 95.32c.28.519.587 1.084 1.054 1.461.402.328.976.484 1.447.22A48.104 48.104 0 007.57 94.34c.422-.583 1.775-2.13.48-2.549-.472-.154-.949.025-1.366.254-.553.303-1.075.668-1.608 1.008-.538.344-1.076.684-1.614 1.028-.198.125-.417.253-.552.45-.178.255-.043.543.085.79zm-1.174-3.424a4.603 4.603 0 00.55 1.611c.042.079.089.157.14.232.011.016.035.057.058.103.045 0 .09.01.13.027.112-.09.232-.172.348-.247.306-.2.616-.395.926-.59.658-.418 1.312-.84 1.97-1.255.413-.261.867-.526 1.358-.62-.003-.532-.048-1.167-.632-1.369-.605-.21-1.33-.034-1.94.08-.748.144-1.485.345-2.204.603-.25.091-.583.2-.696.462-.117.282-.05.674-.008.963z" fill="#010202"/></svg><svg width="113" height="262" fill="none" id="Barista" y="105"><g opacity=".3"><path d="M60.92 55.033c-.076-.019-.151-.037-.227-.075-.113-.02-.15-.02.227.075z" fill="#FFF1E1"/><path d="M90.611 43.206c.019-.038.038-.076.038-.114.49-1.395-.302-3.263-1.603-3.942-1.49-.792-2.962-.472-4.226.547-.038.038-.094.075-.132.113-.038-3.735.056-7.489.283-11.224.15-2.49-3.15-4.565-5.244-3.018-1.076.792-1.868 1.717-2.51 2.792.19-.434.36-.868.53-1.32 1.018-2.547-1.944-4.962-4.302-4.302-2.886.812-4.829 3.547-4.923 6.49l-.378.283c-.15.056-.282.094-.433.132-.038.018-.057.018-.076.037H67.296c-.02 0-.057-.018-.076-.018-.019 0-.019-.02-.038-.02l-.056-.056c0-.019-.019-.019-.019-.038-.15-.32-.34-.622-.49-.943-.038-.094-.076-.15-.095-.189-.038-.075-.056-.132-.094-.207-.076-.17-.132-.34-.208-.51a7.442 7.442 0 00.34-1.867c.094-1.452-1.15-3.037-2.566-3.358-1.452-.34-2.64.17-3.584 1.189-.433.17-.83.415-1.188.754-.906.868-1.434 1.868-1.736 3-.056.018-.094.056-.15.075a8.009 8.009 0 01-.49.226c-.17.076-.34.133-.51.208-2 .811-4.037 1.717-5.603 3.188.02-.736.057-1.49.095-2.226.113-1.83-1.68-3.565-3.49-3.49-1.98.095-3.377 1.528-3.49 3.49a64.09 64.09 0 001.019 15.883 15.687 15.687 0 01-.396-.584c-.397-.585-.736-1.208-1.076-1.83-.15-.283-.302-.585-.434-.887-.037-.075-.075-.17-.113-.264-.019-.019-.019-.056-.038-.113-.226-.68-.471-1.34-.679-2.019-.509-1.754-2.49-3.018-4.3-2.433-1.793.585-2.981 2.415-2.434 4.301 1 3.47 2.679 6.527 4.942 9.319.83 1.037 2.434 1.245 3.698.792.584 7.508 4.206 14.714 10.3 18.901v.076c-.265 3 .018 6.093.83 8.979.112.415.263.849.433 1.264-.264.264-.49.547-.679.868-.566.98-.755 2.244-.453 3.338.34 1.264 1.34 2 2.453 2.528 1.64.792 3.414 1.434 5.263 1.396 2.263-.056 4.244-1.019 5.734-2.565.208.037.415.056.604.056 1.754-.075 3.66-1.547 3.49-3.49-.076-.867-.151-1.735-.208-2.603-.075-.943-.34-1.773-1.019-2.47a53.636 53.636 0 01-.075-.076c-.094-1.396-.32-2.773-.604-4.17a17.097 17.097 0 005.509-2.338c3.414-2.264 6.168-5.64 7.319-9.583l.037-.038c2.396-2.716 3.396-6.036 3-9.545.15-.113.301-.245.434-.377l3.621-3.905c1.057-1.15 1.302-2.773.585-4.093zm-30.748-3.34c.038-.018.076-.037.076-.056l.019-.019c.037-.019.056-.019.094-.037-.075.075-.226.17-.302.17.019 0 .057-.02.113-.057zm7.282 17.94c-4.471-1.264-9.187-.245-12.828 2.509-.019-.019-.019-.038-.037-.057.094-.17.17-.358.226-.547l.226-.622c.02-.019.02-.038.038-.057.189-.32.34-.66.528-.98.113-.208.245-.397.377-.585.038-.076.152-.208.208-.283.245-.283.49-.566.773-.83.17-.17.34-.321.51-.472.038-.038.094-.075.132-.113-.038.019-.057.038-.095.056a.392.392 0 00.114-.075c.15-.094.283-.189.132-.075.226-.151.434-.283.679-.415l.15-.076c.095-.038.416-.17.435-.189.17-.056.32-.094.49-.132.038-.019.094-.019.132-.037.189.018.68.037.849.018.094.02.189.038.189.038.094.02.188.057.283.095.075.018.17.037.226.075.415.17.83.358 1.264.528.679.245 1.509.415 2.226.396 1.32-.037 2.452-.566 3.565-1.245.019-.019.15-.113.283-.188.038 0 .094-.02.15-.02h.152c.15.039.302.076.453.114.056.019.094.019.132.038.132.075.264.188.34.245.037.019.075.057.112.075.189.19.51.547.434.415.094.133.189.283.264.415.038.057.17.321.264.49.057.17.189.491.189.473.057.188.132.396.17.584.132.49.245 1 .34 1.51.018.113.037.226.056.358.019.075.038.188.038.245v.019c.019.132.037.264.037.396-1.32-.868-2.603-1.641-4.206-2.094z" fill="#FFF1E1"/><path d="M57.315 55.75c.056-.037.095-.056.133-.075-.038.019-.077.057-.133.076zM71.331 59.467c-.019-.095-.019-.17-.038-.246-.019-.113-.038-.151.038.246zM58.033 149.71a5.339 5.339 0 00-.886-.943 5.57 5.57 0 00-.528-1.188c-2.094-3.509-6.376-2.415-9.583-1.434-2.98.905-5.735 2.282-8.489 3.716-.283.151-.566.283-.867.434h-.02c-.245.075-.49.17-.735.245-.132.038-.264.057-.396.094h-.038l-.056-.754c-.114-1.49-1-2.999-2.566-3.358-1.434-.321-3.244.189-3.942 1.604-.793 1.603-.925 3.206-.359 4.81 0 1.113-.056 2.226-.17 3.339a6.567 6.567 0 01-.075.603c-.019.076-.038.208-.057.321-.075.509-.17 1.038-.283 1.547-.207 1.075-.49 2.131-.792 3.188-.302 1-.66 1.98-1.037 2.961-.02.057-.038.114-.057.132 0 .019-.019.019-.019.038-.113.245-.207.472-.32.717l-.68 1.415a38.381 38.381 0 01-1.64 2.848c-.284.434-.567.868-.868 1.302-.151.207-.302.415-.453.641-.038.038-.057.076-.076.113-.037.038-.075.095-.132.17-.17.208-.32.453-.453.698a3.53 3.53 0 00-.98.849c-.981 1.264-1.057 3.471.264 4.584 1.113.924 2.282 1.811 3.565 2.49l.226.113 3 2c1.528 1.018 3.923.339 4.772-1.245.264-.491.396-1 .434-1.51 1.283-1.414 2.207-3.301 3.17-4.885a215.612 215.612 0 005.885-10.356h2.622c.81 0 1.622-.321 2.244-.849 3.245-.17 6.433-1.151 9.093-3.037 1.17-.83 1.943-2.245 1.698-3.641 1.131-2.547 1.301-5.508-.416-7.772zM33.85 166.725c.132-.358.264-.698.396-1.056a.7.7 0 01.17.075c-.188.321-.377.642-.566.981zm2.188-16.298a.31.31 0 01-.056-.113c.019.019.019.056.038.094-.076-.094-.151-.189-.17-.189.113-.018.226.208.245.265a30.311 30.311 0 01-.057-.057zM125.68 218.789c-1.283-.755-3.188-.585-4.226.547-.037.038-.056.076-.094.113-.377-1.49-1.886-2.603-3.414-2.622-.529 0-1.038-.019-1.566-.056l-.698-.057c-.075 0-.453-.057-.509-.057a27.793 27.793 0 01-2.83-.641c-1.754-.509-3.886.623-4.301 2.434-.434 1.867.566 3.753 2.434 4.3 1.263.359 2.546.642 3.848.812a63.595 63.595 0 003.018 19.901c.528 1.66 2.075 2.735 3.829 2.509 1.83-.246 2.849-1.679 3.019-3.434.056-.49.094-.962.15-1.452.755.887 1.887 1.377 3.113 1.207a3.48 3.48 0 002.98-2.943c.208.038.397.057.604.038 2.056-.094 3.282-1.547 3.49-3.49.735-6.79-2.999-13.695-8.847-17.109z" fill="#FFF1E1"/><path d="M34.55 188.909c-.774-1.207-2-2.094-3.094-2.981-4.094-3.376-8.432-6.394-13.054-9.016.245-.793.49-1.566.736-2.34.886-2.848 1.49-5.772 1.961-8.715.962-6.017 1.811-12.035 2.698-18.052.34-2.339.736-4.697 1.094-7.055 5.074-7.508 5.546-17.694 1.754-25.957a21.798 21.798 0 00-3.093-4.885c.302-.434.603-.868.924-1.283 1.113-1.471.283-3.961-1.245-4.773-1.509-.811-2.98-.49-4.112.529-.547.15-1.075.452-1.547.848-4.735 4.245-7.583 10.149-9.338 16.167-1.66 5.659-2.546 11.563-3.225 17.411a133.787 133.787 0 00-3.113 24.806c-.15 4.885-.019 9.771.415 14.638.434 4.923.868 10.016 3.056 14.525a15.278 15.278 0 002.415 3.546c.283.415.622.793 1.018 1.132.321.264.642.491 1 .698.17.132.34.245.51.377.471.378.98.717 1.546 1 .227.113.453.208.698.283.943.434 1.943.773 2.98 1 4.377.962 8.829.245 12.866-1.566 2.245-1.018 4.716-2.565 6.074-4.659 1.132-1.754 1.188-3.943.075-5.678zM128.471 214.13c-1.962-16.166-4.358-32.276-7.244-48.291a841.18 841.18 0 00-4.603-23.599c-1.415-6.734-2.679-13.619-4.904-20.146-2.019-5.924-4.924-11.469-9.489-15.676.189-.509.377-1.019.566-1.509.66-1.717-.717-3.905-2.433-4.301-2-.453-3.603.604-4.301 2.433-.151.415-.321.83-.472 1.264-.924.66-1.377 1.698-1.452 2.83-.038.49-.057.981-.076 1.471-2.132 6.489-3.452 13.224-1.622 19.996 1.075 3.98 3.056 7.658 4.848 11.337.415.849.83 1.716 1.207 2.565.094.208.189.415.264.623.038.075.057.132.076.188 0 .019.019.038.037.076.208.509.434 1.037.623 1.565a74.15 74.15 0 011.924 5.546c1.169 3.792 2.075 7.678 2.792 11.583.358 1.943.66 3.886.943 5.829 0-.038.057.358.075.547.019.132.038.32.057.358.057.509.132 1.019.189 1.509.132 1.019.245 2.019.339 3.037.849 7.998 1.283 16.034 1.962 24.051.377 4.49.962 9.319 3.622 13.111-.642.641-1.057 1.509-1.019 2.433.095 2.056 1.547 3.282 3.49 3.49 3.697.377 7.376.755 11.073 1.151 1.754.188 3.735-1.736 3.528-3.471zm-8.018-4.792c-.094-.037-.245-.094-.283-.113l-.622-.339c-.057-.038-.208-.132-.34-.227a3.446 3.446 0 001.51-.811c.075.547.132 1.094.207 1.641-.094-.019-.189-.037-.283-.075-.038-.019-.113-.038-.189-.076z" fill="#fff"/><path d="M89.386 23.04s-.019.02 0 0c-.019.02 0 0 0 0 0-.037 0-.094.019-.132.038-.566.019.038-.019.132.057-.113.189-.905.227-1 0-.018.037-.094.056-.188.038-.076.094-.264.132-.302a8.57 8.57 0 01.641-1.037c1.49-2.094-.49-5.452-3.018-5.245-1.245.095-2.49.133-3.735.076h-.15c-.038-.019-.076-.019-.133-.038-.245-.075-.49-.113-.735-.188a1.088 1.088 0 01-.264-.095h-.02c-.094-.056-.452-.32-.528-.358l-.075-.076-.019-.018c0-.02 0-.02-.019-.038-.056-.095-.113-.208-.17-.302 0-.019-.018-.038-.018-.038-.02-.075-.038-.15-.057-.207 1.226-1.189 1.245-3.226.227-4.546-1.132-1.472-2.887-1.623-4.509-.906-1.81.792-3.622 1.622-5.433 2.415l-.056-3.377c-.038-1.83-1.585-3.584-3.49-3.49-1.98.095-3.245 1.472-3.471 3.34 0 .056-.019.094-.019.131-.056.566-.019-.037.019-.132-.019.076-.094.453-.113.49-.057.19-.113.36-.17.529-.17.283-.358.604-.51.886 0 .02 0 .02-.018.038a3.377 3.377 0 01-.359.377c-.17.17-.64.51-.509.453-.264.151-.528.302-.773.472h-.02c-.112.037-.244.075-.358.113-.17.038-.34.075-.49.113h-.453c-.226-.094-.773-.15-.924-.188-.019 0-.057-.02-.076-.02-.132-.075-.282-.131-.415-.207-.15-.094-.283-.188-.433-.283-.246-.245-.49-.49-.736-.717-.076-.132-.17-.245-.245-.377-.02-.019-.095-.189-.17-.302-.019-.037-.038-.094-.057-.15-.056-.152-.075-.321-.132-.472-.132-1.811-1.509-3.584-3.49-3.49-1.867.075-3.508 1.528-3.49 3.49 0 .358 0 .717-.018 1.056 0 .17-.019.32-.038.49-.019.19-.17.548-.019.152.208-.49-.038.113-.056.245-.038.15-.076.302-.114.471v.02c-.132-.076-.264-.152-.377-.227-.038-.019-.056-.057-.094-.076-.17-.15-.34-.283-.51-.433-.377-.321-.754-.66-1.112-1a40.352 40.352 0 01-2.019-2 38.08 38.08 0 01-2-2.263c-.15-.17-.282-.34-.414-.529-.057-.056-.095-.132-.132-.17-.321-.414-.623-.83-.925-1.263-1.056-1.49-3.093-2.34-4.772-1.245-1.717 1.094-2.075 2.999-1.245 4.772l3.452 7.376c.717 1.528 2.905 2.113 4.395 1.452.113.095.226.19.34.283-2.868 1.49-5.49 3.415-7.81 5.66-1.792 1.735-1.056 5.32 1.547 5.828 3.773.755 6.96-.792 9.941-2.98.434-.302.849-.623 1.264-.943-.132.754-.245 1.509-.32 2.282-.152 1.358.999 2.698 2.15 3.188 1.226.528 2.867.302 3.81-.717 1.98-2.169 3.886-4.414 5.904-6.545.51 1.415 1.038 2.83 1.547 4.225.49 1.34 1.434 2.302 2.905 2.509 1.32.17 2.811-.434 3.471-1.66l3.301-6.168c.095-.189.208-.378.302-.566.17.81.302 1.64.434 2.452.34 2.113 1.056 4.188 2.66 5.678 1.264 1.15 3.716 1.528 4.942 0 .245-.302.472-.604.717-.905.226.81.415 1.64.585 2.47.056.34.132.66.17 1 .018.132.037.283.056.415 0 .038.019.095.019.17.075.68.132 1.358.17 2.038a34.48 34.48 0 01-.057 4.414c-.132 1.735 1.434 3.206 3.018 3.433 1.68.226 3.396-.811 3.83-2.51.433-1.697.566-3.47.471-5.224-.038-.812-.132-1.623-.226-2.434a58.547 58.547 0 00-.245-1.792c-.02-.189-.057-.377-.076-.566 0-.056-.038-.264-.056-.415-.02-.094-.02-.188-.02-.226-.018-.189-.037-.377-.075-.566-.037-.377-.075-.736-.113-1.113-.056-.773-.094-1.547-.038-2.32.02-.095.02-.227.038-.359zM72.862 56.354c-1.528-1.868-3.64-3.17-5.923-3.886-1.604-.51-3.565.603-3.943 2.245a3.373 3.373 0 00-.075 1.056c-.51-1.094-1.566-1.868-2.867-1.868h-3.019c-1.678 0-3.282 1.472-3.206 3.207.075 1.736 1.414 3.207 3.206 3.207h3.019c1.678 0 3.282-1.471 3.206-3.207 0-.056 0-.094-.018-.15.377.773 1.075 1.395 1.999 1.697.17.057.34.132.528.17-.585-.17-.038-.019.113.056.378.19.717.397 1.076.623.037.019.056.038.094.056.113.095.226.19.34.302.339.321.64.66.943 1.019 1.056 1.302 3.452 1.188 4.527 0 1.264-1.377 1.132-3.131 0-4.527z" fill="#5B433F"/><path d="M83.708 90.93c-2.264-1.282-4.546-2.49-6.98-3.414-2.395-.905-5.074-1.47-7.64-1.245-2.49.208-4.81.981-7.243 1.49-.245.057-.49.095-.755.152-.075.019-.132.019-.207.037-.038 0-.132.02-.264.02-.283 0-.566.037-.868.018-.113 0-.528-.056-.566-.056-.17-.038-.358-.095-.528-.133-.057-.018-.094-.018-.132-.037-.038-.02-.075-.057-.151-.113-.472-.302-.906-.66-1.377-.981-1.51-1.076-3.301-1.377-5.093-.962-1.528.358-2.81 1.301-4.094 2.15-2.207 1.471-4.49 2.849-6.885 4-.302.15-.604.282-.905.414-.114.057-.189.095-.246.113a3.335 3.335 0 00-.207.076c-.604.245-1.226.471-1.849.679-1.15.377-2.339.679-3.527.905-.623-.264-1.32-.34-2.019-.113-1.603.51-2.773 2.226-2.244 3.943 2.565 8.111 8.62 15.015 16.298 18.656 3.923 1.867 8.168 2.98 12.525 3.037 4.471.075 8.828-.981 12.903-2.773 3.773-1.66 7.263-4.15 10.092-7.168a31.013 31.013 0 004-5.263c1.244-2.056 2.678-4.622 2.659-7.093-.038-3.075-2.207-4.904-4.697-6.338zm-30.635.85c.057-.02.17.037.302.113-.15-.038-.377-.076-.302-.113z" fill="#fff"/><path d="M53.224 119.226c-7.545-.169-15.09-.358-22.617-.528-1.679-.038-3.282 1.509-3.207 3.207.076 1.773 1.415 3.169 3.207 3.207 7.545.17 15.09.358 22.617.528 1.68.038 3.283-1.509 3.207-3.207-.075-1.773-1.396-3.169-3.207-3.207zM53.073 137.147c-5.923-1.339-12.054-1.264-17.92.283-1.415.377-2.472 1.867-2.359 3.339a2.613 2.613 0 00-.094.867l.113 3.019c.076 1.679 1.415 3.282 3.207 3.206a42.082 42.082 0 0017.826-4.847c2.377-1.264 1.887-5.263-.773-5.867z" fill="#839D57"/><path d="M49.526 124.791c-3.81.038-7.64.472-11.393 1.151a2.74 2.74 0 00-1.264-1.358c-1.377-.736-3.679-.491-4.395 1.15-.83 1.906-.868 3.716.075 5.603.849 1.679 2.396 2.811 4.112 3.452 1.547.566 3.282.604 4.905.509 1.735-.094 3.47-.226 5.225-.339 3.377-.208 8.319.226 9.45-3.905 1.076-3.961-3.432-6.301-6.715-6.263zM50.226 162.556h-3.019c-1.678 0-3.282 1.472-3.206 3.207.075 1.736 1.414 3.207 3.206 3.207h3.019c1.678 0 3.282-1.471 3.206-3.207-.075-1.735-1.414-3.207-3.206-3.207z" fill="#fff"/><path d="M64.639 124.98c-.057.038-.114.057-.17.094-.038.019 0 0 .17-.094z" fill="#A51B18"/><path d="M115.06 255.517a1762.699 1762.699 0 00-8.111-64.533c-1.491-10.262-3.075-20.524-5.244-30.654-1.095-5.055-2.32-10.092-3.773-15.053-1.434-4.923-3.301-9.715-4.716-14.638-.83-2.886-1.226-5.037-1.302-7.885-.037-1.415.02-2.83.132-4.244.132-1.51.246-2.189.528-3.735 1.095-5.81 3.132-11.394 5.17-16.921.508-1.396-.36-2.867-1.472-3.622-3.377-2.32-8.15-.83-10.64 2.094-2.263 2.678-3.187 6.112-4.96 9.092-.397.66-.793 1.283-1.227 1.905-.207.321-.433.623-.66.925-.019.019-.019.019-.019.037-.17.227-.358.434-.528.661a34.446 34.446 0 01-3.358 3.471c-.283.245-.566.49-.867.735-.151.113-.302.246-.434.359-.02.019-.076.056-.132.113a32.163 32.163 0 01-5.98 3.546c-.113.057-.208.095-.32.151-.076.038-.17.076-.227.094-.359.133-.698.283-1.056.397-.83.301-1.698.547-2.528.848-2.15.774-4 1.849-5.282 3.773-1.038 1.547-1.471 3.433-1.754 5.244-.359 2.17-.566 4.358-.529 6.565.057 4.169.962 8.168 2.17 12.148.547 1.849 1.113 3.679 1.49 5.565.038.226.094.453.132.679 0 .038.038.264.057.396.019.189.056.679.056.604.02.226.038.453.038.679.019.453.019.905 0 1.358 0 .17-.019.358-.038.528-.019.057-.056.378-.075.472-.076.415-.17.811-.302 1.207l-.17.509c-.019.057-.17.434-.188.491a12.823 12.823 0 01-1 1.792 6.036 6.036 0 01-.302.434c-.057.075-.604.754-.132.188-.264.302-.51.604-.773.906a20.357 20.357 0 01-1.83 1.773l-.415.359c-.038.018-.189.15-.302.245-.094.056-.208.17-.245.188-.227.17-.453.321-.68.491-.716.509-1.47.981-2.225 1.433a53.118 53.118 0 01-3.509 1.925c-.566-.925-1.547-1.566-2.679-1.51-1.678.076-3.263 1.415-3.206 3.207v.51c-.038.151-.151.528-.17.603a.263.263 0 01-.038.113c.019-.037.057-.094.075-.169-.037.056-.056.113-.094.169-.056.133-.113.265 0 .019-.019.057-.056.095-.075.151-.151.302-.321.604-.51.906-.698 1.094-1.528 2.112-2.263 3.169-1.849 2.678-2.528 5.734-2.415 8.979.057 1.547.227 3.075.283 4.603.019.698.038 1.414-.019 2.112-.019.17-.094.698-.037.491-.076.377-.151.773-.265 1.151-.075.226-.49 1.094-.113.377-.113.207-.207.415-.302.603a7.807 7.807 0 01-.415.661c.02-.038-.207.302-.245.339-.34.396-.717.793-1.113 1.151-.207.189-.396.358-.603.528-.095.076-.189.151-.264.226-.02.019-.038.019-.038.038-3.886 2.792-8.753 5.244-10.81 9.828-1.546 3.433-1.527 7.244-1.716 10.922a692.628 692.628 0 00-.49 10.828 650.227 650.227 0 00-.434 21.863c-.019 3.528-.604 7.866 2.075 10.639 1.226 1.264 2.848 1.924 4.452 2.547a89.046 89.046 0 004.47 1.584c12.149 3.981 25.07 5.754 37.841 5.358 12.827-.415 25.655-2.981 37.577-7.772 1.622-.66 3.225-1.34 4.81-2.056.811-.378 1.339-1.208 1.509-2.113 1.453-.283 2.924-1.528 2.754-3.15z" fill="#E26E6B"/><path d="M46.3 115.152a20.612 20.612 0 01-3.15-.868c-.264-.094-.51-.189-.754-.283-.02 0-.038-.019-.057-.019-.019 0-.019-.019-.056-.019-.453-.226-.906-.415-1.34-.66a26.134 26.134 0 01-2.773-1.716c-.075-.057-.358-.283-.415-.321-.113-.094-.226-.17-.32-.264-.416-.359-.83-.717-1.208-1.094a24.364 24.364 0 01-2.112-2.302c-.038-.037-.057-.075-.076-.094a.393.393 0 00-.075-.113c-.151-.226-.321-.434-.472-.66-.283-.415-.547-.83-.792-1.264a44.48 44.48 0 01-.717-1.302c-.132-.245-.245-.49-.358-.736-.038-.056-.208-.509-.208-.49-.34-.943-.66-1.867-.887-2.848-.396-1.623-2.339-2.755-3.942-2.245-1.226.396-2.056 1.358-2.283 2.528-.641.773-.905 1.81-.66 2.886.66 2.867 1.34 5.734 2 8.583.641 2.735 1.245 5.621 3.584 7.47 2.17 1.716 4.829 2.358 7.564 2.339 1.302-.019 2.584-.189 3.867-.321a20.727 20.727 0 012.17-.132c.358 0 .716 0 1.075.038.15.019.207.019.15 0 .076.019.152.019.227.038.113.018.245.056.359.075 1.64.321 3.546-.472 3.942-2.245.34-1.641-.528-3.565-2.282-3.961zM31.493 133.997c-1.528-.359-3.66.471-3.943 2.245a658.18 658.18 0 00-.943 5.998c-.264 1.641.415 3.528 2.245 3.943 1.528.358 3.66-.472 3.942-2.245.32-2 .642-3.999.943-5.999.264-1.641-.434-3.527-2.244-3.942z" fill="#A51B18"/><path d="M74.9 58.806c-1.925-2.924-4.83-5.018-8.244-5.829-.585-.132-1 .189-1.189.604-.717.245-1.433.49-2.131.735-.02 0-.057-.019-.076-.019a373.168 373.168 0 01.189-21.051c.056-1.34-2.019-1.34-2.075 0a380.811 380.811 0 00-.227 18.561c-3.584-.81-7.394 3.453-9.431 5.81-.529.623-.302 1.453.452 1.736 3.773 1.358 8.678 1.056 11.073-2.396 3.113 2.83 7.055 5.225 11.3 3.264.471-.227.641-.981.358-1.415zm-20.581-.981a30.85 30.85 0 012.83-2.603c1.131-.887 2.64-1.773 4.017-1.17.02.585.02 1.17.038 1.755 0 .094.019.188.057.282-1.66 1.962-4.415 2.264-6.942 1.736zm10.809-1.924c.509-.17 1-.34 1.509-.528a.785.785 0 00.302-.17c2.112.66 3.98 1.905 5.395 3.584-2.641.585-5.188-1.075-7.206-2.886zM51.772 39a1.583 1.583 0 00-.585-.36.65.65 0 00-.17-.226c-.377-.377-1.094-.415-1.47 0-.567.642-.774 1.51-.472 2.32.17.434.452.85.848 1.095.51.301 1.208.113 1.642-.246.792-.64.98-1.867.207-2.584zM76.899 39.056c-.076-.076-.151-.114-.227-.17-.056-.057-.113-.132-.188-.17-.34-.32-.793-.377-1.245-.151-.83.396-1.076 1.471-.736 2.264.245.584.868 1.037 1.528.81.566-.188 1-.565 1.207-1.112.17-.51.057-1.132-.34-1.471zM63.505 63.446c-.132 1.811-2.49 1.623-2.791 0-.245-1.301-2.245-.754-2 .547.32 1.698 1.943 3 3.679 2.868 1.81-.151 3.074-1.68 3.206-3.415.076-1.339-2-1.339-2.094 0z" fill="#010202"/><path d="M134.244 232.352c-.245-2.547-.83-5.055-1.792-7.413a27.031 27.031 0 00-4.282-7.112c.453-.547.755-1.245.962-1.905.547-1.679.415-3.471-.226-5.075.094-.169.151-.339.132-.528-2.207-17.109-4.395-34.2-6.621-51.309-2-15.449-4.282-31.201-11.507-45.198-3.547-6.885-8.281-13.223-14.28-18.165a1.675 1.675 0 00-.151-.321c-.623-1.056-2.094-1.226-3.17-1.528l-4.243-1.17a1.295 1.295 0 00-.453-.037c-.773-.623-1.905-1-2.849-1.358a83.069 83.069 0 00-7.036-2.34c-1.565-1.377-3.282-2.622-5.13-3.395-.114-.038-.208-.075-.321-.113a.974.974 0 00.019-.34l-1.02-11.393c3.755-1.264 7.15-3.528 9.603-6.678 3.282-4.226 4.508-9.47 4.583-14.733.868-.207 1.755-.886 2.396-1.452 1.377-1.189 2.433-2.717 3.132-4.395.679-1.66 1.094-3.641.773-5.433-.302-1.698-1.754-2.905-3.396-2.49.868-4.83.34-9.98-.301-14.846 3.055-.849 4.433-4.81 2.791-7.62-1.81-3.113-5.3-3.774-8.488-3 .717-2.283.83-4.867-1.453-6.188-1.509-.867-3.339-.547-4.829.17-.962.453-1.792 1.132-2.66 1.736a5.18 5.18 0 00-.415-2.038c-.792-1.848-2.47-2.942-4.451-3.074-3.943-.283-6.49 2.678-8.263 5.829a21.183 21.183 0 00-1.396-3.471c-.886-1.717-2.037-3.849-4.32-3.32-1.773.415-3.338 1.943-4.395 3.357a9.846 9.846 0 00-1.301 2.396 27.607 27.607 0 00-3.943-5.055c-1.415-1.415-5.338-5.452-6.753-1.962-1.019 2.49-.736 5.753-.019 8.28a15.1 15.1 0 003.66 6.34 17.803 17.803 0 00-5.263 4.885c-1.472 2.075-2.603 5.414-.151 7.262 1.471 1.113 3.508 1.057 5.376.66-.302 3.415-.51 6.848-.566 10.3-.547-.377-1.094-.754-1.66-1.132-.924-.603-1.962-1.282-3.075-.698-1.962 1.038-1.848 3.849-1.528 5.697.642 3.64 2.377 9.111 6.867 9.017.81 6.225 2.961 12.11 7.62 16.544a21.851 21.851 0 002.49 2.056.933.933 0 00-.15.584 150.84 150.84 0 01-.132 12.733c-.566-.056-1.113 0-1.642.283-.773.415-1.414 1.113-2.037 1.717l-.51.51c-.15 0-.32.037-.47.112-4.188 2-8.395 3.98-12.583 5.98-1 .472-2.018.962-3.018 1.434-.924.434-1.98.811-2.792 1.434-.019.019-.056.037-.075.056-1.34.434-2.66.981-3.924 1.623-1.094.565-2.603 1.226-3.301 2.3-.038.057-.075.133-.113.19-.227-.057-.472-.02-.736.15C5.028 111.04 2.632 132.77.897 151.012-.122 161.632-.5 172.403.99 183.005c1.207 8.62 4.735 18.316 13.657 21.523 4.094 1.471 8.904 1.075 12.733-1.037l2.377 15.581c.094.604.774.792 1.283.717 8.828-1.34 17.637-2.66 26.466-3.999 4.32-.661 8.658-1.396 13.034-1.34 4.301.057 8.527 1.038 12.79 1.547 4.98.585 9.979.359 14.978.113.566-.037 1.019-.452 1.037-1.037.151-5.131.283-10.281.434-15.412l.227-7.885c.037-1.245.075-2.509.094-3.754.038-1.056.283-2.433-.208-3.433-.83-1.622-3.169-1.434-4.678-1.905-1.773-.566-3.414-1.547-4.791-2.773-3-2.622-4.98-6.187-6.037-9.998-1.433-5.169-1.395-10.582-1.358-15.883 0-.566-.471-1.019-1.037-1.038a247.21 247.21 0 00-20.467.34 9.246 9.246 0 00-2.057-.83 13.134 13.134 0 001.774-1.773c.34-.396.452-1.075 0-1.472a8.811 8.811 0 00-4.754-2.037c.358-.245.698-.509.924-.811.604-.811.925-2.018.359-2.943a1.892 1.892 0 00-.755-.698c.396-5.678.717-11.337.925-17.015.886-.113 1.697-.698 1.961-1.622.34-1.207-.358-2.528-1.377-3.15-1.32-.811-2.924-.547-4.376-.453-1.754.113-3.528.113-5.3.075-3.547-.075-7.075-.339-10.602-.339-1.755 0-3.528.075-5.282.283-.717.075-1.434.17-2.132.358a1.024 1.024 0 00-.509-.17c.264.019-.057-.301-.15-.49-.133-.245-.265-.509-.397-.755a46.88 46.88 0 01-.83-1.678c-.528-1.095-1-2.207-1.453-3.339a56.383 56.383 0 01-2.226-6.961 71.873 71.873 0 01-.773-3.49c-.113-.622-.226-1.226-.32-1.848-.057-.415-.284-1.132-.17-1.547.17-.528.924-.83 1.358-1.094.528-.321 1.075-.604 1.622-.887a21.03 21.03 0 011.773-.773c.151.773.51 1.584.812 2.32 2.678 6.659 6.583 13.374 13.129 16.826 3.565 1.868 7.526 2.66 11.488 3.113 2.018.226 4.055.377 6.093.509 1.018.057 2.018.094 3.037.057.434.358 1.15.302 1.528-.132.66-.095 1.301-.227 1.943-.415 3.678-1.094 6.998-3.509 9.903-5.961 2.81-2.377 5.3-5.15 7.413-8.168a42.299 42.299 0 003.17-5.339c.433-.867.83-1.773 1.207-2.678.415-1 .943-2.056 1.075-3.132.83.227 1.679.472 2.509.698.585.17 1.17.32 1.773.49.34.095.566.114.698.19a.728.728 0 00.151.377v.188c-.113 2.415-.585 4.829-1.037 7.206-.887 4.603-2 9.149-2.566 13.808-.566 4.641-.49 9.413.943 13.903 1.415 4.433 3.83 8.47 5.395 12.865 3.339 9.243 4.546 19.184 5.942 28.862 1.491 10.261 2.754 20.561 3.905 30.861 1.283 11.525 2.434 23.051 3.565 34.577.019.169.057.302.132.434v.169c.434 5.886.925 11.771 1.302 17.657.038.49.094.962-.17 1.415-.283.471-.849.792-1.264 1.113a33.022 33.022 0 01-3.112 1.924c-2.056 1.094-4.245 1.943-6.489 2.603-4.584 1.358-9.338 1.981-14.073 2.471-5.3.566-10.582 1.151-15.883 1.717-5.621.584-11.28.999-16.94.622-5.659-.377-11.242-1.471-16.732-2.867a202.604 202.604 0 01-8.017-2.226c-1.264-.377-2.546-.755-3.81-1.151-1.17-.358-2.584-.585-3.64-1.207-1.076-.623-.869-1.905-.85-2.999l.057-4.509c.038-2.886.075-5.753.132-8.639a1587.43 1587.43 0 011.15-39.048c.057-1.34-2.018-1.34-2.074 0a1710.16 1710.16 0 00-1.32 49.932c-.02 1.452-.19 3.018.056 4.471.452 2.622 3.093 3.112 5.244 3.772 1.603.491 3.207.981 4.81 1.453a1570.98 1570.98 0 004.301 46.159 1611.29 1611.29 0 005.716 46.613c.434 3.225.792 6.583 2.358 9.488a9.61 9.61 0 001.32 1.886 136.513 136.513 0 00-17.336 17.751c-.49.604-.34 1.472.453 1.736 3.49 1.15 7.206.735 10.696-.151 3.207-.811 6.338-1.981 9.319-3.377a55.182 55.182 0 0016.11-11.469c.49-.509.32-1.132-.095-1.49.622-.755.943-1.698 1.037-2.717.151-1.735-.207-3.546-.396-5.281a795.039 795.039 0 01-1.585-17.506 713.701 713.701 0 01-1.452-23.712 688.734 688.734 0 01-.471-47.121c.037-1.868.094-3.735.15-5.603 2.83-.019 5.66-.17 8.49-.415 2.32-.207 4.64-.452 6.941-.698a1803.251 1803.251 0 015.338 37.615 1912.781 1912.781 0 014.565 37.463c.793 7.112 1.547 14.242 2.264 21.372.057.566.415 1 1 1.038 4.886 7.017 11.11 13.054 18.298 17.675a63.126 63.126 0 005.602 3.207c1.604.811 3.49 1.83 5.339 1.339 2.075-.547 2.358-2.697 1.697-4.47-.811-2.189-1.829-4.301-2.867-6.395a92.905 92.905 0 00-8.13-13.374 4.465 4.465 0 001.037-1.302c.793-1.49.755-3.207.717-4.848-.056-2.075-.113-4.15-.151-6.225-.094-4.075-.207-8.168-.302-12.243l-1.245-49.366c-.226-9.149-.471-18.298-.698-27.466.095-.056.208-.094.302-.15a29.62 29.62 0 003.679-2.113c.981-.66 2.094-1.358 2.641-2.434.679-1.32.264-3.074.15-4.47-.113-1.623-.245-3.264-.358-4.886-.264-3.509-.509-7.017-.773-10.526a1.163 1.163 0 00-.132-.453v-.151c-.472-4.678-.925-9.356-1.396-14.034.094-.038.169-.076.264-.132.377-.245.754-.51 1.132-.755.735.755.981 1.981 1.263 2.924a79.397 79.397 0 011.283 4.622 70.661 70.661 0 011.66 9.526c.17 1.584.283 3.188.34 4.791.056 1.226.037 2.736 1.565 3.018 2.566.472 3-2.867 3.132-5.149.038.452.075.905.094 1.339.038.566.453 1.038 1.038 1.038 1.377.018 2.188-.887 2.678-2.019v.057c.17.981.925 1.867 2.019 1.603 1.056-.264 1.509-1.415 1.754-2.358.208-.83.396-1.679.547-2.509.302.359.698.623 1.245.679 1.113.114 1.886-.773 2.245-1.735.415-1.075.453-2.358.528-3.49a23.577 23.577 0 00-.019-3.999zM38.247 43.602c-.151-.698-.32-1.415-.359-2.132-.037-.49-.094-2 .51-2.264.452-.207 1.679.887 2.018 1.132.623.415 1.226.85 1.83 1.302.019 2.754.15 5.508.396 8.243-2.83-.302-3.848-3.867-4.395-6.281zM63.07 157.897a6.168 6.168 0 00-1.527-1.019 7.018 7.018 0 001.226-1.547c6.055-.32 12.11-.415 18.165-.301-.037 8.413.321 17.354 5.905 24.145 2.358 2.867 5.602 5.15 9.28 5.867.378.075.774.113 1.151.188.49.095.717.114.83.604.114.547-.037 1.245-.037 1.792l-.057 2.264c-.075 2.565-.15 5.131-.208 7.696l-.452 16.487c-4.112.208-8.225.358-12.318.019-4.339-.377-8.602-1.434-12.96-1.66-4.357-.245-8.715.396-13.016 1.056-4.432.661-8.884 1.34-13.317 2.019-4.678.698-9.357 1.414-14.035 2.112-.773-5.13-1.566-10.261-2.339-15.392 3.565-2.773 5.772-6.961 6.093-11.469 0-.095 0-.208-.038-.302 1.566-.962 1.792-3.037 1.038-4.622-.49-1.056-1.377-1.735-2.377-2.245 2.188-2.509 4.15-5.225 5.791-8.111a49.696 49.696 0 002.358-4.697c.094-.208.189-.453.264-.698 3.113-.208 6.225-.358 9.338-.641 1.17-.114 2.225-.453 2.716-1.623.566-1.377.83-2.961 1.207-4.414 0-.038.02-.056.02-.094a46.076 46.076 0 007.13-3.792c.49-.339.679-1.15.17-1.622zM33.72 189.55a86.356 86.356 0 01-11.223-3.414c-1.981-.755-3.943-1.566-5.848-2.528-1.585-.792-3.301-1.811-4.075-3.49-.641-1.396-.603-3.32.868-4.168 1.415-.812 3.263-.378 4.584.396.34.188.66.415.962.641.132.189.32.358.547.434.943.792 1.792 1.679 2.716 2.49 1.434 1.283 3.019 2.396 4.754 3.244 1.83.906 3.81 1.302 5.678 2.075.773.321 1.603.793 1.943 1.623.264.641.283 1.509-.396 1.886-.359.208-.51.509-.51.811zm9.583-21.599c.227-.434.51-.83.868-1.113.604-.49 1.471-.566 2.207-.716.755-.151 1.528-.302 2.282-.472a44.72 44.72 0 004.698-1.396c-.208.792-.396 1.585-.642 2.377-.15.509-.245.66-.792.736-.623.094-1.283.094-1.905.132-2.245.15-4.49.301-6.716.452zm15.638-17.807a12.468 12.468 0 01-3.131 2.282c-.075.038-.132.095-.208.151a57.9 57.9 0 00-9.903.51c-1.32.188-.755 2.188.547 1.999 3.263-.452 6.565-.566 9.847-.415.377.019.641-.132.811-.358a6.682 6.682 0 013.47.754l.02.019a4.618 4.618 0 01-1.773 1.226c-3.98.547-7.904 1.359-11.752 2.49-1.283.378-.736 2.377.546 2 3.415-1 6.905-1.792 10.432-2.301.17.075.377.094.623.037.66-.151 1.32-.132 1.924.076-2.566 1.547-5.282 2.848-8.13 3.81-1.566.547-3.17 1-4.792 1.358-1.528.34-3.263.397-4.527 1.396-1.226.962-1.679 2.49-2.245 3.886-.622 1.547-1.358 3.037-2.15 4.509a47.616 47.616 0 01-6.037 8.677.948.948 0 00-.264.641c-.226-.075-.453-.132-.66-.207-2.226-.66-4.301-1.585-6.206-2.924-1.49-1.056-2.736-2.396-4.094-3.584 2.849-5.037 5.188-10.375 6.904-15.883a80.94 80.94 0 002.245-8.904c.32-1.717.49-3.999 1.622-5.452.076 1.019.17 2.019.246 3.037-1.132.51-.604 2.415.641 1.962a155.106 155.106 0 0115.035-4.565c2.263-.566 4.564-1.207 6.866-1.603.056.396.32.622.66.717-.207.169-.434.32-.641.471-.604.453-1.113.906-1.453 1.547-3.131.358-6.244.698-9.375 1.056-1.32.151-1.32 2.226 0 2.075l10.13-1.131a.948.948 0 00.471-.17c1.453-.245 3 .038 4.301.811zm-25.447-14.468a.95.95 0 00-.245.037c-.132-1.603-.264-3.207-.396-4.791-.076-1-.17-2-.245-2.999-.038-.378-.227-1.057-.114-1.415.02-.038.02-.076.038-.113.113-.057.226-.114.302-.189h.302c3.961-.189 7.941-.151 11.903-.208 3.603-.056 7.225-.113 10.828-.15a383.652 383.652 0 01-.453 9.299h-.038c-7.3-.226-14.6-.037-21.882.529zm21.788 1.509c-.114 1.829-.227 3.659-.359 5.47-.113.019-.226.038-.32.057a160.907 160.907 0 00-20.316 5.527l-.868-10.488h.075c7.244-.566 14.525-.755 21.788-.566zm-24.014-14.243c1.226-.358 2.566-.415 3.848-.49 2.792-.17 5.603-.075 8.395.038 2.81.113 5.602.264 8.413.207 1.302-.019 2.603-.17 3.905-.207.603-.019 1.34-.038 1.792.434.302.301.434.943-.208.754-.283-.075-.528-.056-.735.057-6.678.094-13.356.188-20.034.302-1.452.018-3.112-.17-4.527.169-.283.057-.51.17-.698.283a7.894 7.894 0 01-1.773.019c-.038-.773.962-1.377 1.622-1.566zm-.735 5.131c.245 3.075.509 6.15.754 9.244.17 2.018.34 4.018.49 6.036-2.037 1.32-2.716 3.697-3.15 5.961-.509 2.697-1.075 5.395-1.81 8.036a221.432 221.432 0 003.716-29.277zm-4.603-11.921a53.455 53.455 0 001.81 3.961c.321.622.604 1.339 1.038 1.867-.924.849-1.433 2.189-1.037 3.434.15.471.452.773.849.981 0 .037-.02.094-.02.132a225.736 225.736 0 01-6.62 43.33.93.93 0 000 .509 85.843 85.843 0 01-2.358 4.527c-1.566-1.037-3.377-1.622-5.263-1.358-1.906.264-3.566 1.528-4.056 3.433-.245.943-.264 1.792-.094 2.603a7.974 7.974 0 01-2.528-1.773c-.924-.962-2.396.509-1.472 1.472a9.892 9.892 0 002.849 2.075c-.17.169-.34.339-.49.547-.812 1.037.64 2.527 1.47 1.471.416-.528.887-.905 1.472-1.132 1.547 1.887 4.075 3.207 6.188 4.15a85.648 85.648 0 0015.6 5.207c-.49 3.64-2.471 7.073-5.452 9.224-3.32 2.414-7.734 3.131-11.677 1.999-8.62-2.49-11.884-12.072-13.034-20.033-1.434-9.828-1.113-19.863-.264-29.729.83-9.545 1.773-19.316 4.49-28.541 2.583-8.734 7.186-17.222 14.694-22.636.057.415.15.83.207 1.226.246 1.509.547 3.018.906 4.508a58.707 58.707 0 002.792 8.546zm46.574-28.88c1.264.395 2.49 1.357 3.547 2.15.452.32.867.679 1.301 1.037.057.076.132.151.227.208a57.316 57.316 0 01-11.866-1.83c.66-.208 1.34-.434 2-.642 1.452-.471 3.263-1.376 4.791-.924zm-17.6-15.469c3.528 2.056 7.602 3.15 11.715 2.924a21.454 21.454 0 003.64-.528l.963 10.827c0 .038 0 .057.018.095-.66.038-1.32.188-1.98.396-1.66.51-3.32 1.056-4.961 1.584-.453.151-.906.283-1.34.434h-.019a2139.603 2139.603 0 01-8.356-3.112c.094-.151.17-.34.188-.547.208-4.037.264-8.055.132-12.073zm35.05-31.37c.961-.434.848 2.169.81 2.584a9.014 9.014 0 01-.83 2.962 9.85 9.85 0 01-1.716 2.565c-.321.34-.66.66-1.019.962-.226.17-.453.34-.698.49-.019.02-.038.02-.056.038a42.35 42.35 0 00-.302-3.47c.056-.057.113-.114.17-.19 1.263-1.886 2.112-3.885 2.66-5.98.263.17.603.208.98.039zM39.095 26.7c-2.32-.943-.283-4.094.66-5.3 1.452-1.83 3.282-3.264 5.357-4.302.755-.377.604-1.245.095-1.66-.057-.075-.114-.15-.19-.207-3.281-2.962-4.998-7.583-4.187-11.96.057-.264.076-.566.189-.83.132-.34.037-.358.434-.207.471.17.962.716 1.339 1.037a27.955 27.955 0 012.528 2.434c1.64 1.81 2.999 3.885 4.055 6.092.49 1.02 1.849.397 1.925-.528.245-2.565 1.961-5.602 4.508-6.527.887-.32 1.226.453 1.622 1.113.396.66.755 1.34 1.075 2.057.698 1.528 1.132 3.169 1.396 4.829.132.849 1.528 1.037 1.905.245 1.34-2.905 2.924-6.433 6.358-7.206 1.32-.302 2.81-.038 3.603 1.132.679.962.849 2.358-.038 3.244-.717.717 0 2.038 1.019 1.736 1.358-.415 2.47-1.207 3.603-2.019 1.056-.754 2.339-1.64 3.734-1.49 2.906.32 1.32 4.339.547 5.848a1.042 1.042 0 001.415 1.415c2.49-1.208 5.867-1.453 7.716.98.716.925 1.037 2.17.566 3.283-.472 1.113-1.49 1.886-2.698 1.83-1.056-.038-1.283 1.264-.66 1.83.849 6.375 1.603 13.298-1.075 19.24a125.443 125.443 0 00-1.981-21.58c0-.037-.02-.056-.02-.094-.093-.924-1.414-1.49-1.885-.472-.717 1.528-.925 3.17-1.49 4.754-.397 1.113-1.472 2.698-2.887 2.49-1.415-.207-1.698-2.697-1.943-3.773-.415-1.924-.566-3.867-.51-5.847.039-1.245-1.621-1.302-2.036-.283a48.623 48.623 0 01-2.358 5.017c-.736 1.377-1.566 3.32-2.887 4.245-1.377.962-2.772-.566-3.225-1.792-.641-1.717-.472-3.679-.887-5.452-.207-.868-1.471-1.018-1.905-.245-1.792 3.226-4.263 6.036-7.3 8.13-1.075.755-3.415 2.188-3.49-.113-.038-.83.34-1.585.66-2.34.377-.886.68-1.716.792-2.678.114-.905-1.207-1.34-1.773-.735a15.91 15.91 0 01-5.527 3.829c-1.679.679-4.3 1.584-6.15.83zm13.582 40.99c-4.735-4.13-6.999-9.827-7.772-15.958-.962-7.753-.698-15.789.037-23.56l.17-.057c1.547-.547 3-1.283 4.339-2.226-.34.924-.566 1.867-.264 2.961.622 2.302 2.942 2.717 4.885 1.792 2.038-.98 3.924-2.66 5.49-4.263a27.816 27.816 0 002.603-3.15c.132 1.358.32 2.697 1.019 3.905.962 1.622 2.83 2.942 4.791 2.358 1.98-.604 3.056-2.736 4.018-4.396.472-.83.924-1.678 1.358-2.527.132 1.056.34 2.112.604 3.131.453 1.754 1.17 3.754 3.15 4.188 1.792.396 3.528-.755 4.546-2.15.434-.604.717-1.264.924-1.962a122.41 122.41 0 011.227 20.523c0 .34.113.585.32.755a38.05 38.05 0 01.302 3.886v.132c.094 4.602-.717 9.262-3.169 13.204-2.15 3.452-5.565 6.018-9.413 7.357-.566-.547-1.698-.377-1.754.528-.774.189-1.566.34-2.358.415-5.47.604-10.922-1.282-15.053-4.885zm-4.452 22.071c.566-.679 1.17-1.32 1.792-1.962.547-.566 1.132-1.264 1.792-1.697.773-.49 1.792.15 2.546.433l2.622.981c.925.34 1.85.698 2.792 1.038-1.83.585-3.64 1.17-5.47 1.754-2.603.83-5.244 1.66-7.96 1.887a32.385 32.385 0 011.886-2.434zm14.789 28.862c-2.113.113-4.263-.132-6.395-.302-3.546-.302-7.13-.774-10.488-2.019-6.414-2.357-10.545-7.903-13.375-13.902a45.452 45.452 0 01-1.131-2.603c-.17-.415-.321-.83-.49-1.226-.133-.359-.454-.868-.397-1.264 0-.057.038-.132.075-.189.114-.094.208-.189.283-.302.585-.471 1.792-.83 2.226-1.056l3.019-1.434c3.018-1.433 6.017-2.848 9.035-4.282a39.328 39.328 0 00-1.905 2.735c-.434.68.15 1.528.887 1.566 3.15.094 6.187-.679 9.167-1.603a510.081 510.081 0 007.602-2.434c1.377 9.375 2 18.845 1.887 28.315zm24.258-23.222c-1.075 3.075-2.584 6.018-4.395 8.734-3.603 5.452-8.771 10.545-14.751 13.318-1 .472-2.018.755-3.037.943a179.525 179.525 0 00-1.887-28.107 59.878 59.878 0 0017.034 2.528c.604 0 .981-.471 1.019-1 .811.265 1.641.547 2.452.83.906.321 1.811.66 2.698 1.038.264.113.754.245.962.471.302.359.056.85-.094 1.245zM45.66 384.017a53.395 53.395 0 01-8.734 3.264c-2.848.773-5.81 1.264-8.696.716a135.452 135.452 0 0116.28-16.449 12.96 12.96 0 003.753 1.962c2.83.943 6 1.226 8.98 1.283.64.019 1.301 0 1.961-.113a52.867 52.867 0 01-13.544 9.337zm14.733-22.24c.188 1.867.377 3.716.566 5.584.132 1.32.566 3.169-.302 4.338-.83 1.132-2.566 1.057-3.81 1a46.76 46.76 0 01-4.264-.358c-2.792-.378-5.715-1.151-7.734-3.245-2.113-2.188-2.716-5.338-3.15-8.225-2.245-14.883-3.943-29.861-5.584-44.82a1575.11 1575.11 0 01-4.32-45.159l-.34-4.283c.586.17 1.17.34 1.736.491 5.527 1.528 11.13 2.83 16.827 3.546 2.452.302 4.904.472 7.338.51a696.703 696.703 0 00.037 45.273 700.135 700.135 0 003 45.348zm52.422 15.147a95.684 95.684 0 012.867 5.754c.434.943.849 1.886 1.226 2.867.265.66.83 1.887-.132 2.188-1.377.434-3.282-.886-4.433-1.471a69.713 69.713 0 01-5.036-2.924 61.414 61.414 0 01-9.074-7.13c-2.773-2.641-5.32-5.509-7.564-8.602 3.263.038 6.527-.038 9.79-.264 1.755-.113 3.962-.132 5.791-.793a95.318 95.318 0 016.565 10.375zm-5.131-17.939c.038 1.641.34 3.905-1.132 5.056-1.339 1.056-3.395.999-4.999 1.131-4.168.321-8.337.415-12.506.321a1849.581 1849.581 0 00-4.094-36.86 1961.326 1961.326 0 00-4.96-37.878c-.982-6.98-2-13.94-3.057-20.901 2.679-.302 5.357-.604 8.036-.887 5.037-.509 10.111-1.037 15.016-2.282a40.635 40.635 0 005.319-1.717c.396 15.45.774 30.899 1.17 46.348.396 15.884.811 31.767 1.207 47.669zm1.83-152.985c-1.113-9.997-2.301-19.995-3.716-29.955-1.396-9.922-2.566-20.109-5.622-29.692-1.471-4.64-3.81-8.884-5.564-13.412-1.755-4.546-2.113-9.262-1.604-14.091.566-5.376 1.98-10.639 2.924-15.959.226-1.339.434-2.678.604-4.018.019-.17.037-.34.075-.528 10.073 8.998 15.883 21.712 19.185 34.634 1.999 7.847 3.206 15.883 4.263 23.9 1.094 8.338 2.15 16.695 3.225 25.032 1.17 9.093 2.339 18.185 3.528 27.296-5.791-.471-11.526-1.547-17.109-3.15a.366.366 0 00-.189-.057zm.245 2.207a88.951 88.951 0 0017.072 3.056c.698 1.415.773 3.094.132 4.547-.434.98-.943.98-1.924.886-.906-.094-1.811-.188-2.717-.302-3.81-.471-7.602-1.188-11.337-2.075a1.029 1.029 0 00-.585.019c-.207-2.037-.433-4.093-.641-6.131zm22.391 28.805c-.056.604-.094 1.283-.283 1.849-.018.057-.056.113-.094.189-.038-.547.057-1.113.057-1.642a14.827 14.827 0 00-.151-2.414 16.765 16.765 0 00-1.132-4.263c-.396-.962-2.188-1-2.037.283.226 2.094.283 4.206.132 6.319a30.764 30.764 0 01-.415 3.207c-.095.547-.283 1.113-.434 1.66-.038-.264-.057-.528-.095-.792-.132-1.113-.282-2.207-.415-3.32-.282-2.264-.565-4.547-.848-6.81-.17-1.302-2.226-1.34-2.075 0 .264 2.358.509 4.735.452 7.093-.037 1.15-.132 2.282-.358 3.395-.057.264-.132.773-.283 1.226a59.936 59.936 0 00-2.528-12.337c-.339-1.056-2.15-.943-2.037.283.377 3.773.736 7.583.547 11.394-.057 1-.151 2.018-.302 2.999-.038.302-.075.623-.17.906-.018.075-.037.132-.056.207-.019-.038-.019-.075-.038-.132.132-.886-.094-1.943-.151-2.829-.056-.887-.151-1.774-.245-2.66a77.303 77.303 0 00-1.886-10.583 68.977 68.977 0 00-1.491-5.112c-.452-1.339-1.037-2.641-2.32-3.358-.302-.169-.736-.207-1.056 0-.378.246-.755.51-1.132.755-.208-2.056-.415-4.131-.641-6.187a109.902 109.902 0 0014.242 2.395c.509.057.999.095 1.471.057.038.075.094.151.151.226 3.395 3.943 5.433 9.017 5.734 14.205.038 1.282.019 2.546-.113 3.791z" fill="#010202"/></g></svg><svg width="98" height="81" fill="none" id="Desktop" y="367"><g opacity=".7" clip-path="url(#Desktop-clip0)"><path fill-rule="evenodd" clip-rule="evenodd" d="M6.54 9.818A3.267 3.267 0 019.8 6.545h36.314L6.54 28.988V9.818zm0 19.64v22.906h84.92V9.818a3.267 3.267 0 00-3.26-3.273H46.944L6.539 29.458zM49 65.454c.866 0 1.697-.344 2.31-.958a3.276 3.276 0 00-1.06-5.338 3.261 3.261 0 00-3.56.71A3.274 3.274 0 0049 65.454zM9.8 0C4.378 0-.006 4.401-.006 9.818v52.364C-.006 67.598 4.379 72 9.8 72h30.625l-.817 6.546H26.133A3.274 3.274 0 0022.963 81h52.073a3.274 3.274 0 00-3.17-2.454H58.393L57.575 72H88.2c5.421 0 9.806-4.401 9.806-9.818V9.818C98.006 4.401 93.621 0 88.2 0H9.8zm38.792 20.454l7.426 4.296v8.59l-7.426 4.296-7.426-4.295V24.75l7.426-4.296z" fill="#7D6F5D"/></g><defs><clipPath id="Desktop-clip0"><path fill="#fff" d="M0 0h98v81H0z"/></clipPath></defs></svg><svg width="33" height="55" fill="none" id="Phone" y="448"><g opacity=".7" clip-path="url(#Phone-clip0)"><path fill-rule="evenodd" clip-rule="evenodd" d="M27.5.248h-22a5.525 5.525 0 00-3.89 1.596A5.426 5.426 0 000 5.698v43.604c0 1.446.58 2.832 1.61 3.854a5.525 5.525 0 003.89 1.596h22a5.525 5.525 0 003.889-1.596 5.425 5.425 0 001.61-3.854V5.698c0-1.445-.579-2.832-1.61-3.854a5.525 5.525 0 00-3.89-1.596zM29 47.374a2.919 2.919 0 01-2.92 2.919H6.92a2.919 2.919 0 01-2.92-2.919V26.107l25-15.4v36.667zm0-37.096l-25 15.4V7.627a2.919 2.919 0 012.919-2.919H26.08A2.919 2.919 0 0129 7.627v2.651zm-9.303 14.806l-3.573-2.043-3.572 2.043v4.088l3.572 2.044 3.573-2.044v-4.088z" fill="#7D6F5D"/></g><defs><clipPath id="Phone-clip0"><path fill="#fff" d="M0 0h33v55H0z"/></clipPath></defs></svg></svg>
