<svg xmlns="http://www.w3.org/2000/svg" width="38" height="14" fill="none" viewBox="0 0 38 14"><path fill="#282725" d="M7 14h24c.642 0 1.26-.082 1.855-.246a7.347 7.347 0 0 0 1.68-.707 7.13 7.13 0 0 0 1.415-1.097 6.835 6.835 0 0 0 1.087-1.414c.307-.52.543-1.076.707-1.67C37.914 8.263 38 7.641 38 7a6.68 6.68 0 0 0-.256-1.855 6.786 6.786 0 0 0-.707-1.68A6.833 6.833 0 0 0 34.536.962a6.787 6.787 0 0 0-1.681-.707A6.683 6.683 0 0 0 31 0H7c-.642 0-1.264.085-1.865.256a6.81 6.81 0 0 0-1.67.707c-.52.301-.992.663-1.415 1.087-.424.423-.79.895-1.097 1.414-.3.52-.536 1.08-.707 1.68A6.944 6.944 0 0 0 0 7c0 .642.082 1.264.246 1.865.17.595.407 1.152.707 1.67a7.128 7.128 0 0 0 2.511 2.512c.52.3 1.076.536 1.67.707A7.057 7.057 0 0 0 7 14z"/></svg>