<svg xmlns="http://www.w3.org/2000/svg" width="14" height="14" fill="none" viewBox="0 0 14 14"><path fill="#282725" fill-opacity=".4" d="M7 0c.642 0 1.26.085 1.855.256.601.164 1.162.4 1.68.707a6.835 6.835 0 0 1 2.502 2.501c.307.52.543 1.08.707 1.68C13.914 5.74 14 6.359 14 7c0 .642-.085 1.264-.256 1.865a6.825 6.825 0 0 1-.707 1.67c-.301.52-.663.992-1.087 1.415a7.13 7.13 0 0 1-1.414 1.097c-.52.3-1.08.536-1.68.707A6.943 6.943 0 0 1 7 14a7.057 7.057 0 0 1-1.865-.246 7.398 7.398 0 0 1-1.67-.707 7.129 7.129 0 0 1-2.512-2.511 7.398 7.398 0 0 1-.707-1.67A7.057 7.057 0 0 1 0 7c0-.642.082-1.26.246-1.855.17-.601.407-1.162.707-1.68A7.1 7.1 0 0 1 2.05 2.05 6.834 6.834 0 0 1 3.464.963a6.825 6.825 0 0 1 1.67-.707A6.792 6.792 0 0 1 7 0z" opacity=".5"/></svg>