<svg xmlns="http://www.w3.org/2000/svg" width="100" height="40" fill="none" viewBox="0 0 100 40"><path fill="#FFFCF9" fill-rule="evenodd" d="M39.443 36.446c-2.247 3.657-13.522 3.324-18.188 3.324-4.665 0-14.948 0-18.188-3.324C.216 33.485 0 23.116 0 19.885c0-3.232.216-13.6 3.067-16.519C6.307 0 16.59 0 21.255 0c4.666 0 14.948 0 18.188 3.366 2.852 2.919 3.11 13.287 3.11 16.519 0 3.231-.258 13.6-3.11 16.56zM37.196 5.7c-1.944-2.02-9.806-2.379-15.941-2.379-6.135 0-13.998.359-15.898 2.379-1.513 1.57-2.203 8.842-2.203 14.184 0 5.341.691 12.613 2.203 14.184 1.9 2.019 9.763 2.423 15.898 2.423s13.997-.404 15.941-2.423c1.513-1.571 2.16-8.843 2.16-14.184 0-5.342-.647-12.613-2.16-14.184zm-3.283 18.492H8.597L7.04 11.447l7.734 5.566 6.48-6.777 6.524 6.777 7.733-5.565-1.599 12.747zm-.604 4.983H9.245l-.389-2.783h24.798l-.345 2.783zm-5.79-8.842l-6.264-6.464-6.264 6.464-4.752-3.501.561 4.623h20.91l.604-4.623-4.794 3.5z" clip-rule="evenodd"/><path fill="#FFFCF9" d="M49.826 21.348c0 2.953 1.436 4.664 3.92 4.664 1.19 0 2.154-.39 2.842-1.11.509-.538.838-1.226.838-1.718 0-.305-.172-.5-.479-.5-.24 0-.374.125-.53.469-.487 1.226-1.415 1.86-2.634 1.86-1.855 0-2.91-1.321-2.91-3.657V19.55c0-2.328 1.048-3.664 2.888-3.664 1.197 0 2.094.656 2.61 1.89.165.368.322.485.569.485.277 0 .464-.187.464-.515 0-.461-.322-1.165-.83-1.704-.696-.757-1.646-1.148-2.843-1.148-2.469 0-3.905 1.727-3.905 4.664v1.79zm9.343 4.532c.284 0 .456-.141.568-.508l.965-2.954h3.957l.965 2.954c.12.367.284.507.569.507.299 0 .5-.187.5-.476 0-.125-.03-.25-.074-.383l-3.209-9.36c-.15-.414-.359-.617-.726-.617-.374 0-.575.204-.725.618l-3.217 9.359a1.182 1.182 0 0 0-.067.383c0 .297.195.476.494.476zM61 21.52l1.661-5.055h.045l1.653 5.055H61zm7.938 4.336c.321 0 .53-.235.53-.602V21.02h3.958c.344 0 .56-.188.56-.492 0-.313-.216-.508-.56-.508h-3.957v-3.898h4.353c.344 0 .561-.188.561-.493 0-.312-.217-.508-.56-.508h-4.377c-.733 0-1.024.29-1.024.993v9.14c0 .367.194.602.516.602zm7.173-1.063c0 .704.292.985 1.025.985h4.466c.344 0 .56-.188.56-.492 0-.313-.216-.508-.56-.508h-4.444v-3.953h4.182c.344 0 .56-.188.56-.492 0-.305-.216-.5-.56-.5h-4.182v-3.711h4.451c.344 0 .561-.188.561-.493 0-.312-.217-.508-.561-.508h-4.473c-.733 0-1.025.29-1.025.993v8.68zm12.043-.429c.3 1.117.92 1.484 1.788 1.484.86 0 1.48-.531 1.72-1.484l1.197-4.719h.105l1.174 4.625c.277 1.11.883 1.578 1.818 1.578.882 0 1.436-.484 1.705-1.484l1.87-7.086c.06-.211.105-.586.105-.852 0-.82-.576-1.39-1.406-1.39-.793 0-1.28.523-1.489 1.648l-1.01 5.11h-.142l-1.19-5.172c-.254-1.11-.702-1.586-1.495-1.586-.793 0-1.212.453-1.481 1.586l-1.182 5.171h-.135l-1.084-5.109c-.24-1.148-.689-1.648-1.474-1.648-.845 0-1.421.578-1.421 1.421 0 .258.052.649.157 1.032l1.87 6.875z"/></svg>