<svg width="6" height="7" fill="none" xmlns="http://www.w3.org/2000/svg"><path d="M2.45.48c.087-.64 1.013-.64 1.1 0l.117.86c.049.36.425.576.76.439l.803-.329c.598-.245 1.062.558.55.954l-.685.53a.555.555 0 000 .878l.685.53c.512.397.048 1.2-.55.954l-.802-.328a.555.555 0 00-.761.439l-.117.859c-.087.64-1.013.64-1.1 0l-.117-.859a.555.555 0 00-.76-.44l-.803.33c-.598.244-1.062-.558-.55-.954l.685-.53a.555.555 0 000-.879l-.685-.53c-.512-.396-.048-1.199.55-.954l.802.329a.555.555 0 00.761-.44L2.45.481z" fill="#E27762"/></svg>