<svg width="33" height="55" fill="none" xmlns="http://www.w3.org/2000/svg"><g opacity=".7" clip-path="url(#clip0)"><path fill-rule="evenodd" clip-rule="evenodd" d="M27.5.248h-22a5.525 5.525 0 00-3.89 1.596A5.426 5.426 0 000 5.698v43.604c0 1.446.58 2.832 1.61 3.854a5.525 5.525 0 003.89 1.596h22a5.525 5.525 0 003.889-1.596 5.425 5.425 0 001.61-3.854V5.698c0-1.445-.579-2.832-1.61-3.854a5.525 5.525 0 00-3.89-1.596zM29 47.374a2.919 2.919 0 01-2.92 2.919H6.92a2.919 2.919 0 01-2.92-2.919V26.107l25-15.4v36.667zm0-37.096l-25 15.4V7.627a2.919 2.919 0 012.919-2.919H26.08A2.919 2.919 0 0129 7.627v2.651zm-9.303 14.806l-3.573-2.043-3.572 2.043v4.088l3.572 2.044 3.573-2.044v-4.088z" fill="#7D6F5D"/></g><defs><clipPath id="clip0"><path fill="#fff" d="M0 0h33v55H0z"/></clipPath></defs></svg>