<svg xmlns="http://www.w3.org/2000/svg" width="33" height="55" fill="none" viewBox="0 0 33 55"><g clip-path="url(#a)" opacity=".7"><path fill="#7D6F5D" fill-rule="evenodd" d="M27.5.248h-22a5.525 5.525 0 0 0-3.89 1.596A5.426 5.426 0 0 0 0 5.698v43.604a5.43 5.43 0 0 0 1.61 3.854 5.525 5.525 0 0 0 3.89 1.596h22a5.525 5.525 0 0 0 3.889-1.596 5.425 5.425 0 0 0 1.61-3.854V5.698a5.427 5.427 0 0 0-1.61-3.854 5.525 5.525 0 0 0-3.89-1.596zM29 47.374a2.919 2.919 0 0 1-2.92 2.919H6.92A2.919 2.919 0 0 1 4 47.374V26.107l25-15.4v36.667zm0-37.096l-25 15.4V7.627a2.919 2.919 0 0 1 2.919-2.919H26.08A2.919 2.919 0 0 1 29 7.627v2.651zm-9.303 14.806l-3.573-2.043-3.572 2.043v4.088l3.572 2.044 3.573-2.044v-4.088z" clip-rule="evenodd"/></g><defs><clipPath id="a"><path fill="#fff" d="M0 0h33v55H0z"/></clipPath></defs></svg>