<svg xmlns="http://www.w3.org/2000/svg" width="24" height="24" fill="none" viewBox="0 0 24 24"><path fill="#FFFCF9" d="M15.75 0a8.15 8.15 0 0 1 5.824 2.426A8.104 8.104 0 0 1 24 8.25a8.15 8.15 0 0 1-1.125 4.16 8.392 8.392 0 0 1-2.965 2.965 8.15 8.15 0 0 1-4.16 1.125 8.135 8.135 0 0 1-2.813-.492 8.45 8.45 0 0 1-2.46-1.418l-9.2 9.187A.72.72 0 0 1 .75 24a.72.72 0 0 1-.527-.223A.72.72 0 0 1 0 23.25a.72.72 0 0 1 .223-.527l9.187-9.2a8.445 8.445 0 0 1-1.418-2.46A8.134 8.134 0 0 1 7.5 8.25a8.15 8.15 0 0 1 1.125-4.16c.36-.61.79-1.164 1.29-1.664a8.392 8.392 0 0 1 1.675-1.301A8.152 8.152 0 0 1 15.75 0zm0 15a6.6 6.6 0 0 0 2.625-.527 6.936 6.936 0 0 0 2.145-1.454 6.77 6.77 0 0 0 1.44-2.144c.36-.82.54-1.695.54-2.625 0-.93-.18-1.805-.54-2.625a6.77 6.77 0 0 0-1.44-2.145 6.771 6.771 0 0 0-2.145-1.44 6.47 6.47 0 0 0-2.625-.54c-.93 0-1.805.18-2.625.54a6.771 6.771 0 0 0-3.598 3.585A6.593 6.593 0 0 0 9 8.25a6.6 6.6 0 0 0 .527 2.625c.36.82.844 1.535 1.454 2.145a6.936 6.936 0 0 0 2.144 1.453A6.6 6.6 0 0 0 15.75 15z"/></svg>