<svg width="124" height="23" fill="none" xmlns="http://www.w3.org/2000/svg"><path d="M11.18 0l2.52 7.73h8.12l-6.57 4.77 2.5 7.73-6.57-4.77-6.57 4.77 2.51-7.73L.55 7.73h8.12L11.18 0zM36.9 0l2.52 7.78h8.18l-6.62 4.81 2.53 7.78-6.62-4.8-6.62 4.8 2.53-7.78-6.62-4.8h8.18L36.9 0zM62.52 0l2.53 7.78h8.19l-6.62 4.81 2.52 7.78-6.62-4.8-6.62 4.8 2.53-7.78-6.62-4.8H60L62.52 0zM87.38 0l2.53 7.78h8.18l-6.62 4.81L94 20.37l-6.62-4.8-6.62 4.8 2.53-7.78-6.62-4.8h8.18L87.38 0z" fill="#FFFCF9"/><path d="M113.01 0l2.53 7.78h8.18l-6.62 4.81 2.53 7.78-6.62-4.8-6.62 4.8 2.53-7.78-6.62-4.8h8.18L113.01 0z" fill="#FFFCF9" fill-opacity=".4"/></svg>