<svg width="160" height="30" fill="none" xmlns="http://www.w3.org/2000/svg"><path d="M14.4 0l3.23 9.95H28.1l-8.47 6.15 3.23 9.95-8.46-6.15-8.46 6.15 3.23-9.95L.7 9.95h10.47L14.4 0zM47.5 0l3.26 10.02h10.53l-8.52 6.2 3.25 10.01-8.52-6.2-8.52 6.2 3.25-10.02-8.52-6.2h10.53L47.5 0zM80.5 0l3.26 10.02h10.53l-8.52 6.2 3.25 10.01-8.52-6.2-8.52 6.2 3.25-10.02-8.52-6.2h10.53L80.5 0zM112.5 0l3.25 10.02h10.54l-8.52 6.2 3.25 10.01-8.52-6.2-8.52 6.2 3.25-10.02-8.52-6.2h10.54L112.5 0zM145.5 0l3.25 10.02h10.54l-8.52 6.2 3.25 10.01-8.52-6.2-8.52 6.2 3.25-10.02-8.52-6.2h10.53L145.5 0z" fill="#FFFCF9"/></svg>